<?xml version="1.0" standalone="no"?>
<!DOCTYPE svg PUBLIC "-//W3C//DTD SVG 20010904//EN"
 "http://www.w3.org/TR/2001/REC-SVG-20010904/DTD/svg10.dtd">
<svg version="1.0" xmlns="http://www.w3.org/2000/svg"
 width="1980.000000pt" height="990.000000pt" viewBox="0 0 1980.000000 990.000000"
 preserveAspectRatio="xMidYMid meet">
<metadata>
Created by potrace 1.16, written by Peter Selinger 2001-2019
</metadata>
<g transform="translate(0.000000,990.000000) scale(0.100000,-0.100000)"
fill="#000000" stroke="none">
<path d="M8803 9658 c1 -10 -39 -14 -170 -16 -139 -2 -173 -5 -173 -16 0 -11
-26 -15 -118 -17 -96 -3 -122 -7 -136 -21 -14 -15 -35 -18 -112 -18 -72 0 -99
-4 -110 -15 -12 -11 -39 -15 -105 -15 -66 0 -88 -3 -86 -12 1 -10 -21 -14 -80
-16 -65 -2 -83 -6 -83 -17 0 -12 -16 -15 -75 -15 -55 0 -74 -3 -72 -12 1 -9
-22 -14 -81 -18 -45 -3 -82 -9 -82 -15 0 -5 -25 -11 -55 -13 -38 -2 -58 -8
-62 -18 -3 -9 -20 -14 -49 -14 -32 0 -49 -6 -61 -20 -13 -15 -30 -20 -69 -20
-37 0 -54 -4 -58 -15 -4 -10 -20 -15 -51 -15 -31 0 -44 -4 -43 -12 2 -9 -15
-14 -54 -16 -43 -2 -58 -7 -58 -17 0 -11 -13 -15 -50 -15 -40 0 -48 -3 -44
-15 5 -12 -4 -15 -45 -15 -35 0 -50 -4 -49 -12 2 -8 -11 -14 -34 -16 -24 -2
-42 -10 -47 -21 -7 -13 -18 -16 -40 -13 -21 3 -34 -2 -47 -17 -13 -14 -30 -21
-55 -21 -24 0 -39 -5 -43 -15 -3 -9 -18 -15 -36 -15 -20 0 -30 -5 -30 -15 0
-11 -11 -15 -40 -15 -27 0 -39 -4 -38 -12 2 -9 -12 -14 -39 -16 -32 -2 -41 -7
-36 -18 4 -11 -4 -14 -31 -14 -25 0 -36 -4 -36 -15 0 -10 -11 -15 -35 -15 -24
0 -35 -5 -35 -15 0 -8 -8 -15 -17 -16 -38 -1 -57 -8 -65 -23 -5 -9 -22 -16
-38 -16 -19 0 -29 -5 -28 -12 2 -8 -10 -14 -29 -16 -21 -2 -33 -9 -33 -18 0
-9 -11 -14 -30 -14 -20 0 -30 -5 -30 -15 0 -10 -11 -15 -35 -15 -23 0 -34 -4
-33 -12 2 -8 -10 -14 -29 -16 -21 -2 -33 -9 -33 -18 0 -8 -10 -14 -25 -14 -14
0 -29 -8 -35 -20 -6 -11 -20 -20 -30 -20 -11 0 -20 -4 -20 -10 0 -5 -11 -12
-25 -16 -14 -3 -25 -12 -25 -20 0 -9 -11 -14 -30 -14 -20 0 -30 -5 -30 -15 0
-10 -10 -15 -30 -15 -20 0 -30 -5 -30 -15 0 -8 -9 -15 -20 -15 -11 0 -19 -6
-17 -12 1 -8 -11 -14 -30 -16 -23 -2 -30 -7 -26 -18 3 -8 0 -14 -6 -14 -5 0
-19 -9 -30 -21 -11 -12 -24 -18 -30 -15 -6 4 -18 -2 -28 -14 -10 -11 -23 -20
-30 -20 -7 0 -12 -5 -10 -12 1 -7 -12 -15 -31 -18 -18 -3 -31 -9 -30 -15 3
-11 -748 -20 -790 -10 -13 3 -20 10 -17 15 4 6 -20 10 -59 10 -48 0 -65 -4
-63 -12 1 -10 -37 -14 -158 -18 -99 -3 -159 -9 -157 -15 1 -6 -22 -11 -52 -13
-43 -2 -54 -6 -49 -17 4 -12 -5 -15 -46 -15 -39 0 -51 -4 -51 -15 0 -10 -10
-15 -29 -15 -20 0 -30 -6 -34 -20 -3 -13 -14 -20 -30 -20 -14 0 -27 -7 -31
-15 -3 -8 -12 -15 -21 -15 -8 0 -15 -7 -15 -15 0 -8 -7 -15 -15 -15 -8 0 -15
-7 -15 -15 0 -9 -10 -15 -26 -15 -15 0 -23 -4 -19 -10 4 -6 -7 -15 -24 -21
-20 -7 -31 -18 -31 -30 0 -11 -7 -22 -15 -25 -8 -4 -15 -15 -15 -25 0 -10 -7
-19 -15 -19 -8 0 -15 -7 -15 -15 0 -8 -7 -15 -15 -15 -8 0 -15 -7 -15 -15 0
-8 -9 -19 -19 -25 -11 -5 -21 -22 -23 -37 -2 -17 -8 -27 -16 -25 -9 2 -12 -6
-11 -20 4 -25 -28 -68 -49 -68 -18 0 -69 -52 -74 -76 -2 -10 -10 -18 -16 -17
-7 2 -12 -4 -12 -12 0 -8 -9 -19 -19 -25 -11 -5 -21 -22 -23 -37 -2 -16 -8
-27 -15 -26 -9 2 -13 -10 -13 -33 0 -28 -3 -35 -15 -30 -12 4 -15 -4 -15 -44
0 -38 -4 -50 -15 -50 -13 0 -15 -26 -15 -170 0 -131 3 -169 13 -167 8 1 13
-14 15 -45 2 -34 7 -48 18 -48 10 0 14 -12 14 -45 0 -33 4 -45 15 -45 10 0 15
-10 15 -34 0 -26 5 -35 21 -39 15 -4 19 -11 14 -26 -4 -14 0 -23 15 -31 11 -6
20 -21 20 -34 0 -13 7 -26 15 -30 9 -3 15 -18 15 -36 0 -19 5 -29 13 -27 7 1
13 -11 15 -30 2 -21 9 -33 18 -33 9 0 14 -11 14 -30 0 -19 5 -29 13 -27 7 1
13 -11 15 -30 2 -21 9 -33 18 -33 9 0 14 -11 14 -30 0 -19 7 -33 20 -40 14 -8
19 -17 15 -30 -4 -13 1 -22 15 -30 14 -8 20 -21 20 -46 0 -19 4 -33 9 -30 11
7 21 -18 21 -55 0 -19 5 -29 15 -29 11 0 15 -12 15 -45 0 -33 4 -45 15 -45 10
0 15 -11 15 -35 0 -23 4 -34 13 -32 7 1 13 -11 15 -30 2 -21 9 -33 18 -33 8 0
14 -10 14 -25 0 -15 6 -25 14 -25 8 0 17 -9 21 -19 3 -11 12 -22 20 -25 13 -4
15 -44 15 -245 0 -203 2 -240 15 -245 12 -4 15 -24 15 -86 0 -64 3 -80 15 -80
12 0 15 -14 15 -65 0 -47 4 -64 13 -63 8 2 14 -16 17 -55 3 -31 10 -56 15 -55
6 2 11 -18 13 -44 2 -34 7 -48 18 -48 10 0 14 -12 14 -39 0 -30 4 -40 20 -44
16 -4 19 -11 14 -35 -5 -23 -1 -35 15 -48 12 -10 21 -28 21 -40 0 -12 7 -24
15 -28 9 -3 15 -18 15 -36 0 -20 5 -30 15 -30 10 0 15 -10 15 -30 0 -20 5 -30
15 -30 10 0 15 -11 15 -35 0 -26 3 -33 15 -29 11 5 15 -1 15 -20 0 -16 6 -26
15 -26 9 0 15 -9 15 -24 0 -16 7 -26 21 -29 15 -4 20 -11 16 -22 -4 -9 2 -22
13 -32 11 -10 20 -23 20 -30 0 -7 7 -13 15 -13 10 0 15 -10 15 -30 0 -20 5
-30 15 -30 8 0 15 -7 15 -15 0 -8 7 -15 15 -15 10 0 15 -10 15 -30 0 -16 5
-30 10 -30 13 0 60 -49 60 -61 0 -5 7 -9 15 -9 10 0 15 -10 15 -30 0 -20 5
-30 15 -30 8 0 15 -7 15 -15 0 -8 7 -15 15 -15 8 0 15 -7 15 -15 0 -8 7 -15
15 -15 8 0 15 -9 15 -21 0 -12 4 -17 11 -14 6 4 13 -2 16 -13 2 -11 13 -22 24
-25 13 -3 17 -11 13 -21 -4 -11 -1 -16 10 -16 9 0 16 -6 16 -14 0 -8 29 -42
65 -77 36 -34 65 -68 65 -76 0 -7 6 -13 13 -13 8 0 35 -22 61 -50 26 -27 52
-50 57 -50 13 0 49 -38 49 -51 0 -6 7 -8 16 -5 10 4 18 0 21 -13 3 -11 14 -22
25 -24 11 -3 17 -10 13 -16 -3 -7 2 -11 14 -11 12 0 21 -7 21 -15 0 -8 6 -15
13 -15 7 0 20 -8 29 -17 29 -31 47 -43 63 -43 8 0 15 -6 15 -12 0 -7 16 -24
35 -38 19 -14 35 -31 35 -37 0 -8 13 -13 30 -13 20 0 30 -5 30 -15 0 -8 7 -15
15 -15 8 0 15 -7 15 -15 0 -8 9 -15 20 -15 10 0 23 -6 27 -14 4 -8 17 -16 28
-18 11 -2 19 -10 17 -16 -1 -7 5 -12 13 -12 8 0 19 -9 25 -20 8 -15 17 -19 31
-15 15 5 22 1 26 -14 3 -12 12 -21 19 -21 8 0 14 -7 14 -15 0 -10 10 -15 30
-15 20 0 30 -5 30 -15 0 -8 9 -15 20 -15 11 0 20 -7 20 -15 0 -9 9 -15 25 -15
14 0 28 -6 31 -14 3 -8 16 -17 30 -20 13 -4 24 -11 24 -16 0 -6 7 -10 15 -10
8 0 30 -15 50 -32 26 -25 35 -41 35 -65 0 -25 4 -31 15 -27 12 5 15 -2 15 -30
0 -23 4 -35 13 -34 7 2 13 -10 15 -29 2 -21 9 -33 18 -33 9 0 14 -10 14 -29 0
-21 6 -30 21 -34 15 -4 19 -11 14 -26 -4 -14 0 -23 15 -31 13 -7 20 -21 20
-40 0 -18 5 -29 12 -28 7 2 15 -11 18 -30 3 -18 10 -32 15 -32 6 1 12 -8 15
-20 3 -12 10 -20 15 -18 6 2 11 -11 13 -29 2 -23 7 -30 18 -26 10 4 14 -2 14
-21 0 -16 6 -26 15 -26 8 0 15 -7 15 -15 0 -8 16 -29 35 -48 19 -19 35 -43 35
-54 0 -12 7 -23 15 -27 8 -3 15 -12 15 -21 0 -8 7 -15 15 -15 8 0 15 -9 15
-20 0 -11 7 -20 15 -20 9 0 15 -9 15 -25 0 -16 6 -25 15 -25 8 0 15 -6 15 -14
0 -7 9 -16 21 -19 12 -3 19 -11 17 -18 -2 -7 4 -21 14 -31 10 -10 18 -25 18
-33 0 -8 7 -15 15 -15 8 0 15 -7 15 -15 0 -8 7 -15 15 -15 8 0 15 -7 15 -15 0
-8 7 -15 15 -15 8 0 15 -7 15 -15 0 -8 7 -15 15 -15 13 0 19 -12 16 -32 0 -4
6 -5 14 -2 14 6 20 -5 16 -35 -2 -7 2 -10 8 -7 5 4 15 -4 22 -16 6 -13 31 -41
55 -64 24 -22 44 -46 44 -52 0 -7 6 -12 13 -12 8 0 27 -16 43 -35 16 -19 37
-35 46 -35 10 0 18 -4 18 -10 0 -16 67 -80 84 -80 9 0 16 -7 16 -15 0 -8 7
-15 15 -15 8 0 15 -7 15 -15 0 -8 5 -15 11 -15 14 0 59 -47 59 -61 0 -5 7 -9
15 -9 9 0 18 -7 21 -15 4 -8 13 -15 20 -15 8 0 17 -7 20 -15 4 -8 15 -15 25
-15 10 0 19 -7 19 -15 0 -8 6 -15 13 -15 8 0 27 -16 43 -35 20 -24 34 -33 47
-29 13 4 20 0 24 -15 3 -12 12 -21 19 -21 8 0 14 -7 14 -15 0 -9 9 -15 25 -15
16 0 25 -6 25 -15 0 -8 9 -15 20 -15 11 0 23 -6 26 -14 3 -8 17 -17 30 -20 14
-4 22 -11 19 -16 -3 -6 2 -10 12 -10 10 0 26 -9 36 -20 10 -12 22 -18 28 -14
6 3 19 -3 30 -15 11 -12 24 -21 29 -21 6 0 10 -7 10 -15 0 -10 10 -15 30 -15
20 0 30 -5 30 -15 0 -10 10 -15 30 -15 20 0 30 -5 30 -15 0 -8 9 -15 20 -15
11 0 23 -7 26 -15 4 -8 15 -15 25 -15 11 0 22 -7 25 -15 4 -8 16 -15 28 -15
12 0 29 -9 39 -20 9 -11 23 -17 31 -14 8 3 19 -3 26 -15 7 -14 21 -21 41 -21
24 0 30 -4 25 -15 -4 -12 3 -15 29 -15 24 0 35 -5 35 -14 0 -10 13 -16 35 -18
20 -2 34 -7 33 -13 -2 -5 17 -12 42 -15 29 -3 44 -10 42 -17 -1 -8 9 -13 28
-13 18 0 33 -6 36 -15 4 -10 19 -15 43 -15 24 0 42 -7 54 -20 10 -11 29 -20
46 -20 16 0 31 -6 34 -14 4 -9 23 -16 49 -18 28 -2 42 -7 40 -16 -1 -8 14 -12
49 -12 41 0 50 -3 46 -15 -5 -11 6 -15 54 -17 33 -2 58 -7 57 -13 -2 -5 22
-12 52 -15 37 -3 54 -9 52 -17 -1 -10 18 -13 73 -13 60 0 75 -3 75 -15 0 -12
13 -15 59 -15 43 0 64 -5 77 -17 12 -13 39 -18 105 -21 67 -3 89 -8 89 -18 0
-11 23 -14 111 -14 95 0 110 -2 105 -15 -5 -13 58 -15 529 -15 469 0 535 2
535 15 0 13 21 15 125 15 104 0 125 2 125 15 0 12 15 15 75 15 63 0 78 3 92
20 15 17 30 20 90 20 53 0 72 3 71 13 -2 8 20 13 75 17 42 3 77 10 77 15 0 6
29 11 64 13 52 2 64 6 59 17 -4 12 6 15 51 15 45 0 54 3 50 15 -5 12 5 15 55
15 48 0 61 3 61 15 0 10 11 15 35 15 24 0 35 5 35 15 0 15 11 19 39 15 23 -3
62 10 56 19 -7 12 19 21 60 21 20 0 35 6 39 15 3 9 18 15 36 15 20 0 30 5 30
15 0 11 12 15 45 15 33 0 45 4 45 15 0 10 11 15 35 15 26 0 33 3 29 15 -5 12
2 15 30 15 25 0 36 4 36 15 0 10 10 15 29 15 21 0 30 6 34 21 4 15 11 19 26
14 14 -4 23 0 31 15 7 13 21 20 40 20 20 0 30 5 30 15 0 10 10 15 30 15 20 0
30 5 30 15 0 10 10 15 30 15 20 0 30 5 30 15 0 10 10 15 30 15 20 0 30 5 30
15 0 9 9 15 25 15 16 0 25 6 25 15 0 9 9 15 24 15 16 0 26 7 29 21 4 15 11 20
22 16 9 -4 22 2 32 13 10 11 27 20 39 20 12 0 24 7 28 15 3 8 12 15 21 15 8 0
15 7 15 15 0 10 10 15 30 15 18 0 29 5 28 12 -2 7 7 14 19 16 14 2 20 8 16 18
-4 10 3 14 26 14 20 0 31 5 31 14 0 8 9 17 19 21 11 3 22 12 25 20 3 8 12 15
21 15 8 0 15 4 15 9 0 5 10 13 22 17 12 4 33 20 47 35 14 16 33 29 43 29 10 0
17 6 16 13 -2 7 9 13 25 15 15 2 25 8 21 13 -3 6 3 13 15 16 12 3 21 10 21 17
0 14 44 56 59 56 6 0 11 5 11 10 0 6 7 10 15 10 8 0 23 9 32 20 10 11 23 20
31 20 7 0 10 5 7 11 -4 6 2 13 14 16 12 3 21 10 21 15 0 14 105 118 120 118 6
0 8 5 5 11 -4 6 2 13 14 16 12 3 21 12 21 19 0 8 7 14 15 14 8 0 15 7 15 15 0
8 6 15 14 15 7 0 16 9 19 21 3 12 10 18 16 14 6 -3 11 -1 11 6 0 7 29 40 64
74 35 34 66 70 68 79 1 9 8 17 13 16 6 -1 13 9 16 22 3 13 11 22 17 20 7 -1
12 3 12 10 0 6 23 33 50 60 28 27 50 57 50 68 0 11 7 20 15 20 8 0 15 7 15 15
0 7 6 18 14 22 8 4 16 17 18 28 2 11 10 19 16 17 7 -1 12 9 12 23 0 15 6 25
14 25 8 0 17 11 20 25 4 14 11 25 16 25 6 0 10 9 10 21 0 13 8 23 20 26 12 3
20 13 19 22 -3 31 1 41 16 41 9 0 15 10 15 26 0 19 4 25 14 21 10 -4 16 2 18
21 2 15 9 26 16 24 7 -1 12 9 12 28 0 18 6 33 15 36 8 4 15 17 15 30 0 14 7
27 15 30 8 4 15 17 15 30 0 12 7 27 16 32 9 5 18 20 19 33 4 38 4 39 21 39 12
0 15 6 10 25 -6 23 -3 25 24 25 20 0 30 5 30 15 0 10 11 15 35 15 26 0 33 3
29 15 -5 11 1 15 25 15 21 0 31 5 31 15 0 9 9 15 25 15 16 0 25 6 25 15 0 8 7
15 15 15 8 0 23 9 32 20 10 11 27 20 39 20 12 0 24 7 28 15 3 8 12 15 21 15 8
0 15 7 15 15 0 10 10 15 30 15 20 0 30 5 30 15 0 8 7 15 15 15 8 0 15 7 15 15
0 10 10 15 30 15 19 0 30 5 30 14 0 8 9 18 20 21 11 3 20 13 20 21 0 8 9 14
20 14 11 0 20 4 20 10 0 5 11 12 25 16 14 3 25 12 25 20 0 8 7 14 15 14 8 0
15 7 15 15 0 9 9 15 25 15 14 0 24 5 23 12 -2 7 11 15 27 19 17 4 26 7 21 8
-12 1 109 121 123 121 6 0 11 4 11 10 0 5 11 12 24 16 14 3 27 12 30 20 3 8
13 14 21 14 9 0 13 5 10 11 -4 6 2 13 14 16 12 3 21 10 21 15 0 14 135 148
149 148 6 0 11 7 11 15 0 8 7 15 15 15 8 0 15 5 15 11 0 7 16 27 35 46 19 19
35 40 35 48 0 8 7 15 16 15 8 0 12 5 9 10 -7 12 34 60 51 60 7 0 14 9 17 21 3
12 10 18 16 14 7 -3 11 2 11 14 0 12 7 21 15 21 10 0 15 10 15 30 0 20 5 30
15 30 8 0 15 7 15 15 0 8 6 15 14 15 8 0 18 9 21 20 3 11 13 20 22 20 10 0 14
6 10 20 -5 20 32 70 53 70 5 0 10 14 10 30 0 20 5 30 15 30 8 0 15 9 15 20 0
11 7 23 15 26 8 4 15 15 15 25 0 11 7 22 15 25 8 4 15 16 15 28 0 12 9 29 20
39 11 10 17 23 13 32 -4 11 1 18 15 22 15 3 22 15 24 37 2 18 8 30 16 28 8 -1
12 11 12 34 0 27 4 35 14 31 11 -4 16 3 18 29 2 19 8 34 13 34 6 0 12 15 15
35 3 20 10 35 15 35 6 0 12 21 15 47 3 31 9 47 18 45 8 -1 12 12 12 41 0 30 6
48 20 60 14 11 20 29 20 56 0 25 5 41 15 45 11 4 15 21 15 67 0 49 3 60 14 56
11 -5 16 4 18 36 2 23 7 40 12 37 5 -3 13 5 17 18 5 13 13 21 18 18 5 -3 11 8
15 25 3 17 10 28 16 24 6 -4 10 10 10 34 0 34 3 41 20 41 11 0 20 4 20 10 0 5
12 13 27 16 15 4 34 13 41 21 7 7 19 13 27 13 7 0 15 7 19 15 3 9 18 15 36 15
20 0 29 4 25 11 -4 6 2 13 14 16 12 3 21 12 21 19 0 9 11 14 30 14 17 0 30 5
30 11 0 15 42 59 58 59 6 0 12 5 12 10 0 6 6 10 14 10 7 0 16 9 19 21 3 12 10
18 16 15 13 -8 81 60 81 80 0 8 7 14 15 14 9 0 12 6 8 16 -4 10 1 17 16 21 11
3 21 12 21 19 0 8 7 14 15 14 10 0 15 10 15 30 0 20 5 30 15 30 8 0 15 7 15
15 0 9 7 18 15 21 9 4 15 19 15 35 0 19 5 29 15 29 10 0 15 10 15 30 0 20 5
30 15 30 8 0 16 6 17 13 0 6 2 17 3 22 2 6 3 16 4 23 0 6 7 12 15 12 9 0 16
12 18 33 2 19 8 31 16 29 8 -1 12 15 12 54 0 46 3 55 15 50 13 -5 15 22 14
207 0 117 -3 206 -6 199 -10 -24 -23 0 -23 44 0 32 -4 44 -15 44 -11 0 -15 12
-15 50 0 34 -5 52 -15 58 -10 5 -17 26 -20 55 -2 26 -11 54 -19 63 -12 11 -16
35 -16 89 0 56 -4 74 -15 79 -10 3 -15 19 -15 46 0 26 -4 39 -12 38 -7 -2 -15
11 -18 30 -3 18 -9 33 -15 32 -5 0 -11 17 -13 39 -2 30 -7 39 -18 34 -9 -3
-14 2 -14 15 0 11 -8 22 -20 25 -14 3 -18 10 -14 22 4 11 -5 26 -30 48 -20 18
-36 38 -36 45 0 6 -7 12 -15 12 -8 0 -15 7 -15 15 0 8 -7 15 -15 15 -8 0 -15
7 -15 15 0 8 -6 15 -13 15 -7 0 -20 9 -30 20 -9 11 -23 17 -31 14 -8 -3 -19 3
-26 15 -8 16 -20 21 -55 21 -33 0 -45 4 -45 14 0 11 -14 16 -50 18 -28 2 -49
8 -48 13 2 6 -43 12 -112 15 -72 3 -113 9 -110 15 3 6 -70 12 -205 15 -133 3
-209 9 -207 15 1 6 -46 12 -120 15 -91 4 -122 8 -120 18 1 8 -15 12 -56 12
-46 0 -61 4 -75 21 -11 12 -28 20 -45 19 -44 -3 -52 -1 -52 15 0 11 -11 15
-39 15 -33 0 -44 7 -79 44 -23 24 -49 46 -59 48 -10 2 -17 10 -16 16 2 7 -6
12 -17 12 -11 0 -23 7 -26 15 -4 8 -12 15 -20 15 -8 0 -14 4 -14 10 0 14 -78
88 -98 92 -9 2 -16 10 -15 16 2 7 -8 12 -22 12 -16 0 -25 6 -25 15 0 8 -7 15
-15 15 -8 0 -15 6 -15 14 0 8 -11 17 -25 20 -14 4 -25 11 -25 16 0 6 -9 10
-20 10 -11 0 -20 6 -20 14 0 7 -9 16 -20 19 -11 3 -20 13 -20 22 0 13 -6 16
-26 11 -20 -5 -27 -3 -31 14 -3 11 -12 20 -19 20 -8 0 -14 7 -14 15 0 10 -10
15 -30 15 -19 0 -30 5 -30 14 0 7 -9 16 -21 19 -12 3 -18 10 -14 16 4 7 -5 11
-22 11 -16 0 -36 8 -45 18 -29 30 -47 42 -64 42 -9 0 -18 9 -21 21 -5 16 -12
20 -31 16 -18 -3 -26 0 -29 14 -3 11 -14 19 -24 19 -11 0 -19 7 -19 15 0 10
-10 15 -30 15 -20 0 -30 5 -30 15 0 10 -10 15 -30 15 -20 0 -30 5 -30 15 0 10
-10 15 -28 15 -15 0 -35 8 -44 18 -29 30 -44 40 -76 47 -18 3 -32 13 -32 21 0
9 -11 14 -30 14 -19 0 -30 5 -30 14 0 9 -12 16 -32 18 -18 2 -32 8 -30 13 1 6
-12 12 -30 15 -19 3 -32 11 -31 18 2 8 -11 12 -37 12 -29 0 -40 4 -40 15 0 10
-10 15 -30 15 -18 0 -33 6 -36 15 -4 8 -16 15 -28 15 -12 0 -30 9 -40 21 -13
16 -25 20 -48 15 -24 -5 -31 -2 -35 14 -4 15 -14 20 -39 20 -23 0 -34 5 -34
14 0 10 -13 16 -37 18 -24 2 -37 8 -36 16 2 8 -12 12 -43 12 -37 0 -45 3 -40
15 4 12 -4 15 -40 15 -30 0 -46 5 -50 15 -4 9 -19 15 -40 15 -22 0 -37 6 -40
15 -4 9 -19 15 -38 15 -20 0 -38 8 -49 21 -10 11 -28 20 -40 19 -42 -4 -57 0
-57 15 0 11 -12 15 -45 15 -33 0 -45 4 -45 15 0 11 -12 15 -45 15 -33 0 -45 4
-45 14 0 11 -15 16 -52 18 -29 2 -52 8 -50 13 1 6 -26 12 -60 15 -43 3 -62 9
-61 18 2 8 -10 12 -36 12 -46 0 -73 9 -65 21 3 5 -20 9 -50 9 -38 0 -60 5 -72
17 -10 11 -38 18 -75 21 -40 3 -59 9 -59 18 0 9 -19 14 -62 16 -44 2 -62 7
-60 16 1 9 -20 12 -79 12 -67 0 -80 3 -76 15 5 12 -9 15 -76 17 -48 2 -81 7
-79 13 1 6 -38 12 -95 15 -71 4 -97 8 -95 18 1 9 -20 12 -82 12 -88 0 -120 6
-110 21 3 5 -41 9 -100 9 -86 0 -108 3 -122 18 -15 14 -40 18 -151 20 -105 3
-133 7 -133 18 0 11 -34 14 -172 16 -132 2 -172 6 -171 16 2 9 -156 12 -767
12 -611 0 -769 -3 -767 -12z m1337 -83 c427 -33 608 -50 745 -69 55 -8 152
-22 215 -31 322 -47 744 -129 1010 -199 171 -44 259 -68 295 -80 22 -7 74 -23
115 -36 150 -46 382 -125 500 -170 30 -12 67 -25 81 -30 14 -4 34 -12 45 -18
10 -6 44 -20 74 -32 30 -11 64 -25 75 -30 11 -5 49 -21 85 -35 112 -46 402
-187 550 -268 152 -82 552 -332 625 -390 6 -4 44 -33 85 -64 291 -219 603
-526 801 -788 60 -80 149 -215 179 -270 6 -11 19 -33 29 -50 26 -41 153 -297
181 -365 30 -73 77 -218 100 -309 21 -81 19 -88 -30 -170 -23 -36 -50 -107
-50 -130 0 -22 41 20 65 66 20 38 77 130 92 148 5 6 22 28 38 50 17 22 55 71
86 110 93 117 155 213 183 285 3 8 10 22 15 30 55 95 67 341 21 443 -23 51
-112 147 -136 147 -21 0 -19 -4 35 -71 85 -105 110 -234 75 -377 -37 -148 -43
-155 -121 -136 -34 8 -114 13 -195 14 -140 0 -168 4 -168 24 0 6 -25 60 -56
121 -58 117 -63 125 -106 193 -16 24 -28 45 -28 47 0 4 -50 77 -127 188 -20
29 -51 69 -69 90 -56 61 -43 75 49 54 78 -19 324 -31 333 -16 3 6 3 13 0 16
-3 3 -72 12 -153 19 -312 27 -303 25 -363 92 -23 26 -72 77 -108 114 -81 82
-76 96 23 64 81 -27 232 -56 290 -56 22 0 67 -5 100 -10 33 -6 116 -15 185
-20 530 -39 724 -109 823 -300 169 -322 187 -488 80 -748 -19 -46 -58 -122
-88 -170 -155 -249 -172 -282 -145 -282 30 0 231 318 287 455 7 17 16 50 22
74 12 54 37 84 51 61 5 -8 10 -27 10 -41 0 -15 8 -44 17 -65 23 -54 23 -318
-1 -384 -9 -25 -16 -52 -16 -60 0 -8 -29 -71 -63 -140 -116 -229 -239 -375
-426 -501 -164 -111 -188 -118 -146 -44 49 86 122 242 131 278 3 15 10 30 15
33 12 7 12 54 0 54 -5 0 -13 -10 -17 -22 -4 -13 -10 -25 -13 -28 -3 -3 -40
-72 -81 -155 -41 -82 -77 -152 -80 -155 -7 -5 -10 -12 -75 -140 -38 -76 -89
-140 -111 -140 -7 0 -24 14 -39 31 -19 23 -29 29 -37 21 -8 -8 -4 -22 17 -52
27 -39 27 -41 16 -102 -7 -35 -16 -74 -21 -88 -4 -14 -27 -85 -50 -158 -23
-72 -46 -135 -51 -138 -5 -3 -9 -13 -9 -22 0 -20 -153 -332 -191 -390 -16 -24
-29 -45 -29 -47 0 -9 -109 -169 -178 -260 -105 -139 -240 -291 -368 -415 -123
-119 -340 -302 -420 -355 -29 -19 -59 -41 -66 -48 -16 -15 -248 -169 -338
-224 -226 -138 -641 -339 -915 -444 -33 -13 -64 -27 -70 -31 -5 -4 -15 -8 -23
-8 -8 0 -28 -7 -45 -15 -37 -16 -83 -33 -222 -79 -251 -83 -347 -111 -585
-170 -58 -14 -118 -30 -135 -35 -16 -5 -46 -12 -65 -16 -19 -3 -62 -12 -95
-20 -198 -44 -406 -83 -565 -105 -41 -6 -95 -15 -120 -21 -25 -5 -84 -14 -130
-19 -47 -5 -116 -13 -155 -19 -74 -11 -307 -34 -515 -51 -236 -20 -841 -30
-1180 -20 -306 9 -392 14 -650 41 -58 6 -145 14 -193 19 -49 4 -116 13 -150
19 -34 6 -96 16 -137 22 -306 47 -356 56 -625 114 -204 45 -229 51 -410 101
-27 7 -70 19 -95 24 -25 6 -52 15 -60 19 -9 5 -31 12 -50 16 -66 14 -257 77
-338 111 -18 8 -39 14 -47 14 -8 0 -29 6 -47 14 -18 8 -53 22 -78 32 -25 10
-64 26 -87 36 -23 10 -47 18 -53 18 -5 0 -18 4 -28 10 -9 5 -62 28 -116 51
-54 22 -106 44 -115 49 -9 4 -45 21 -81 37 -35 15 -154 73 -265 129 -274 138
-448 243 -784 475 -64 44 -302 233 -376 299 -22 19 -108 103 -191 185 -290
288 -501 573 -666 900 -95 189 -176 423 -222 645 -27 130 -39 240 -45 410 l-6
165 -42 67 c-49 78 -100 185 -136 285 -24 65 -25 76 -15 136 18 109 -18 419
-68 589 -8 26 -14 56 -14 66 0 11 -6 42 -14 68 -85 288 -98 530 -39 719 43
140 175 295 324 381 124 72 213 101 400 128 133 20 261 20 476 1 92 -8 245
-16 338 -18 119 -3 170 -8 169 -16 -2 -27 -5 -31 -28 -43 -28 -15 -87 -62
-231 -181 -156 -130 -402 -386 -551 -572 l-32 -39 -68 16 c-67 17 -155 29
-221 32 -52 3 -56 13 -55 139 2 121 16 173 64 228 31 35 98 85 126 93 26 9 30
36 4 36 -24 0 -89 -36 -141 -78 -65 -53 -91 -117 -98 -245 -8 -139 8 -250 77
-527 16 -63 36 -149 45 -190 10 -41 23 -90 31 -108 8 -18 14 -40 14 -48 0 -9
6 -30 14 -47 27 -61 86 -282 86 -322 0 -9 6 -15 13 -13 19 7 20 106 2 173 -10
33 -30 98 -45 145 -49 152 -70 223 -70 242 0 37 142 265 274 438 295 389 693
741 1189 1052 38 24 80 51 95 60 15 9 38 23 52 31 14 7 79 43 145 79 154 85
433 220 575 278 30 12 69 28 85 35 17 7 48 20 70 28 22 9 81 32 132 51 91 35
414 144 508 171 84 25 147 42 230 64 44 12 94 26 110 30 17 5 46 12 65 16 19
3 62 12 95 20 106 24 198 43 275 59 41 8 102 20 135 26 33 7 87 16 120 20 33
4 69 10 81 14 22 7 197 31 339 47 50 5 142 16 205 24 63 9 147 16 185 16 39 0
131 6 205 14 198 19 924 19 1170 0z m-7057 -1862 c-13 -98 -7 -318 10 -381 17
-63 32 -125 54 -222 8 -36 21 -92 29 -125 8 -33 21 -89 29 -125 8 -36 18 -83
24 -105 6 -22 11 -65 11 -95 0 -30 7 -82 15 -115 8 -33 14 -79 15 -102 0 -44
-16 -67 -26 -36 -16 50 -91 204 -206 423 -24 47 -54 110 -67 140 -12 30 -28
69 -35 85 -40 88 -49 139 -49 266 -1 132 -1 131 55 259 31 71 49 102 85 148
50 61 65 57 56 -15z m690 -271 c-2 -9 21 -12 87 -12 58 0 90 -4 90 -11 0 -6
-9 -13 -19 -16 -11 -3 -22 -14 -24 -25 -3 -11 -10 -17 -16 -13 -7 4 -11 -5
-11 -24 0 -21 -5 -31 -15 -31 -8 0 -15 -6 -15 -13 0 -7 -9 -20 -20 -30 -11 -9
-17 -23 -14 -30 3 -8 -2 -20 -11 -27 -12 -10 -15 -10 -15 4 0 9 -6 15 -12 14
-9 -2 -14 21 -18 80 -3 47 -9 81 -15 80 -5 -2 -11 14 -13 35 -3 35 -1 38 20
35 13 -2 22 -9 21 -16z m12297 -772 c112 0 119 -1 125 -21 5 -14 1 -27 -12
-39 -31 -32 -43 -49 -43 -61 0 -15 -74 -89 -89 -89 -6 0 -11 -9 -11 -19 0 -11
-4 -23 -10 -26 -5 -3 -10 1 -10 9 0 8 -8 19 -17 25 -12 6 -17 20 -15 40 2 21
-4 37 -18 48 -14 12 -20 30 -20 59 0 28 -5 44 -15 48 -8 3 -15 13 -15 22 0 11
5 14 16 10 9 -3 69 -6 134 -6z m-10464 -3819 c18 -19 154 -89 374 -193 144
-68 192 -89 285 -127 11 -5 43 -18 70 -29 149 -61 412 -153 600 -211 177 -55
189 -58 255 -75 36 -10 88 -23 115 -31 48 -13 67 -18 200 -51 235 -58 662
-138 820 -154 39 -4 97 -12 130 -18 66 -12 298 -37 495 -52 584 -46 1301 -37
1915 25 83 8 170 17 195 19 56 4 188 23 300 41 47 8 110 17 140 20 30 4 73 10
95 15 22 5 69 14 105 20 184 32 424 83 504 106 26 8 55 14 64 14 8 0 38 6 66
14 28 8 80 22 116 31 36 10 85 23 110 31 25 7 79 23 120 35 144 41 337 104
430 139 30 12 71 26 90 32 19 5 39 14 44 19 6 5 17 9 25 9 9 1 34 9 56 20 22
11 46 19 53 20 7 0 20 4 30 9 16 9 80 38 147 67 17 7 96 44 177 83 80 39 151
71 157 71 20 0 11 -32 -35 -118 -142 -267 -252 -427 -459 -672 -141 -168 -205
-230 -235 -230 -35 0 -76 -37 -83 -76 -7 -34 -111 -143 -137 -144 -8 0 -23 14
-32 30 -15 26 -23 30 -60 30 -45 -1 -78 -20 -91 -53 -9 -23 37 -67 69 -67 13
0 24 -6 24 -13 0 -14 -237 -193 -370 -279 -129 -84 -222 -142 -250 -156 -14
-7 -47 -26 -75 -42 -44 -27 -372 -190 -450 -225 -140 -62 -384 -151 -590 -215
-46 -14 -265 -70 -315 -81 -244 -51 -380 -74 -545 -89 -60 -6 -146 -16 -190
-23 -106 -16 -653 -16 -760 0 -44 7 -127 17 -185 23 -198 19 -467 69 -660 122
-41 11 -88 24 -105 28 -63 15 -374 123 -465 162 -237 100 -449 207 -625 315
-11 7 -51 31 -90 54 -67 41 -126 80 -245 164 -64 45 -278 215 -333 265 -36 33
-38 37 -32 78 6 38 3 46 -20 68 -29 27 -60 31 -69 9 -8 -22 -21 -19 -61 16
-37 33 -45 63 -20 73 21 8 18 36 -7 63 -23 24 -64 31 -70 11 -8 -24 -54 4
-103 63 -27 33 -60 72 -73 87 -41 48 -228 295 -276 365 -66 97 -170 275 -233
397 -30 58 -58 109 -64 115 -17 17 -11 55 9 55 10 0 22 -4 28 -9z"/>
<path d="M9190 9539 c-36 -5 -155 -14 -265 -19 -110 -5 -225 -14 -255 -19 -30
-5 -82 -10 -115 -11 -33 0 -87 -7 -120 -15 -33 -8 -82 -15 -110 -15 -27 0 -75
-7 -105 -15 -30 -8 -70 -15 -89 -15 -19 0 -60 -6 -90 -14 -31 -8 -83 -19 -116
-24 -134 -23 -330 -69 -520 -122 -44 -12 -93 -26 -110 -30 -40 -10 -394 -128
-420 -140 -11 -5 -45 -19 -75 -30 -30 -12 -68 -27 -85 -35 -16 -7 -55 -23 -85
-35 -95 -39 -459 -213 -520 -250 -8 -5 -67 -39 -130 -76 -242 -140 -446 -286
-658 -467 -134 -114 -321 -302 -398 -398 -32 -41 -61 -76 -64 -79 -3 -3 -18
-23 -35 -45 -16 -22 -31 -42 -35 -45 -10 -9 -84 -119 -137 -203 -49 -78 -183
-337 -183 -354 0 -4 -6 -19 -13 -33 -35 -67 -91 -254 -137 -460 -14 -63 -40
-331 -40 -416 0 -87 26 -364 40 -419 5 -22 19 -80 30 -130 25 -103 47 -177 88
-290 33 -92 120 -283 139 -306 7 -8 13 -18 13 -22 0 -26 147 -250 269 -412
239 -316 624 -669 981 -899 41 -27 105 -68 141 -92 36 -24 76 -48 90 -54 13
-6 38 -19 54 -30 17 -11 44 -26 60 -34 17 -9 71 -38 120 -66 50 -27 100 -54
113 -60 12 -5 22 -14 22 -20 0 -12 -38 -4 -54 11 -6 5 -16 9 -24 9 -21 0 -196
82 -272 129 -19 11 -42 24 -50 27 -30 14 -367 211 -435 254 -12 8 -49 31 -80
50 -31 19 -69 43 -84 52 -87 55 -136 72 -125 43 4 -8 11 -15 17 -15 6 0 20 -8
31 -19 26 -23 334 -230 361 -242 11 -5 43 -23 70 -40 28 -16 64 -37 80 -45 17
-8 57 -30 90 -49 56 -33 375 -192 440 -220 71 -31 204 -84 250 -100 28 -10 64
-24 82 -31 17 -8 35 -14 41 -14 5 0 23 -7 38 -15 16 -8 36 -15 45 -15 8 0 19
-4 25 -9 5 -5 32 -14 59 -20 28 -5 77 -19 110 -31 33 -12 85 -25 115 -31 31
-5 105 -25 165 -44 61 -20 133 -42 160 -50 28 -8 82 -24 120 -35 39 -12 95
-27 125 -35 30 -7 82 -20 115 -29 134 -34 265 -63 380 -85 33 -7 90 -18 126
-26 37 -8 81 -15 97 -15 17 0 57 -7 89 -15 31 -8 77 -15 101 -15 25 0 81 -7
126 -15 200 -36 704 -69 1056 -69 249 0 596 17 795 39 72 8 225 16 340 19 266
6 517 23 622 42 45 8 99 14 120 14 21 0 54 5 73 10 19 6 67 17 105 25 80 16
194 40 277 58 31 7 70 23 85 35 l28 22 -40 -4 c-107 -12 -193 -26 -218 -35
-16 -6 -41 -11 -57 -11 -15 0 -50 -6 -76 -14 -123 -35 -298 -61 -488 -72 -80
-5 -107 -4 -102 5 4 6 20 11 35 11 15 0 52 7 82 16 30 9 77 20 104 25 103 17
230 46 325 74 25 7 74 21 110 30 122 33 355 108 407 131 17 8 35 14 41 14 10
0 143 50 197 74 17 8 71 31 120 51 83 35 260 116 295 136 8 4 42 22 75 38 107
54 207 112 443 256 52 31 266 185 317 226 169 139 231 194 346 309 198 197
294 313 432 521 78 119 183 316 225 424 13 33 28 69 33 80 33 76 64 185 125
450 27 117 28 617 1 750 -36 179 -108 437 -129 459 -4 6 -8 16 -8 24 0 17 -14
49 -91 207 -74 152 -101 199 -197 345 -33 49 -188 257 -202 270 -3 3 -39 43
-80 90 -306 350 -746 693 -1225 957 -69 38 -352 178 -440 217 -107 48 -130 59
-157 73 -14 7 -33 13 -41 13 -9 0 -28 6 -44 14 -15 8 -48 22 -73 31 -25 9 -58
23 -75 31 -16 7 -42 16 -57 20 -16 3 -28 10 -28 15 0 12 73 12 86 0 5 -5 29
-14 54 -19 88 -21 135 -34 168 -48 18 -8 40 -14 50 -14 9 0 30 -7 46 -15 15
-8 35 -15 43 -15 8 0 27 -6 41 -14 15 -8 52 -24 82 -36 55 -21 103 -42 150
-65 39 -19 90 -28 90 -16 0 18 -86 66 -210 119 -19 8 -48 21 -63 28 -16 8 -33
14 -39 14 -5 0 -24 6 -41 13 -33 14 -85 30 -217 67 -41 12 -97 27 -124 35 -26
8 -60 15 -75 15 -15 0 -31 4 -37 9 -5 6 -34 14 -64 20 -30 6 -95 20 -145 31
-167 40 -210 49 -345 75 -155 29 -259 50 -345 70 -33 7 -94 20 -135 29 -41 8
-100 20 -130 26 -30 7 -84 16 -120 20 -36 5 -90 13 -120 19 -167 31 -443 60
-690 71 -113 6 -235 14 -272 20 -80 12 -517 11 -608 -1z m825 -70 c452 -29
946 -99 1295 -184 30 -8 87 -21 125 -30 92 -21 180 -44 230 -59 22 -7 65 -20
95 -29 117 -35 196 -59 215 -68 34 -15 109 -40 135 -46 14 -3 34 -12 45 -19
11 -8 29 -14 40 -14 11 0 29 -7 39 -15 11 -8 26 -15 34 -15 8 0 28 -6 45 -14
18 -7 52 -21 77 -31 25 -10 64 -27 87 -37 23 -10 44 -18 47 -18 3 0 44 -18 93
-41 259 -121 438 -215 633 -334 117 -72 137 -85 330 -220 250 -175 581 -480
764 -706 127 -155 315 -445 383 -589 109 -229 165 -400 220 -675 15 -74 18
-139 17 -365 0 -181 -4 -297 -13 -340 -7 -36 -17 -86 -21 -113 -5 -26 -13 -62
-19 -80 -5 -17 -19 -66 -31 -107 -76 -266 -216 -540 -407 -795 -188 -250 -399
-467 -628 -645 -38 -30 -74 -58 -80 -63 -112 -88 -355 -252 -440 -297 -11 -6
-38 -21 -60 -33 -152 -88 -328 -177 -530 -267 -11 -5 -42 -18 -70 -30 -27 -12
-59 -25 -70 -30 -37 -17 -100 -42 -125 -50 -14 -5 -50 -18 -80 -30 -30 -11
-111 -39 -180 -61 -69 -23 -134 -45 -145 -49 -11 -5 -38 -13 -60 -19 -22 -5
-92 -24 -155 -42 -116 -32 -217 -56 -345 -83 -160 -34 -263 -55 -305 -61 -25
-4 -79 -13 -120 -20 -245 -44 -616 -77 -1160 -101 -194 -9 -807 28 -1115 67
-44 6 -111 14 -150 19 -72 9 -243 38 -375 64 -41 8 -111 22 -155 30 -78 15
-409 97 -470 116 -16 5 -64 19 -105 31 -41 12 -127 39 -190 61 -63 22 -128 43
-145 48 -16 4 -55 18 -85 30 -30 12 -66 25 -80 30 -25 8 -88 33 -125 50 -63
28 -115 50 -119 50 -16 0 -449 212 -541 265 -33 19 -69 39 -80 44 -11 5 -37
21 -58 35 -21 14 -40 26 -42 26 -2 0 -37 21 -77 47 -40 27 -81 52 -90 58 -78
45 -376 269 -498 374 -98 85 -309 296 -393 393 -146 171 -244 312 -387 558
-14 23 -76 151 -93 190 -9 19 -25 56 -36 82 -12 26 -21 51 -21 56 0 5 -7 23
-15 38 -8 16 -15 36 -15 45 0 9 -7 30 -15 45 -8 16 -15 37 -15 48 0 10 -7 39
-15 65 -48 156 -78 406 -72 606 4 151 27 354 46 420 13 42 30 112 42 165 5 24
14 49 19 54 6 6 10 19 10 30 0 12 7 34 15 50 8 15 15 33 15 38 0 11 58 146 81
188 5 8 22 42 38 75 94 185 218 369 365 540 82 96 307 320 391 390 33 28 66
56 74 63 53 51 447 330 501 355 8 4 29 16 45 27 17 11 40 24 52 29 12 6 41 22
64 36 44 29 322 169 404 204 28 12 65 29 82 37 18 8 47 21 65 29 18 7 49 21
70 29 20 9 43 16 51 16 9 0 18 4 22 10 3 5 20 14 38 19 18 5 57 19 87 31 30
12 69 26 85 30 47 13 217 71 253 86 18 8 41 14 51 14 10 0 32 7 47 15 16 8 38
15 50 15 11 0 40 6 65 14 78 24 243 66 359 90 198 41 229 47 290 56 265 42
338 52 435 61 61 5 117 12 125 15 23 8 304 26 535 34 248 8 576 4 800 -11z"/>
<path d="M9415 8864 c-166 -22 -235 -44 -405 -131 -98 -50 -300 -176 -365
-227 -73 -58 -236 -175 -265 -192 -19 -10 -42 -24 -50 -30 -32 -23 -190 -84
-218 -84 -58 0 -92 -12 -92 -31 0 -15 8 -19 39 -19 39 0 149 24 180 40 9 4 39
18 66 30 64 29 160 93 305 200 101 76 231 166 282 195 78 46 186 101 258 133
155 68 401 99 539 68 38 -9 88 -16 111 -16 36 0 132 -26 185 -50 11 -5 76 -33
145 -61 69 -29 147 -66 174 -81 89 -53 210 -151 318 -258 58 -59 117 -114 131
-123 14 -9 48 -37 75 -62 113 -104 182 -144 460 -267 28 -12 52 -26 52 -30 0
-5 6 -8 13 -8 6 0 32 -18 56 -40 44 -41 77 -47 64 -14 -12 32 -116 112 -183
140 -96 41 -217 100 -270 133 -19 11 -44 25 -55 30 -11 5 -33 21 -50 36 -129
120 -256 238 -308 288 -108 104 -259 211 -364 257 -68 30 -115 51 -137 63 -11
5 -31 13 -45 17 -14 5 -51 18 -81 30 -71 28 -156 46 -300 65 -133 17 -134 17
-265 -1z"/>
<path d="M9285 8563 c-209 -51 -219 -53 -229 -64 -6 -5 -18 -9 -27 -9 -18 0
-148 -53 -199 -81 -8 -5 -37 -20 -65 -34 -27 -14 -57 -30 -65 -35 -8 -5 -54
-32 -102 -60 -48 -28 -115 -70 -150 -93 -35 -24 -70 -46 -78 -50 -8 -4 -28
-16 -45 -27 -16 -10 -55 -31 -85 -45 -30 -14 -63 -30 -73 -36 -11 -6 -40 -9
-65 -8 -41 3 -47 1 -47 -16 0 -17 8 -20 52 -23 55 -3 78 4 195 63 61 31 130
73 256 156 24 16 45 29 48 29 3 0 42 22 87 48 151 89 263 139 422 188 44 13
94 29 110 35 86 28 398 33 525 8 25 -5 72 -14 105 -20 83 -14 210 -54 255 -80
8 -4 35 -18 60 -30 25 -13 82 -44 127 -71 45 -26 86 -48 92 -48 5 0 11 -3 13
-8 2 -4 25 -22 52 -40 48 -31 76 -40 76 -24 0 19 -123 118 -180 145 -8 4 -28
16 -45 26 -59 38 -251 129 -305 144 -30 9 -80 23 -111 31 -31 9 -71 16 -90 16
-19 1 -63 7 -99 15 -87 19 -334 18 -415 -2z"/>
<path d="M13137 8343 c-26 -25 24 -101 96 -146 23 -15 27 -24 25 -54 -3 -32 1
-40 31 -60 41 -28 52 -28 81 -5 l23 19 -21 21 c-27 27 -28 43 -2 65 31 26 25
45 -30 96 -38 35 -64 51 -101 59 -57 13 -92 15 -102 5z"/>
<path d="M5840 8275 c-14 -7 -38 -19 -55 -26 -51 -23 -117 -82 -132 -118 -14
-32 -13 -35 9 -58 23 -23 26 -23 65 -9 62 22 163 91 184 126 24 38 24 62 1 83
-22 20 -38 20 -72 2z"/>
<path d="M9405 8091 c-11 -5 -34 -10 -51 -10 -36 -1 -224 -66 -309 -107 -93
-45 -152 -81 -260 -164 -146 -111 -232 -159 -390 -220 -33 -12 -69 -26 -80
-31 -11 -4 -58 -18 -105 -30 -72 -19 -112 -23 -258 -23 -110 -1 -171 -5 -169
-11 2 -5 19 -18 38 -27 67 -35 285 -21 459 29 172 48 361 142 498 247 138 106
182 134 267 175 39 18 83 39 98 47 16 8 35 14 44 14 8 0 29 6 46 13 67 29 145
47 227 52 117 8 341 -20 407 -50 18 -9 47 -22 65 -30 313 -135 501 -261 743
-497 185 -180 247 -227 367 -274 63 -24 128 -32 128 -14 0 11 -72 50 -93 50
-18 0 -111 49 -171 90 -26 18 -119 101 -205 184 -179 173 -211 200 -341 288
-114 76 -415 228 -454 228 -8 0 -17 4 -20 9 -3 5 -23 12 -43 16 -21 4 -44 11
-50 17 -28 23 -348 47 -388 29z"/>
<path d="M7556 8014 c-49 -50 -68 -101 -73 -193 -5 -80 13 -137 57 -176 19
-17 20 -17 26 0 4 10 2 26 -5 36 -54 88 -49 209 13 307 37 59 28 72 -18 26z"/>
<path d="M5688 7585 c-49 -27 -50 -117 -1 -136 36 -13 70 -1 99 37 25 32 25
34 8 63 -15 26 -52 52 -72 51 -4 -1 -19 -7 -34 -15z"/>
<path d="M5450 7495 c-14 -8 -32 -14 -42 -15 -9 0 -41 -25 -72 -56 -49 -50
-55 -61 -62 -111 -8 -71 2 -102 44 -126 30 -18 35 -18 72 -3 63 25 70 22 70
-29 0 -78 60 -110 114 -62 15 12 29 36 32 54 5 25 1 37 -19 57 -15 14 -38 26
-52 26 -31 0 -32 14 -4 43 66 68 65 181 -1 220 -34 20 -47 21 -80 2z m54 -45
c23 -8 26 -15 26 -59 0 -42 -5 -56 -31 -85 -48 -55 -91 -78 -141 -74 l-43 3
-3 51 c-3 48 -1 53 46 103 32 34 61 56 83 61 19 4 35 8 36 9 1 1 13 -3 27 -9z"/>
<path d="M13667 7485 c-41 -38 -35 -66 26 -128 42 -43 65 -58 110 -71 32 -9
67 -14 77 -11 38 12 70 46 70 74 0 41 -62 108 -128 137 -72 32 -119 31 -155
-1z m120 -34 c33 -10 89 -54 105 -84 12 -24 -6 -47 -39 -47 -13 0 -40 9 -61
20 -124 66 -128 146 -5 111z"/>
<path d="M5651 7351 c-39 -36 -41 -72 -5 -100 35 -28 61 -26 107 4 50 35 59
71 23 102 -38 33 -86 31 -125 -6z"/>
<path d="M13772 7208 c-38 -38 24 -138 85 -138 32 0 63 26 63 52 0 22 -37 66
-70 83 -35 18 -62 19 -78 3z"/>
<path d="M5803 6884 c-7 -3 -22 -21 -33 -39 -23 -38 -17 -65 20 -85 39 -21
108 17 124 67 14 43 -56 79 -111 57z"/>
<path d="M13542 6797 c-31 -32 -27 -60 12 -101 26 -28 41 -36 69 -36 50 0 75
36 57 80 -16 39 -65 80 -94 80 -12 0 -32 -10 -44 -23z"/>
<path d="M5931 6772 c-42 -59 -19 -112 48 -112 27 0 43 7 59 25 42 49 21 97
-49 110 -33 6 -39 4 -58 -23z"/>
<path d="M13356 6749 c-38 -30 -34 -67 11 -112 42 -43 61 -46 91 -14 34 36 30
89 -9 121 -37 31 -58 33 -93 5z"/>
<path d="M5640 6672 c-79 -39 -110 -87 -110 -176 0 -66 1 -70 39 -107 26 -26
48 -39 67 -40 60 -2 107 3 118 12 6 6 25 19 43 29 64 38 90 133 56 201 -45 89
-129 122 -213 81z m113 -41 c39 -15 70 -75 64 -122 -7 -50 -29 -76 -85 -100
-52 -23 -71 -24 -106 -5 -40 21 -55 46 -56 94 0 105 87 169 183 133z"/>
<path d="M13771 6661 c-21 -14 -9 -97 20 -127 29 -30 83 -33 99 -5 30 57 -14
141 -73 141 -18 0 -38 -4 -46 -9z"/>
<path d="M13516 6579 c-32 -28 -36 -37 -36 -79 0 -40 6 -57 37 -97 45 -59 56
-69 111 -93 99 -45 172 -12 172 77 0 52 -12 75 -69 136 -41 44 -89 71 -143 81
-32 6 -41 2 -72 -25z m167 -71 c36 -26 77 -91 77 -122 0 -87 -169 -37 -220 65
-25 48 -25 70 0 97 l20 21 47 -21 c27 -11 61 -30 76 -40z"/>
<path d="M5956 6553 c-55 -55 -45 -106 21 -111 35 -3 44 1 67 28 37 45 34 75
-11 99 -32 17 -48 14 -77 -16z"/>
<path d="M13413 6383 c-37 -25 -31 -71 15 -121 42 -45 78 -54 106 -26 36 36 2
118 -61 148 -39 19 -33 19 -60 -1z"/>
<path d="M13865 6364 c-14 -15 -25 -31 -25 -36 0 -20 33 -57 61 -68 26 -11 34
-10 57 7 39 29 41 74 6 102 -36 28 -70 26 -99 -5z"/>
<path d="M5505 6330 c-40 -27 -65 -60 -65 -90 0 -60 62 -69 109 -15 36 41 39
72 11 103 -25 26 -19 26 -55 2z"/>
<path d="M5723 6310 c-61 -56 -53 -120 16 -120 39 0 66 20 90 67 9 18 7 26
-15 52 -32 38 -50 39 -91 1z"/>
<path d="M13656 6231 c-28 -31 -17 -71 29 -103 50 -34 65 -35 99 -3 35 32 33
51 -10 91 -41 40 -90 46 -118 15z"/>
<path d="M6669 6031 c-34 -35 -36 -53 -8 -92 17 -24 27 -29 64 -29 36 0 48 5
69 31 34 40 33 55 -5 90 -41 38 -81 38 -120 0z"/>
<path d="M6365 6015 c-61 -60 3 -144 89 -115 36 11 76 55 76 82 0 57 -118 81
-165 33z"/>
<path d="M12666 5937 c-40 -52 -32 -97 22 -126 28 -15 72 -7 107 20 56 45 11
139 -68 139 -29 0 -41 -6 -61 -33z"/>
<path d="M13006 5946 c-34 -28 -30 -50 15 -96 35 -34 64 -38 97 -10 31 26 32
73 2 105 -30 32 -75 32 -114 1z"/>
<path d="M6429 5820 c-52 -27 -109 -116 -109 -170 0 -159 205 -238 328 -126
68 61 72 178 9 248 -59 66 -156 86 -228 48z m168 -59 c23 -17 53 -78 53 -110
0 -74 -56 -121 -144 -121 -50 0 -60 4 -93 34 -35 31 -37 38 -37 90 0 50 3 60
31 87 49 49 137 58 190 20z"/>
<path d="M6812 5818 c-12 -13 -27 -38 -33 -56 -9 -27 -8 -37 8 -64 15 -26 26
-34 56 -36 45 -4 80 19 108 71 20 38 20 39 2 70 -17 28 -25 32 -69 35 -41 2
-53 -1 -72 -20z"/>
<path d="M12795 5749 c-31 -28 -35 -36 -35 -80 0 -60 29 -110 94 -164 41 -34
51 -37 112 -38 65 -2 67 -1 100 37 25 29 34 49 34 76 0 105 -105 200 -221 200
-40 0 -55 -5 -84 -31z m145 -29 c17 0 64 -38 87 -70 6 -8 14 -32 18 -52 6 -32
3 -40 -20 -63 -32 -28 -58 -31 -106 -11 -84 35 -151 165 -101 196 9 6 37 8 61
5 24 -3 52 -5 61 -5z"/>
<path d="M12507 5732 c-31 -34 -13 -90 39 -123 40 -24 75 -18 96 19 12 22 13
32 4 54 -26 60 -104 88 -139 50z"/>
<path d="M13223 5696 c-39 -41 -35 -87 11 -115 43 -27 58 -26 95 5 41 34 40
64 -4 103 -43 37 -72 39 -102 7z"/>
<path d="M7662 5537 c-13 -14 -22 -36 -22 -54 0 -25 7 -35 36 -52 29 -17 39
-19 57 -10 65 34 76 81 27 117 -38 28 -71 28 -98 -1z"/>
<path d="M6726 5490 c-44 -49 -48 -89 -11 -125 33 -33 58 -31 101 8 29 27 36
40 36 71 0 30 -6 44 -28 62 -40 33 -56 30 -98 -16z"/>
<path d="M11481 5506 c-34 -36 -23 -85 23 -110 31 -16 36 -17 64 -2 53 27 57
74 9 110 -42 32 -67 33 -96 2z"/>
<path d="M12614 5507 c-23 -20 -26 -28 -20 -59 11 -62 88 -108 137 -82 56 29
56 96 1 141 -36 29 -84 29 -118 0z"/>
<path d="M7397 5459 c-24 -25 -28 -35 -23 -62 12 -65 95 -98 144 -57 54 45 31
113 -48 136 -42 12 -44 12 -73 -17z"/>
<path d="M13121 5463 c-19 -16 -22 -25 -17 -50 15 -65 92 -98 136 -58 65 59
-50 164 -119 108z"/>
<path d="M6450 5397 c-51 -26 -64 -92 -24 -131 21 -22 93 -20 120 2 52 43 51
79 -2 121 -30 24 -58 26 -94 8z"/>
<path d="M11778 5384 c-52 -28 -60 -66 -23 -107 43 -46 125 -32 136 23 6 30
-11 66 -40 83 -35 20 -38 20 -73 1z"/>
<path d="M12915 5384 c-10 -8 -26 -14 -36 -14 -20 0 -29 -20 -29 -64 0 -48 40
-87 94 -93 38 -5 46 -2 70 23 31 34 32 52 6 97 -16 28 -41 47 -80 63 -3 1 -14
-4 -25 -12z"/>
<path d="M7624 5349 c-29 -7 -55 -25 -94 -64 l-54 -55 -1 -78 c0 -66 3 -81 25
-110 41 -55 85 -75 167 -76 66 0 75 2 110 30 87 70 111 184 54 260 -39 54 -71
80 -106 88 -16 4 -37 8 -45 10 -8 2 -33 0 -56 -5z m104 -58 c53 -27 86 -89 79
-148 -10 -88 -58 -126 -156 -120 -60 3 -66 6 -97 42 -65 74 -53 146 34 212 50
38 86 42 140 14z"/>
<path d="M11319 5277 c-44 -29 -51 -72 -17 -99 33 -25 68 -22 100 9 35 34 36
66 2 92 -34 26 -43 26 -85 -2z"/>
<path d="M7302 5250 c-58 -35 -65 -101 -15 -140 35 -27 72 -25 105 7 36 34 39
92 6 123 -12 11 -25 20 -29 20 -4 0 -13 2 -21 5 -7 3 -28 -4 -46 -15z"/>
<path d="M11580 5233 c-102 -35 -140 -80 -140 -163 0 -61 23 -105 73 -142 72
-53 143 -62 219 -28 54 24 68 36 96 81 54 89 11 200 -93 243 -36 15 -123 20
-155 9z m168 -72 c36 -25 58 -85 48 -127 -4 -15 -23 -43 -42 -60 -81 -77 -222
-43 -258 61 -13 39 -13 50 -1 79 24 57 68 76 166 72 39 -1 65 -9 87 -25z"/>
<path d="M8816 5189 c-14 -17 -26 -39 -26 -49 0 -75 85 -116 144 -69 37 29 36
81 -3 120 -40 40 -81 39 -115 -2z"/>
<path d="M8011 5185 c-51 -44 -45 -109 15 -141 l35 -19 31 34 c25 29 29 39 23
70 -5 32 -46 81 -67 81 -3 0 -20 -11 -37 -25z"/>
<path d="M10084 5180 c-32 -13 -64 -59 -64 -92 0 -19 10 -40 29 -59 55 -54
161 -29 176 42 17 78 -63 141 -141 109z"/>
<path d="M8521 5113 c-17 -21 -31 -46 -31 -55 0 -29 37 -58 73 -58 68 0 103
83 54 128 -34 32 -61 27 -96 -15z"/>
<path d="M9811 5083 c-17 -21 -31 -45 -31 -53 0 -8 14 -32 31 -53 39 -47 78
-50 120 -8 41 41 39 79 -6 119 -46 43 -76 41 -114 -5z"/>
<path d="M11990 5097 c-45 -16 -65 -55 -53 -105 17 -76 126 -91 166 -23 29 50
16 109 -30 130 -29 13 -38 13 -83 -2z"/>
<path d="M10343 5093 c-33 -6 -67 -66 -53 -93 29 -54 112 -64 145 -17 42 59
-12 124 -92 110z"/>
<path d="M9078 5063 c-15 -2 -35 -14 -43 -26 -47 -66 20 -136 99 -103 60 25
63 105 5 125 -18 6 -32 10 -33 10 -1 -1 -13 -4 -28 -6z"/>
<path d="M11255 5003 c-30 -34 -32 -71 -4 -107 42 -53 139 -24 139 42 0 31
-13 51 -50 76 -35 23 -55 20 -85 -11z"/>
<path d="M8685 4979 c-50 -36 -75 -84 -75 -143 0 -86 56 -136 150 -136 121 0
199 104 151 204 -43 89 -155 126 -226 75z m112 -39 c26 0 73 -56 73 -88 0 -46
-9 -61 -51 -82 -49 -25 -73 -25 -115 1 -63 39 -52 148 18 168 18 5 39 7 46 5
8 -2 20 -4 29 -4z"/>
<path d="M7375 4956 c-30 -22 -25 -79 10 -116 36 -37 82 -40 113 -7 35 37 37
69 7 105 -22 27 -34 32 -69 32 -23 0 -51 -6 -61 -14z"/>
<path d="M7865 4939 c-46 -40 -47 -77 -4 -113 17 -14 42 -26 56 -26 30 0 83
50 83 80 0 31 -30 78 -54 84 -36 10 -44 7 -81 -25z"/>
<path d="M10489 4938 c-8 -7 -24 -27 -34 -45 -18 -31 -18 -33 1 -69 29 -55 99
-72 145 -35 33 26 31 89 -3 125 -28 31 -85 43 -109 24z"/>
<path d="M10042 4909 c-62 -46 -87 -116 -59 -166 27 -48 64 -66 137 -65 56 0
74 5 109 27 72 48 77 153 10 209 -26 22 -41 26 -93 26 -54 0 -68 -4 -104 -31z
m172 -38 c22 -23 27 -36 24 -67 -3 -33 -9 -42 -43 -61 -55 -31 -114 -30 -149
2 -28 26 -31 40 -16 80 29 76 131 102 184 46z"/>
<path d="M8401 4871 c-35 -33 -35 -34 -20 -64 24 -47 52 -67 90 -67 53 0 83
28 82 76 -2 78 -92 111 -152 55z"/>
<path d="M9755 4880 c-29 -32 -25 -88 9 -116 36 -32 61 -30 97 5 33 33 37 69
13 106 -22 33 -91 36 -119 5z"/>
<path d="M7639 4843 c-59 -9 -58 -108 1 -138 39 -20 44 -19 85 16 43 38 44 61
6 100 -29 28 -38 30 -92 22z"/>
<path d="M11743 4818 c-47 -53 -33 -138 30 -176 46 -29 60 -28 102 9 30 26 35
37 35 73 0 33 -6 48 -27 68 -53 50 -108 60 -140 26z"/>
<path d="M9028 4779 c-34 -17 -38 -24 -38 -58 0 -31 6 -44 31 -65 43 -37 70
-41 115 -18 49 25 79 73 65 101 -32 60 -105 77 -173 40z"/>
<path d="M11462 4770 c-32 -30 -31 -102 2 -135 51 -51 117 -40 143 23 12 28
11 36 -2 63 -18 33 -69 69 -101 69 -11 0 -30 -9 -42 -20z"/>
<path d="M10442 4675 c-49 -41 -42 -87 18 -128 34 -24 63 -21 100 9 57 49 28
123 -56 140 -24 4 -37 0 -62 -21z"/>
<path d="M9879 4647 c-73 -49 -37 -157 52 -157 30 0 46 6 64 26 45 49 28 107
-42 143 -30 15 -35 14 -74 -12z"/>
<path d="M8521 4613 c-38 -46 -39 -72 -5 -108 22 -24 30 -27 72 -22 121 13
125 167 5 167 -36 0 -46 -5 -72 -37z"/>
<path d="M10184 4591 c-42 -26 -59 -73 -39 -112 19 -35 43 -49 87 -49 96 0
120 122 32 163 -43 21 -42 21 -80 -2z"/>
<path d="M8787 4589 c-9 -5 -24 -24 -33 -41 -15 -28 -15 -34 2 -70 29 -64 96
-78 145 -29 16 16 29 37 29 47 0 33 -43 84 -80 94 -42 12 -41 12 -63 -1z"/>
<path d="M13175 8800 c-8 -12 2 -30 18 -30 22 0 261 -118 322 -159 22 -15 47
-30 55 -34 8 -4 27 -15 42 -25 15 -9 86 -53 158 -97 208 -126 237 -146 325
-220 33 -27 74 -59 90 -71 94 -65 141 -99 151 -108 6 -6 35 -31 64 -56 495
-414 630 -552 830 -849 48 -71 82 -102 95 -89 3 2 -4 20 -15 39 -10 18 -24 45
-32 59 -7 14 -15 27 -18 30 -3 3 -17 23 -30 45 -22 36 -36 57 -112 160 -61 82
-354 363 -532 510 -150 123 -135 111 -272 217 -60 46 -149 117 -199 157 -178
143 -609 408 -770 473 -138 56 -161 62 -170 48z"/>
<path d="M5000 8167 c-214 -154 -616 -610 -765 -869 -52 -89 -106 -195 -135
-263 -12 -27 -28 -64 -36 -82 -8 -17 -14 -38 -14 -46 0 -9 -4 -19 -10 -22 -12
-7 -14 -55 -2 -55 4 1 24 38 46 83 21 45 42 89 47 97 5 8 20 38 34 65 14 28
30 57 35 65 5 8 32 56 61 105 97 165 220 330 390 524 78 90 311 321 355 353
40 29 114 96 114 103 0 18 -46 -5 -120 -58z"/>
<path d="M15400 6864 c0 -8 5 -25 12 -37 20 -35 51 -124 97 -277 13 -41 29
-93 36 -115 62 -197 92 -314 105 -410 5 -38 14 -86 20 -105 15 -53 12 -268 -5
-357 -15 -74 -42 -168 -99 -346 -23 -70 -82 -207 -122 -279 -16 -29 -19 -78
-5 -78 16 0 151 249 151 280 0 5 6 24 14 42 12 29 34 99 91 288 9 30 22 109
28 175 9 99 8 143 -6 255 -22 176 -51 325 -82 410 -7 19 -21 62 -30 95 -10 33
-21 70 -26 81 -4 12 -26 77 -49 145 -47 141 -98 249 -117 249 -7 0 -13 -7 -13
-16z"/>
<path d="M3877 6083 c-12 -19 -17 -242 -8 -303 14 -88 36 -195 50 -250 38
-140 44 -159 88 -275 16 -41 144 -303 166 -340 7 -11 24 -39 40 -63 15 -24 27
-45 27 -47 0 -7 91 -134 160 -225 70 -91 196 -214 210 -205 13 8 14 6 -80 120
-210 253 -304 405 -461 740 -13 28 -70 186 -75 210 -6 24 -27 100 -48 174 -9
29 -16 63 -16 75 0 11 -7 44 -16 71 -10 32 -16 97 -18 182 -2 123 -6 156 -19
136z"/>
<path d="M15194 4462 c-18 -20 -51 -62 -75 -92 -74 -94 -89 -110 -259 -280
-132 -133 -208 -198 -385 -331 -229 -171 -323 -237 -413 -285 -131 -71 -202
-108 -267 -141 -38 -19 -77 -39 -85 -44 -8 -5 -22 -12 -30 -15 -14 -5 -31 -12
-113 -47 -17 -8 -52 -23 -77 -33 -25 -9 -64 -26 -87 -36 -23 -10 -46 -18 -51
-18 -5 0 -23 -7 -38 -15 -16 -8 -39 -15 -51 -15 -12 0 -37 -6 -55 -14 -37 -15
-103 -36 -198 -61 -124 -33 -205 -56 -225 -65 -22 -10 -135 -40 -177 -47 -16
-3 -28 -10 -28 -15 0 -17 140 5 295 47 33 9 85 23 115 30 68 17 149 40 217 60
29 9 74 22 100 30 27 7 73 23 103 35 30 12 67 25 81 30 14 4 34 12 45 18 10 6
42 21 69 32 28 12 66 28 85 37 40 17 204 99 270 135 25 14 77 42 115 63 39 20
77 44 86 51 8 8 18 14 21 14 9 0 109 68 138 94 14 12 113 89 220 170 268 204
296 229 450 396 52 57 102 111 111 119 55 55 149 200 142 219 -7 19 -16 15
-49 -26z"/>
<path d="M12666 2096 c-42 -39 -44 -55 -13 -92 20 -23 31 -27 72 -26 40 0 52
5 71 29 30 36 30 74 1 101 -36 34 -88 30 -131 -12z"/>
<path d="M12990 2098 c-33 -18 -55 -59 -47 -89 7 -26 56 -59 89 -59 34 0 98
58 98 88 -1 50 -88 87 -140 60z"/>
<path d="M6438 1919 c-45 -33 -39 -66 31 -182 28 -44 100 -97 134 -97 13 0 34
11 47 25 20 21 22 31 17 74 -9 75 -70 159 -136 187 -44 19 -61 17 -93 -7z m94
-47 c34 -22 59 -56 83 -111 19 -42 19 -44 0 -57 -10 -8 -22 -14 -26 -14 -31 0
-153 159 -142 186 7 19 53 17 85 -4z"/>
<path d="M12510 1913 c-30 -11 -60 -47 -60 -72 0 -15 11 -39 25 -54 49 -52
150 -27 156 38 4 41 -2 54 -35 74 -33 21 -57 25 -86 14z"/>
<path d="M12814 1890 c-86 -38 -147 -136 -123 -198 22 -57 79 -79 176 -68 93
11 150 50 183 124 19 43 19 43 -2 84 -12 22 -35 49 -52 59 -40 24 -127 24
-182 -1z m170 -51 c35 -27 37 -86 4 -115 -51 -45 -82 -57 -144 -58 -53 -1 -66
3 -88 23 -14 14 -26 32 -26 40 1 27 53 93 90 112 49 26 129 25 164 -2z"/>
<path d="M11884 1603 c-40 -5 -78 -44 -70 -71 4 -10 24 -27 45 -36 37 -17 39
-17 76 2 20 12 43 29 51 40 12 17 11 23 -7 46 -20 26 -28 27 -95 19z"/>
<path d="M7756 1510 c-16 -5 -42 -21 -57 -36 -23 -22 -29 -37 -29 -70 0 -36 7
-49 45 -92 27 -30 57 -53 75 -57 16 -4 32 -11 35 -16 11 -17 124 -10 164 11
53 26 91 74 91 113 0 42 -43 101 -92 127 -46 24 -183 36 -232 20z m174 -38
c60 -12 82 -35 87 -89 4 -42 2 -51 -22 -73 -24 -22 -35 -25 -105 -25 -72 0
-81 2 -116 31 -21 16 -42 43 -47 58 -11 34 6 80 36 94 25 12 115 14 167 4z"/>
<path d="M11574 1492 c-12 -9 -31 -24 -43 -32 -28 -19 -61 -72 -61 -97 0 -29
55 -100 92 -119 23 -12 56 -17 109 -17 64 1 83 5 117 27 107 67 110 152 8 230
-31 23 -43 26 -118 26 -63 -1 -88 -5 -104 -18z m181 -33 c51 -26 65 -45 65
-84 0 -44 -34 -79 -97 -101 -51 -18 -54 -18 -108 1 -64 21 -85 45 -85 93 0 31
12 49 63 88 35 29 111 30 162 3z"/>
<path d="M9083 1450 c-18 -11 -33 -28 -33 -38 0 -23 28 -62 44 -62 8 0 27 -7
42 -15 39 -20 60 -19 100 6 54 33 38 88 -31 105 -14 3 -28 10 -31 15 -9 16
-58 10 -91 -11z"/>
<path d="M10410 1443 c-26 -10 -60 -46 -60 -64 0 -26 48 -59 87 -59 38 0 93
35 93 60 0 38 -79 79 -120 63z"/>
<path d="M11980 1442 c-61 -29 -76 -63 -43 -102 12 -14 30 -20 60 -20 95 0
115 104 23 124 -14 3 -32 2 -40 -2z"/>
<path d="M7443 1393 c-30 -21 -29 -58 2 -99 57 -75 179 -41 160 44 -12 58
-111 91 -162 55z"/>
<path d="M9368 1389 c-33 -24 -35 -45 -8 -77 36 -44 117 -41 147 5 17 26 17
26 -22 59 -44 39 -78 43 -117 13z"/>
<path d="M8157 1332 c-24 -26 -21 -44 11 -74 34 -32 55 -39 91 -32 56 11 63
86 11 114 -31 17 -95 12 -113 -8z"/>
<path d="M8716 1268 c-22 -31 -20 -61 7 -85 39 -36 63 -44 94 -32 68 26 80 64
34 110 -39 38 -111 42 -135 7z"/>
<path d="M9071 1260 c-30 -28 -33 -35 -28 -71 6 -47 18 -63 72 -98 34 -22 51
-26 118 -26 77 0 79 1 109 34 23 26 28 39 23 60 -16 63 -103 119 -200 127 -57
5 -62 4 -94 -26z m159 -17 c46 -30 80 -67 80 -85 0 -10 -10 -28 -21 -39 -54
-54 -234 26 -200 89 12 22 66 51 96 52 11 0 32 -7 45 -17z"/>
<path d="M10478 1272 c-59 -28 -78 -51 -78 -92 0 -53 51 -103 126 -125 54 -15
60 -15 103 1 57 21 81 45 88 89 8 50 -39 106 -108 128 -64 21 -84 21 -131 -1z
m131 -42 c55 -28 68 -73 31 -110 -15 -15 -33 -20 -73 -20 -44 0 -58 5 -85 29
-17 17 -32 36 -32 44 0 23 27 51 61 63 47 17 55 17 98 -6z"/>
<path d="M11344 1207 c-24 -21 -27 -29 -18 -44 13 -22 72 -63 90 -63 20 0 74
50 74 69 0 27 -34 52 -77 58 -32 4 -45 1 -69 -20z"/>
<path d="M11821 1204 c-17 -14 -31 -32 -31 -39 0 -19 58 -65 82 -65 33 0 87
39 95 68 15 59 -88 85 -146 36z"/>
<path d="M10796 1179 c-15 -12 -26 -30 -26 -44 0 -57 106 -88 147 -42 31 34
35 45 24 66 -11 20 -60 41 -96 41 -12 0 -34 -9 -49 -21z"/>
<path d="M7732 1172 c-65 -32 -63 -132 4 -171 43 -25 58 -26 94 -4 57 34 66
100 19 156 -34 42 -63 46 -117 19z"/>
<path d="M8017 1129 c-47 -39 -49 -74 -6 -124 47 -54 113 -47 139 14 15 38 8
70 -26 110 -33 39 -60 39 -107 0z"/>
<path d="M10179 1139 c-14 -5 -32 -20 -39 -34 -11 -20 -10 -27 10 -55 26 -36
56 -50 108 -50 52 0 82 23 82 64 0 39 -26 66 -63 66 -14 0 -29 5 -32 10 -7 12
-31 12 -66 -1z"/>
<path d="M11593 1122 c-32 -27 -30 -66 6 -91 55 -40 124 -13 124 48 0 41 -9
50 -63 57 -36 5 -49 2 -67 -14z"/>
<path d="M8833 1078 c-64 -21 -63 -99 1 -142 36 -23 66 -20 98 11 32 30 35 58
12 91 -13 19 -66 54 -76 51 -2 -1 -17 -6 -35 -11z"/>
<path d="M9387 1039 c-9 -5 -23 -22 -31 -38 -13 -24 -12 -32 4 -68 20 -44 34
-53 89 -53 48 0 73 26 73 75 0 40 -13 60 -53 81 -33 16 -57 17 -82 3z"/>
<path d="M10682 985 c-40 -34 -40 -56 1 -100 39 -44 94 -56 132 -31 56 37 12
140 -66 152 -28 5 -41 1 -67 -21z"/>
<path d="M9108 984 c-51 -27 -61 -75 -28 -129 27 -44 71 -59 115 -40 37 15 49
40 43 96 -2 26 -12 39 -43 61 -46 32 -51 32 -87 12z"/>
<path d="M10469 947 c-29 -19 -34 -29 -37 -69 -3 -40 0 -48 28 -72 39 -32 71
-33 106 -3 22 20 26 31 26 72 -1 41 -6 53 -29 72 -35 28 -52 29 -94 0z"/>
<path d="M15882 1472 l-31 -28 2 -274 2 -275 70 -3 c56 -2 72 0 82 14 8 11 12
71 13 198 0 176 -1 181 -22 198 l-23 17 23 21 c32 30 30 120 -4 120 -8 0 -14
6 -14 14 0 15 -21 26 -49 26 -10 0 -31 -13 -49 -28z"/>
<path d="M16462 1462 c-9 -7 -12 -71 -10 -288 l3 -279 54 -3 c82 -5 101 3 101
38 0 42 28 40 32 -2 l3 -33 78 -3 77 -3 0 51 c0 38 -4 50 -15 50 -8 0 -15 7
-15 15 0 8 -7 15 -15 15 -8 0 -15 9 -15 21 0 11 -16 36 -36 54 l-36 35 23 25
c13 13 30 25 37 25 6 0 12 5 12 10 0 13 37 50 51 50 6 0 9 19 7 48 l-3 47 -72
3 c-64 3 -72 1 -78 -18 -3 -11 -13 -20 -21 -20 -11 0 -14 17 -14 79 l0 79 -31
6 c-43 8 -101 7 -117 -2z"/>
<path d="M16843 1463 c-7 -2 -13 -11 -13 -19 0 -8 -7 -17 -15 -20 -8 -4 -15
-14 -15 -24 0 -10 7 -20 15 -24 13 -5 15 -41 15 -240 0 -251 -1 -246 51 -246
11 0 19 -7 19 -16 0 -12 9 -14 43 -12 41 3 42 4 47 42 4 32 7 37 17 25 6 -8
13 -25 15 -39 3 -22 8 -25 51 -28 55 -4 77 9 77 44 0 15 6 24 15 24 8 0 15 9
15 20 0 11 5 20 10 20 6 0 10 -4 10 -9 0 -19 62 -71 85 -71 16 0 25 -6 25 -15
0 -12 13 -15 55 -15 42 0 55 3 55 15 0 10 10 15 27 15 25 0 51 22 97 84 22 31
36 25 36 -15 0 -20 5 -29 16 -29 9 0 18 -9 21 -20 4 -15 14 -20 39 -20 24 0
34 -5 34 -15 0 -11 12 -15 49 -15 34 0 51 4 55 15 3 9 18 15 35 15 20 0 30 6
34 20 3 11 12 20 21 20 9 0 16 7 16 15 0 9 7 18 15 21 12 5 15 30 15 140 0
112 -2 134 -15 134 -10 0 -15 10 -15 29 0 29 -14 41 -51 41 -10 0 -19 7 -19
15 0 12 -16 15 -84 15 -65 0 -85 -3 -90 -15 -3 -8 -12 -15 -21 -15 -8 0 -15
-7 -15 -16 0 -9 -9 -18 -20 -21 -11 -3 -20 -11 -20 -19 0 -21 -20 -27 -27 -8
-10 26 -55 63 -76 64 -10 0 -20 7 -23 15 -5 12 -25 15 -90 15 -68 0 -84 -3
-84 -15 0 -8 -5 -15 -12 -15 -12 0 -68 -59 -68 -72 0 -4 -7 -8 -15 -8 -12 0
-15 -19 -15 -112 l0 -113 -25 28 c-18 19 -36 27 -60 27 -43 0 -65 -9 -65 -25
0 -16 -19 -23 -42 -17 -16 4 -18 23 -18 222 0 217 0 218 -22 224 -27 7 -78 7
-95 -1z m707 -347 l0 -103 -25 5 c-14 2 -30 13 -36 23 -13 26 -63 25 -88 -2
-22 -24 -66 -23 -66 2 0 9 -8 24 -18 33 -22 22 -21 32 2 53 11 9 18 20 15 25
-3 5 6 21 20 35 l27 26 20 -21 c30 -33 113 -27 122 9 3 10 10 19 16 19 7 0 11
-35 11 -104z m220 70 c0 -13 7 -26 15 -30 10 -4 15 -20 15 -51 0 -52 -25 -85
-65 -85 -20 0 -25 5 -25 24 0 13 -7 26 -15 30 -8 3 -15 15 -15 26 0 11 7 23
15 26 8 4 15 15 15 27 0 24 27 57 47 57 7 0 13 -11 13 -24z"/>
<path d="M15107 1424 c-4 -4 -7 -24 -7 -44 0 -28 -7 -42 -30 -60 -42 -35 -42
-88 0 -118 l30 -23 0 -124 c0 -100 3 -125 14 -125 7 0 16 -9 19 -20 4 -15 14
-20 36 -20 19 0 34 -6 37 -15 10 -25 64 -18 90 11 34 36 32 83 -6 114 -27 23
-29 30 -30 97 0 62 3 75 24 97 30 33 36 33 36 -3 0 -16 6 -31 15 -35 10 -4 15
-20 15 -51 0 -31 4 -44 13 -43 8 2 13 -14 15 -49 2 -37 7 -53 17 -53 8 0 15
-13 17 -32 3 -33 3 -33 66 -36 45 -2 62 1 63 10 3 42 7 60 17 70 9 9 12 2 12
-30 0 -49 13 -55 101 -50 l54 3 3 48 c2 31 8 47 16 47 16 0 29 44 21 69 -3 11
3 25 15 36 13 12 20 31 20 57 0 28 4 38 15 38 13 0 15 13 13 73 l-3 72 -60 0
c-58 0 -59 -1 -65 -30 -7 -31 -37 -75 -52 -75 -5 0 -8 18 -8 39 0 66 -5 71
-71 71 -46 0 -59 -3 -59 -15 0 -9 -7 -18 -15 -21 -9 -4 -15 -19 -15 -35 0 -19
-5 -29 -14 -29 -11 0 -16 14 -18 48 l-3 47 -60 0 -60 0 -3 -38 c-4 -45 -25
-46 -30 -2 -2 16 -10 34 -17 40 -8 5 -15 28 -17 50 l-3 40 -70 3 c-39 1 -74 0
-78 -4z"/>
<path d="M16045 1318 c-3 -13 -4 -113 -3 -223 l3 -200 54 -3 c104 -6 101 -11
101 139 0 130 8 169 35 169 21 0 25 -27 28 -175 l2 -130 78 -3 77 -3 0 176 c0
149 -2 175 -15 175 -10 0 -15 10 -15 29 0 21 -6 32 -20 36 -11 3 -20 13 -20
21 0 11 -15 14 -66 14 -56 0 -69 -3 -85 -22 l-19 -23 -6 23 c-6 20 -13 22 -65
22 -52 0 -59 -2 -64 -22z"/>
<path d="M17964 1327 c-2 -7 -3 -107 -2 -222 l3 -210 54 -3 c106 -6 101 -14
101 163 0 130 2 155 15 155 12 0 15 -27 17 -157 l3 -158 75 0 75 0 5 149 c4
107 9 151 18 154 8 2 12 -8 12 -31 0 -22 6 -37 15 -41 11 -4 15 -22 15 -71 0
-49 -4 -67 -15 -71 -8 -4 -15 -14 -15 -24 0 -10 7 -20 15 -24 8 -3 15 -15 15
-26 0 -19 5 -21 63 -18 l62 3 3 188 c1 116 -1 187 -7 187 -14 0 -61 45 -61 59
0 7 -22 11 -59 11 -50 0 -59 -3 -64 -20 -3 -14 -14 -20 -32 -20 -18 0 -29 6
-32 20 -5 17 -14 20 -63 20 -51 0 -58 -3 -64 -22 l-6 -23 -19 23 c-15 17 -30
22 -70 22 -33 0 -53 -5 -57 -13z"/>
</g>
</svg>
