<?xml version="1.0" standalone="no"?>
<!DOCTYPE svg PUBLIC "-//W3C//DTD SVG 20010904//EN"
 "http://www.w3.org/TR/2001/REC-SVG-20010904/DTD/svg10.dtd">
<svg version="1.0" xmlns="http://www.w3.org/2000/svg"
 width="980.000000pt" height="980.000000pt" viewBox="0 0 980.000000 980.000000"
 preserveAspectRatio="xMidYMid meet">
<metadata>
Created by potrace 1.16, written by Peter Selinger 2001-2019
</metadata>
<g transform="translate(0.000000,980.000000) scale(0.100000,-0.100000)"
fill="#000000" stroke="none">
<path d="M3540 6772 c0 -15 54 -59 120 -99 138 -84 268 -172 330 -223 93 -77
170 -152 164 -161 -2 -5 8 -15 24 -23 16 -8 32 -22 35 -30 4 -10 13 -13 23 -9
13 5 15 3 9 -7 -6 -10 -4 -12 9 -7 14 5 15 3 6 -13 -8 -15 -6 -21 10 -30 16
-9 19 -8 13 6 -4 12 -3 15 5 10 7 -4 12 -14 12 -23 0 -11 6 -14 25 -9 18 5 27
2 31 -9 4 -8 15 -15 25 -15 11 0 19 -7 19 -16 0 -20 39 -53 63 -54 20 0 23
-16 5 -23 -7 -3 -1 -6 15 -6 21 -1 27 -6 28 -23 0 -13 3 -17 6 -10 4 10 8 10
19 1 10 -8 11 -15 4 -24 -8 -10 -8 -15 1 -21 8 -4 9 -3 5 4 -12 20 8 13 27 -8
22 -26 21 -31 0 -24 -15 5 -15 4 -3 -4 8 -6 17 -9 22 -6 9 6 83 -74 83 -90 0
-6 -7 -10 -15 -8 -12 3 -13 1 -2 -10 11 -11 14 -10 21 1 7 11 12 10 28 -5 34
-32 63 -54 63 -48 0 4 7 1 15 -6 8 -7 12 -16 9 -21 -3 -5 -1 -9 3 -9 5 0 9 -9
10 -20 3 -33 -28 -24 -69 21 -33 35 -44 29 -15 -8 5 -7 5 -13 1 -13 -5 0 -15
9 -22 20 -7 12 -17 18 -23 15 -5 -4 -8 -3 -7 2 5 17 -111 169 -194 256 -21 22
-38 43 -38 48 0 5 -3 9 -8 9 -4 0 -25 18 -48 39 -22 22 -53 43 -70 47 -16 3
-49 18 -74 32 -25 15 -76 43 -115 63 -38 20 -69 40 -67 44 2 4 -5 13 -15 19
-67 39 -92 59 -88 66 3 5 0 12 -6 16 -8 4 -9 3 -5 -4 16 -26 -12 -8 -103 66
-53 43 -108 87 -123 96 -15 10 -25 22 -22 27 3 5 -3 6 -12 2 -12 -4 -15 -3
-10 5 9 15 -142 115 -161 107 -8 -2 -36 6 -63 20 -57 29 -83 32 -78 9 2 -9 59
-50 128 -91 69 -42 145 -92 170 -112 25 -20 74 -58 110 -84 75 -53 137 -107
124 -107 -5 0 6 -10 24 -21 17 -12 32 -25 32 -31 0 -5 4 -7 8 -4 4 2 14 1 22
-5 10 -6 11 -9 3 -9 -7 0 -13 -4 -13 -10 0 -5 8 -10 19 -10 10 0 47 -26 82
-58 35 -32 75 -66 89 -76 l25 -18 -24 7 c-16 5 -21 4 -17 -4 13 -21 -7 -11
-50 24 -24 20 -58 41 -76 47 -18 6 -48 24 -66 40 -32 27 -44 32 -69 29 -7 -1
-13 6 -13 15 0 11 -6 15 -20 11 -11 -3 -18 -2 -15 2 2 5 -7 13 -20 19 -14 7
-25 16 -25 22 0 5 -7 10 -15 10 -7 0 -18 6 -22 13 -4 8 -22 22 -40 32 -18 10
-30 22 -28 26 3 3 -41 40 -98 82 -56 41 -147 112 -202 156 -67 55 -108 81
-125 81 -30 -1 -43 10 137 -113 109 -75 256 -190 183 -143 -123 78 -277 176
-330 211 -79 52 -105 65 -122 65 -19 -1 29 -38 84 -66 40 -20 261 -159 369
-230 57 -39 293 -229 309 -250 8 -11 2 -9 -15 6 -33 28 -97 60 -121 60 -34 0
-275 143 -403 240 -157 118 -222 162 -229 155 -4 -4 4 -15 18 -24 13 -9 70
-50 125 -92 56 -41 131 -93 166 -114 35 -21 87 -55 114 -75 28 -20 73 -50 100
-65 28 -16 55 -34 62 -40 6 -5 30 -21 52 -34 22 -14 39 -26 37 -28 -3 -3 -112
50 -131 65 -5 4 -23 13 -40 20 l-30 12 30 -25 c39 -32 32 -32 -31 3 -79 43
-189 118 -323 220 -120 92 -258 178 -268 169 -5 -6 -2 -8 112 -76 39 -23 111
-73 160 -112 91 -72 275 -198 328 -225 16 -9 27 -18 24 -21 -3 -3 -36 11 -74
30 -135 70 -218 108 -193 88 14 -12 34 -24 45 -27 11 -4 45 -22 75 -42 141
-90 160 -103 160 -107 0 -12 -23 -1 -94 45 -78 51 -156 94 -156 86 0 -3 27
-21 60 -42 33 -20 59 -39 56 -41 -11 -11 -295 151 -381 217 -33 26 -85 63
-115 83 -79 53 -94 66 -87 73 4 4 15 1 24 -7 17 -13 17 -13 3 6 -8 11 -15 22
-17 24 -1 2 -9 -4 -18 -12 -16 -17 -20 -37 -7 -37 4 0 50 -32 102 -71 52 -39
128 -93 167 -120 74 -50 84 -56 281 -161 61 -33 110 -63 108 -66 -2 -4 31 -27
75 -51 43 -25 77 -46 75 -49 -5 -5 -36 11 -246 121 -93 49 -111 47 -27 -3 121
-71 221 -139 215 -145 -2 -3 -22 1 -44 7 -21 6 -41 12 -44 13 -34 7 -51 19
-46 31 3 8 1 14 -4 14 -6 0 -10 -4 -10 -9 0 -5 -11 -4 -25 2 -14 7 -25 16 -25
20 0 5 5 5 12 1 7 -4 8 -3 4 4 -10 16 -33 15 -39 0 -3 -7 -6 -3 -6 10 -1 22
-21 32 -21 10 0 -7 -6 -4 -12 5 -14 18 -143 73 -133 56 10 -15 -2 -11 -73 25
-37 19 -82 49 -100 66 -18 18 -36 30 -38 27 -16 -15 90 -93 209 -153 73 -37
141 -73 152 -81 19 -14 19 -15 -5 -8 -14 4 -77 34 -141 66 -64 33 -123 59
-131 59 -7 0 -22 6 -33 13 -24 17 -55 28 -55 21 0 -3 43 -25 95 -49 52 -25 95
-49 95 -54 0 -5 35 -27 78 -49 43 -21 76 -44 74 -50 -2 -7 4 -12 13 -12 19 0
144 -48 163 -63 26 -20 2 -19 -32 3 -20 12 -36 18 -36 13 0 -5 16 -17 35 -27
19 -11 33 -22 30 -25 -3 -3 -52 18 -108 46 -56 28 -134 61 -174 73 -40 13
-136 56 -215 97 -79 41 -165 84 -193 96 -27 12 -95 44 -150 72 -118 61 -135
67 -135 55 0 -6 6 -10 13 -10 7 0 59 -27 117 -61 58 -33 131 -74 164 -91 32
-16 56 -32 53 -34 -3 -3 -15 0 -27 6 -12 6 -24 10 -26 8 -2 -3 12 -12 32 -21
19 -10 33 -13 29 -7 -8 13 4 13 44 -1 25 -9 30 -14 19 -21 -10 -7 -8 -8 5 -4
18 6 126 -42 157 -70 14 -11 178 -88 234 -108 10 -3 17 -9 14 -11 -3 -3 -38 9
-79 26 -41 17 -90 36 -109 41 -19 6 -79 30 -132 54 -53 24 -112 46 -130 49
-41 8 -224 97 -338 165 -103 61 -190 89 -190 60 0 -5 5 -10 12 -10 6 0 78 -33
158 -74 81 -41 191 -93 246 -116 125 -53 197 -90 191 -96 -3 -3 -19 2 -37 11
-17 9 -92 41 -166 71 -74 30 -145 61 -157 68 -34 23 -189 87 -195 81 -6 -5
225 -116 345 -165 46 -19 80 -36 77 -39 -2 -3 10 -13 28 -23 22 -11 27 -17 15
-18 -11 0 -15 -4 -11 -12 4 -7 3 -8 -5 -4 -6 4 -9 11 -7 15 3 4 -9 7 -27 7
-18 0 -43 3 -56 8 -16 6 -21 5 -17 -3 10 -15 -5 -14 -29 3 -24 16 -148 67
-152 62 -2 -2 15 -15 39 -29 24 -14 52 -34 63 -44 35 -31 111 -67 125 -58 8 5
11 4 7 -2 -4 -6 0 -14 9 -17 8 -3 12 -2 9 4 -10 16 10 11 36 -8 31 -24 88 -44
103 -35 8 4 8 3 0 -6 -8 -8 -18 -9 -38 -2 -14 6 -64 20 -109 32 -45 11 -139
47 -209 80 -69 32 -129 59 -133 59 -11 0 -66 42 -62 47 3 2 37 -12 76 -31 88
-45 107 -47 26 -3 -33 18 -78 43 -100 56 -35 22 -38 22 -22 5 9 -12 14 -24 10
-27 -3 -4 1 -15 11 -25 9 -11 15 -29 14 -42 -3 -26 -8 -23 142 -93 125 -59
184 -80 206 -75 11 2 -9 13 -51 27 -101 34 -285 128 -285 146 0 17 4 18 28 6
90 -49 266 -126 345 -151 65 -21 97 -36 97 -46 0 -8 4 -13 9 -10 13 8 71 -14
71 -27 0 -7 4 -7 12 1 20 20 48 14 79 -17 16 -16 29 -25 29 -20 0 5 11 9 24 9
17 0 27 -7 32 -22 6 -21 7 -21 20 -3 9 12 14 14 14 5 0 -7 3 -11 6 -7 4 3 13
0 20 -8 8 -7 22 -11 32 -8 11 2 26 -2 34 -11 9 -8 29 -18 44 -22 16 -4 36 -12
44 -19 8 -7 22 -15 30 -18 11 -3 8 -7 -10 -15 -27 -11 -23 -14 35 -27 45 -11
225 -13 219 -3 -3 4 -12 8 -21 8 -9 0 -14 3 -10 6 3 3 21 1 39 -5 29 -9 71
-18 118 -26 8 -1 23 -6 33 -10 10 -4 21 -5 24 -2 3 4 13 2 22 -3 25 -13 45 3
36 29 -4 15 -12 20 -22 17 -9 -4 -30 2 -48 12 -17 11 -56 27 -86 37 -30 10
-48 20 -41 23 6 2 10 8 6 13 -7 12 7 11 26 -1 13 -9 13 -10 0 -11 -10 0 -8 -3
5 -9 28 -12 37 -12 30 0 -3 6 -1 10 4 10 6 0 11 -7 11 -16 0 -10 5 -14 15 -10
9 3 30 -1 48 -9 40 -18 162 -55 179 -55 7 0 56 -13 108 -30 101 -32 120 -36
104 -21 -5 5 -47 21 -94 35 -47 15 -110 37 -140 50 -30 14 -72 28 -92 31 -21
4 -38 11 -38 15 0 4 -10 10 -22 14 -19 5 -21 8 -8 16 13 8 12 10 -4 10 -12 0
-16 5 -12 15 3 8 -3 19 -12 25 -23 15 -9 9 66 -26 35 -16 60 -34 58 -40 -3 -7
6 -14 18 -16 19 -4 22 -1 18 14 -2 11 -15 23 -27 28 -26 10 -123 70 -114 70 4
0 41 -16 83 -35 43 -19 83 -35 90 -35 8 0 16 -7 20 -15 3 -8 14 -15 24 -15 10
0 29 -9 42 -20 21 -19 46 -25 78 -21 22 3 105 -39 124 -62 22 -27 22 -33 2
-41 -12 -4 -14 -1 -9 14 7 22 -2 25 -25 10 -13 -9 -13 -10 0 -10 24 -1 -42
-50 -67 -50 -12 0 -24 8 -26 18 -4 16 -5 16 -6 0 0 -10 -5 -19 -11 -19 -24 -3
-36 -2 -54 6 -13 6 -23 3 -31 -8 -7 -10 -22 -17 -34 -17 -12 0 -19 -4 -16 -10
7 -12 9 -11 -115 -13 -69 0 -98 -5 -106 -15 -8 -12 -12 -11 -23 2 -17 20 -28
20 -47 2 -12 -13 -11 -15 8 -18 21 -4 21 -5 -6 -13 -19 -5 -31 -4 -36 4 -5 9
-9 8 -14 -4 -5 -14 -14 -16 -41 -12 -20 3 -33 3 -31 -2 3 -4 -7 -8 -22 -9 -59
-6 -67 -7 -74 -17 -5 -6 -12 -4 -18 5 -7 11 -10 12 -10 2 0 -8 -7 -11 -17 -8
-10 3 -25 1 -33 -5 -12 -8 -10 -10 10 -5 24 5 24 4 5 -10 -18 -13 -17 -14 15
-8 52 10 206 42 280 59 36 8 75 15 88 15 12 0 22 4 22 9 0 4 34 8 76 8 64 0
74 -2 59 -13 -25 -19 -198 -69 -344 -100 -35 -7 -69 -18 -76 -24 -7 -6 -44
-14 -82 -19 -39 -5 -80 -14 -91 -20 -12 -6 -47 -13 -78 -16 -31 -2 -64 -11
-73 -19 -12 -11 -21 -12 -35 -4 -13 7 -39 8 -85 0 -85 -13 -179 -17 -311 -12
-58 1 -127 3 -155 4 -27 1 -56 6 -63 13 -10 10 -17 8 -32 -7 -11 -11 -20 -24
-20 -30 0 -5 -4 -10 -9 -10 -5 0 -11 -9 -14 -21 -6 -23 -27 -17 -27 7 0 8 -5
14 -11 14 -19 0 16 -45 38 -48 14 -2 28 -22 46 -63 26 -61 16 -79 -13 -23 -8
16 -18 30 -22 32 -4 2 -4 11 -1 20 4 14 3 15 -5 2 -7 -10 -8 -18 -1 -27 7 -8
7 -18 0 -32 -15 -27 -14 -29 14 -23 20 3 27 -1 35 -23 17 -44 -24 -135 -60
-135 -6 0 -8 -5 -5 -10 7 -12 -20 -60 -34 -60 -4 0 -13 11 -19 24 -8 19 -8 26
1 30 7 2 5 5 -4 5 -16 1 -32 23 -34 46 0 6 -5 10 -10 10 -5 0 -9 -5 -7 -12 1
-6 -7 -18 -18 -26 -11 -7 -17 -17 -12 -21 4 -4 -1 -14 -11 -21 -10 -7 -14 -16
-9 -18 4 -3 16 7 26 24 21 36 32 37 40 3 4 -15 13 -33 21 -41 15 -14 16 -38 2
-61 -13 -20 -27 -4 -27 31 0 24 -3 28 -12 19 -17 -17 -14 -73 5 -84 22 -12 21
-30 -3 -58 -24 -27 -26 -84 -5 -120 8 -14 18 -32 22 -40 8 -17 44 -49 56 -50
4 0 3 9 -3 19 -18 35 -13 54 15 49 29 -6 30 -2 10 32 -8 14 -14 38 -15 53 0
26 1 27 16 13 21 -21 27 -20 21 4 -3 13 0 20 8 20 7 0 16 6 19 13 3 6 3 1 0
-12 -4 -17 -3 -21 6 -16 9 5 10 1 5 -15 -5 -15 -3 -20 3 -16 17 10 25 -13 11
-30 -11 -14 -13 -14 -21 0 -5 9 -14 16 -20 16 -6 0 -4 -8 5 -18 16 -18 21 -82
6 -82 -5 0 -1 -16 8 -35 20 -42 36 -47 21 -7 -13 32 -4 88 17 116 14 18 16 18
34 2 17 -15 21 -34 22 -91 0 -16 2 -17 9 -5 5 8 10 10 10 4 0 -6 21 -26 48
-44 l47 -34 -49 47 c-42 40 -48 49 -42 74 12 49 28 84 39 80 20 -6 50 -79 51
-123 1 -58 16 -40 21 25 3 49 26 101 43 101 4 0 17 -18 30 -40 12 -22 18 -40
13 -40 -11 0 20 -33 59 -65 l25 -20 -22 26 c-32 35 -30 81 5 120 l28 31 28
-41 c16 -23 33 -41 39 -41 6 0 8 -3 4 -6 -3 -3 -2 -17 4 -31 6 -16 5 -31 -2
-44 -9 -18 -8 -19 10 -7 17 11 24 9 48 -12 22 -20 21 -18 -6 14 -29 34 -32 44
-27 78 6 39 32 88 46 88 20 0 55 -65 65 -122 4 -25 17 -46 41 -67 19 -17 32
-35 29 -41 -3 -5 3 -13 12 -19 17 -9 17 -10 1 -16 -10 -4 -18 -11 -18 -16 0
-12 22 -11 55 1 22 8 25 13 15 24 -13 17 4 96 20 96 6 0 10 -4 10 -9 0 -4 18
-21 41 -37 40 -27 40 -28 17 -37 -22 -9 -22 -10 -3 -14 11 -2 29 -8 40 -13 39
-16 55 -19 55 -10 0 5 -6 13 -13 17 -26 15 -27 55 -3 84 l23 27 37 -37 c24
-25 35 -43 30 -54 -4 -12 1 -18 19 -22 17 -5 24 -12 20 -21 -3 -8 0 -14 6 -14
13 0 25 45 16 60 -3 6 -1 9 6 8 6 -2 14 3 16 10 3 6 -2 12 -11 12 -20 0 -20 4
0 41 l15 30 35 -30 c19 -17 44 -31 54 -31 11 0 20 -5 20 -11 0 -6 -7 -9 -15
-5 -26 10 -16 -20 10 -32 34 -16 50 -15 65 3 10 12 9 16 -4 21 -20 8 -21 43 0
72 23 34 1 26 -24 -8 -27 -36 -55 -38 -87 -5 -28 27 -33 71 -12 108 17 31 49
67 59 67 16 0 102 -94 90 -98 -13 -4 -17 -32 -4 -32 4 -1 27 -19 52 -41 35
-31 42 -41 31 -48 -12 -8 -12 -11 0 -23 18 -18 49 -30 49 -18 0 5 9 12 20 15
27 9 25 18 -9 38 -34 20 -33 39 9 88 l28 34 37 -40 36 -40 -32 45 c-28 40 -30
51 -26 97 6 58 33 123 51 123 17 0 68 -55 59 -63 -3 -4 4 -7 16 -7 14 0 20 -4
15 -11 -3 -6 -1 -21 6 -34 11 -20 8 -30 -19 -79 -18 -31 -39 -60 -48 -65 -10
-5 -14 -15 -10 -26 4 -9 0 -23 -9 -33 -11 -11 -13 -17 -5 -20 6 -2 9 -7 7 -11
-3 -4 8 -8 25 -8 17 0 35 -7 44 -19 13 -17 14 -17 15 -1 0 9 -5 17 -11 17 -7
0 -9 10 -5 25 5 19 2 25 -10 25 -26 0 -12 77 21 109 l26 26 32 -38 c18 -21 42
-39 55 -40 26 -2 26 -4 7 -37 -16 -27 -19 -51 -7 -48 4 0 14 -1 22 -5 26 -10
70 -14 65 -7 -14 22 90 14 142 -12 11 -6 26 -8 31 -4 13 8 3 46 -12 46 -19 0
-39 45 -31 71 l6 24 -20 -25 c-11 -14 -21 -30 -21 -37 0 -16 -50 -31 -87 -26
-32 5 -43 22 -43 70 0 31 32 103 46 103 10 0 62 -36 74 -51 11 -14 50 -20 68
-10 11 6 22 26 26 48 11 67 17 70 79 32 78 -48 83 -85 22 -164 -14 -18 -18
-19 -43 -5 -14 9 -37 31 -49 49 -13 19 -23 27 -23 19 0 -8 12 -28 27 -44 15
-16 26 -33 25 -38 -2 -5 3 -13 10 -19 9 -6 8 -7 -5 -3 -33 11 -39 -5 -12 -30
27 -25 45 -31 45 -15 0 11 45 20 58 12 5 -3 12 -16 16 -28 4 -11 13 -24 21
-27 21 -8 19 0 -15 49 -32 47 -37 86 -16 124 l13 24 18 -24 c13 -18 15 -19 9
-4 -13 29 -8 145 8 182 l14 33 53 -56 c43 -46 52 -61 49 -84 -3 -17 0 -26 6
-24 6 2 19 -8 28 -23 9 -16 32 -45 49 -66 25 -29 30 -40 21 -49 -19 -19 -14
-26 18 -33 17 -4 30 -11 30 -15 0 -5 7 -7 15 -4 11 5 12 11 4 25 -5 10 -6 19
-2 19 4 0 2 4 -6 9 -15 10 -19 53 -8 91 5 15 -1 9 -13 -13 l-21 -38 -38 30
c-47 38 -65 89 -59 170 6 81 19 94 57 57 16 -16 40 -34 52 -40 12 -6 28 -29
36 -51 7 -22 23 -49 35 -60 l20 -20 -15 25 c-18 29 -32 147 -22 179 3 11 13
21 21 21 17 0 114 -95 114 -113 0 -7 17 -29 37 -48 l37 -34 -27 33 c-47 59
-59 161 -23 191 20 17 79 -37 111 -101 l25 -49 -25 -50 c-14 -27 -22 -49 -18
-49 5 0 18 24 30 53 22 50 22 54 7 97 -15 43 -15 132 0 147 8 8 115 -106 116
-123 0 -12 32 -44 44 -44 3 0 0 10 -8 23 -21 32 -29 90 -21 143 l7 46 35 -33
c19 -19 53 -60 74 -91 51 -75 61 -79 37 -16 -11 30 -18 69 -16 90 2 21 0 38
-4 38 -4 0 -8 -14 -10 -32 -2 -17 -8 -33 -15 -35 -6 -2 -30 21 -54 52 -37 50
-42 63 -47 124 -2 37 0 71 5 74 13 8 98 -77 113 -114 8 -17 33 -51 58 -76 24
-25 50 -59 57 -76 7 -18 27 -45 43 -61 l30 -28 -24 48 c-15 30 -24 66 -25 98
-1 50 -1 51 -12 18 -5 -18 -15 -31 -21 -29 -6 2 -28 28 -48 58 -42 60 -59 127
-46 178 l9 34 40 -39 c21 -21 39 -44 39 -51 0 -21 41 -93 54 -93 6 0 4 -5 -4
-10 -13 -8 -13 -10 1 -10 20 0 68 -60 99 -123 13 -26 32 -55 43 -65 15 -13 14
-7 -8 33 -21 40 -26 61 -23 102 3 55 -6 62 -17 12 -6 -28 -8 -29 -24 -14 -40
36 -72 114 -78 189 -4 47 -2 76 5 80 16 10 102 -82 102 -109 0 -12 6 -28 14
-34 8 -6 11 -22 8 -37 -4 -24 -3 -25 15 -14 19 12 19 13 1 69 -20 58 -18 104
5 135 12 16 15 15 47 -17 21 -22 42 -59 54 -98 14 -42 27 -64 37 -65 15 -1 15
1 0 30 -19 36 -21 167 -3 189 7 8 9 18 5 23 -4 5 9 -6 29 -25 21 -19 35 -38
32 -43 -3 -4 1 -8 8 -8 16 0 53 -94 45 -114 -3 -8 0 -20 8 -26 15 -12 14 16
-4 109 -8 40 -8 65 1 95 6 23 11 44 10 49 -4 15 9 5 46 -35 20 -22 37 -46 38
-52 0 -6 6 -24 13 -41 7 -16 11 -44 9 -62 -4 -32 16 -55 25 -30 3 9 14 7 38
-6 l34 -17 -26 23 c-14 13 -29 34 -32 48 -3 13 -10 40 -15 60 -9 37 -8 106 2
116 21 22 73 -63 78 -128 1 -17 5 -32 9 -35 4 -2 3 -20 -1 -40 -7 -29 -5 -39
11 -55 10 -10 24 -19 31 -19 7 0 5 5 -4 13 -23 17 -30 74 -11 81 11 5 14 1 10
-13 -3 -15 1 -21 16 -23 26 -4 33 -25 10 -31 -17 -4 -17 -5 0 -6 19 -1 24 -21
5 -21 -7 -1 2 -7 20 -15 30 -13 35 -13 49 1 12 11 13 18 4 27 -8 8 -11 8 -11
-2 0 -7 -5 -9 -11 -5 -8 4 -7 9 2 14 19 12 36 1 43 -26 8 -29 60 -58 92 -50
23 6 33 -7 15 -19 -6 -3 -5 -22 3 -48 7 -23 11 -48 8 -55 -2 -6 5 -12 15 -12
13 0 15 -2 5 -9 -9 -5 -11 -17 -7 -34 4 -15 11 -24 16 -21 5 3 7 10 4 15 -4 5
-1 9 4 9 6 0 11 11 11 25 0 14 5 25 12 25 6 0 8 -3 5 -7 -7 -7 21 -43 33 -43
4 0 10 10 14 22 4 18 8 20 18 10 6 -6 20 -12 30 -12 10 0 18 -5 18 -11 0 -6
-7 -8 -17 -4 -13 4 -15 3 -7 -5 8 -8 18 -8 36 0 20 10 31 8 61 -10 20 -12 37
-26 37 -31 0 -5 5 -9 12 -9 6 0 3 10 -8 23 -11 12 -29 36 -39 52 -10 17 -33
43 -51 58 -19 16 -34 33 -34 39 0 5 -10 19 -22 29 l-23 20 23 -11 c31 -15 34
-10 17 23 -8 15 -10 27 -5 27 18 0 20 33 2 46 -11 7 -38 42 -62 78 -47 73 -54
118 -27 160 21 32 95 80 121 78 13 -1 17 4 13 18 -4 17 -1 19 18 14 18 -4 22
-2 21 16 0 11 -7 24 -14 29 -20 12 -10 46 13 46 11 0 23 4 26 8 4 5 9 -3 13
-18 4 -15 2 -33 -4 -41 -9 -10 -7 -14 13 -19 14 -4 30 -16 36 -28 9 -19 10
-18 4 8 -6 29 -6 29 17 14 23 -15 44 -49 23 -36 -6 4 -10 -6 -9 -23 1 -17 7
-30 14 -30 6 0 12 5 12 10 0 6 5 10 11 10 5 0 8 -4 5 -9 -3 -4 6 -6 19 -3 14
2 25 8 25 13 0 5 7 6 15 3 24 -10 17 6 -7 17 -19 8 -17 9 11 4 42 -6 48 -12
33 -27 -16 -16 -15 -28 3 -28 8 0 15 -4 15 -10 0 -5 -5 -10 -11 -10 -5 0 -7
-4 -4 -10 3 -6 -1 -7 -10 -4 -9 4 -13 9 -11 12 7 6 -13 32 -25 32 -32 0 44
-83 79 -86 33 -4 62 -32 58 -58 -2 -11 1 -34 7 -50 7 -21 6 -30 -4 -37 -11 -7
-10 -9 4 -9 14 0 16 -5 11 -27 -10 -43 -20 -48 -50 -24 -15 12 -21 21 -13 21
8 0 -5 16 -28 36 -24 20 -43 42 -43 49 0 7 -6 16 -12 18 -10 4 -9 8 2 17 13
10 12 11 -3 6 -23 -7 -138 36 -180 69 -19 13 -49 27 -68 30 -30 4 -31 4 -7 -4
34 -11 74 -39 70 -49 -2 -4 10 -11 27 -16 17 -5 31 -12 31 -17 0 -10 -104 1
-108 12 -2 5 -8 9 -14 9 -7 0 -6 -5 1 -14 6 -7 35 -17 63 -20 29 -4 59 -13 67
-19 12 -10 13 -8 6 12 -6 21 -5 22 17 16 64 -20 87 -35 109 -74 12 -23 28 -41
35 -41 7 0 10 -8 7 -19 -3 -13 -10 -18 -21 -13 -15 5 -15 4 -3 -11 11 -15 11
-17 -1 -17 -8 0 -30 -7 -48 -16 -31 -16 -35 -16 -67 1 -19 11 -32 24 -29 31 3
9 -1 11 -11 7 -10 -4 -14 -2 -10 4 4 5 -5 15 -19 22 -17 7 -23 8 -19 0 5 -7
-8 -9 -39 -6 -31 2 -50 -1 -57 -10 -9 -10 -8 -13 2 -14 8 0 5 -4 -6 -8 -18 -7
-16 -10 18 -24 21 -9 36 -21 32 -27 -9 -15 14 -12 31 5 8 8 22 11 30 8 14 -5
12 -8 -7 -20 -16 -9 -17 -12 -5 -8 41 12 115 -46 84 -67 -10 -8 -9 -8 5 -4 9
3 17 2 17 -2 0 -11 55 -42 74 -42 9 0 22 11 28 25 8 18 18 25 32 23 12 -2 20
-9 19 -16 -2 -6 2 -12 7 -12 6 0 10 5 10 11 0 6 11 8 28 4 20 -4 33 -1 42 10
10 12 10 15 0 15 -10 0 -10 3 0 15 16 19 30 19 30 -1 0 -8 5 -12 10 -9 6 3 10
1 10 -6 0 -7 2 -10 5 -7 3 3 1 18 -6 34 -6 16 -11 45 -11 64 0 19 -4 44 -10
55 -7 14 -3 13 11 -5 12 -14 19 -33 17 -42 -3 -13 2 -18 17 -17 12 0 16 3 10
6 -7 2 -13 13 -13 24 0 16 5 18 28 13 27 -6 27 -6 5 10 -12 9 -30 13 -40 10
-14 -5 -15 -4 -3 4 12 9 11 14 -5 34 -15 17 -16 20 -2 9 15 -12 17 -11 17 3 0
19 21 21 39 4 11 -11 13 -10 8 4 -7 19 8 34 18 19 3 -6 13 -7 22 -4 11 4 14 3
9 -5 -4 -7 -14 -12 -22 -12 -8 0 -14 -5 -14 -10 0 -6 11 -8 25 -4 15 4 25 2
25 -5 0 -6 4 -11 8 -11 4 0 8 12 7 28 0 21 5 28 23 30 22 3 31 -13 11 -20 -9
-3 -9 -9 0 -25 6 -12 8 -29 4 -39 -6 -16 -7 -16 -18 0 -11 15 -13 14 -17 -8
-3 -14 -1 -23 4 -20 4 3 14 -8 21 -25 9 -21 17 -27 26 -22 11 7 9 11 -5 20
-11 6 -14 11 -6 11 9 0 11 7 7 20 -5 15 -2 20 10 20 11 0 15 -5 11 -15 -4 -11
0 -15 11 -13 9 2 18 -3 20 -10 3 -8 -2 -10 -14 -6 -17 5 -17 5 0 -6 11 -7 32
-10 48 -8 17 3 29 0 29 -6 0 -6 8 0 18 14 19 28 35 33 106 32 44 0 47 1 33 16
-9 8 -29 15 -46 14 -17 0 -33 4 -37 9 -3 5 -11 6 -17 3 -7 -4 -9 -4 -6 0 4 4
46 9 95 12 121 7 134 8 134 15 0 4 13 12 28 18 15 6 41 23 56 36 16 14 32 25
35 25 3 0 17 16 30 35 13 19 28 35 33 35 5 0 7 -4 4 -9 -4 -5 3 -7 14 -4 27 7
26 23 -2 23 -19 0 -20 1 -5 18 40 44 46 187 10 255 -53 103 -179 180 -326 201
-91 12 -93 17 -14 31 25 4 37 2 37 -6 0 -7 11 -10 30 -7 17 3 30 1 30 -3 0
-11 39 -18 42 -7 7 19 50 -3 89 -46 28 -29 39 -36 39 -23 0 9 4 17 9 17 8 0
73 -34 90 -47 2 -1 -2 -9 -9 -18 -20 -25 -4 -43 45 -51 35 -5 49 -12 57 -29
15 -33 48 -39 75 -13 19 18 23 19 23 5 0 -9 -7 -20 -16 -25 -9 -5 -15 -11 -14
-13 1 -2 -4 -17 -10 -33 -12 -33 -9 -40 17 -32 15 5 18 13 16 34 -3 20 3 34
26 56 24 23 31 38 31 68 0 21 -4 38 -10 38 -5 0 -7 -8 -3 -17 5 -15 3 -14 -10
2 -22 27 -21 31 11 30 16 0 26 5 25 13 -2 6 6 12 17 12 11 0 27 12 37 26 9 14
28 30 42 36 l26 10 -28 14 c-15 8 -80 26 -145 39 -64 13 -167 35 -228 49 -61
14 -162 30 -225 35 -63 6 -136 15 -164 20 -27 6 -86 15 -130 20 -44 5 -141 19
-215 30 -74 12 -157 23 -184 26 -27 3 -84 12 -125 20 -142 28 -402 52 -661 60
-203 7 -372 -5 -610 -44 -36 -6 -98 -15 -138 -20 -40 -6 -78 -13 -83 -17 -6
-3 -35 -8 -67 -11 -31 -2 -68 -11 -84 -19 -15 -8 -49 -14 -75 -14 -27 0 -63
-4 -80 -9 -18 -5 -54 -11 -80 -12 -27 -1 -54 -7 -61 -12 -9 -7 -16 -7 -23 0
-6 6 -29 8 -51 5 -37 -5 -43 -2 -74 34 -21 24 -31 31 -28 19 9 -27 -10 -9 -29
27 -7 15 -58 78 -113 141 -68 79 -100 108 -102 97 -2 -10 7 -33 18 -51 17 -27
20 -29 14 -9 -10 37 11 16 71 -69 30 -42 55 -69 63 -66 7 3 10 0 7 -5 -3 -5 1
-20 9 -32 7 -13 17 -33 21 -46 6 -21 5 -22 -12 -12 -10 7 -31 30 -47 53 -48
68 -173 207 -187 207 -4 0 -35 28 -70 63 -35 34 -48 45 -28 22 19 -22 51 -60
69 -85 19 -25 64 -79 100 -120 71 -80 107 -130 94 -130 -4 0 3 -11 15 -24 14
-15 19 -26 12 -31 -6 -3 -11 -2 -11 3 0 5 -13 22 -30 38 -16 16 -30 37 -30 47
0 9 -4 17 -9 17 -5 0 -38 39 -72 88 -80 111 -217 246 -253 249 -17 1 -26 -3
-26 -12 0 -8 6 -12 15 -9 21 9 41 -6 24 -18 -11 -8 -10 -9 3 -5 9 3 24 -3 33
-13 15 -17 16 -22 4 -37 -7 -10 -10 -15 -5 -11 15 12 76 -48 76 -75 0 -11 5
-17 13 -14 7 2 26 -14 42 -36 16 -22 23 -37 16 -32 -9 5 -12 3 -9 -6 3 -8 12
-13 21 -13 9 1 13 -4 10 -12 -3 -8 -10 -14 -15 -14 -15 0 -51 44 -39 48 5 2
-8 19 -30 39 -30 27 -37 39 -29 49 9 9 7 11 -7 8 -12 -3 -29 9 -53 37 -19 23
-57 64 -85 90 -50 48 -49 56 2 50 24 -3 22 18 -3 48 -28 33 -47 41 -37 15 5
-14 3 -15 -15 -5 -12 6 -18 18 -16 28 4 12 -5 24 -25 36 -17 10 -31 22 -31 27
0 11 -155 129 -270 206 -30 20 -57 41 -58 45 -2 5 -8 7 -13 3 -5 -3 -9 1 -9 8
0 7 -17 21 -38 30 -20 10 -66 41 -101 68 -35 28 -66 49 -69 46 -10 -11 25 -40
134 -111 138 -90 240 -172 324 -262 73 -77 153 -171 158 -184 6 -15 -12 -10
-38 11 -23 18 -52 29 -37 13 4 -3 1 -13 -6 -21 -10 -13 -9 -15 6 -9 9 3 17 2
17 -2 0 -5 3 -16 6 -25 10 -25 -16 -19 -44 11 -22 24 -23 28 -8 39 21 15 11
26 -58 66 -29 17 -44 32 -40 41 3 8 -2 14 -10 14 -8 0 -13 -5 -10 -11 3 -6 -1
-2 -8 8 -7 11 -29 36 -48 56 -19 20 -24 23 -10 6 l25 -29 -40 23 c-22 13 -49
32 -61 42 -11 10 -24 18 -29 18 -14 0 38 -51 61 -60 11 -5 21 -15 21 -24 0
-24 -9 -20 -52 25 -22 22 -75 68 -117 101 -43 33 -78 65 -78 70 0 5 -6 8 -12
6 -21 -5 -218 131 -230 158 -16 34 -108 82 -108 56z m-21 -129 c53 -31 102
-60 109 -66 7 -5 15 -7 18 -4 4 3 -17 20 -45 37 -54 34 -69 50 -23 26 50 -27
94 -64 80 -68 -7 -3 6 -17 32 -33 57 -36 246 -188 280 -226 3 -3 23 -18 45
-35 22 -16 46 -35 53 -41 7 -7 18 -13 23 -13 9 0 125 -93 159 -128 13 -13 13
-14 0 -7 -26 15 -274 197 -285 209 -5 7 -53 44 -105 83 -52 39 -107 82 -122
96 -15 14 -29 23 -31 21 -2 -3 -22 13 -43 34 -37 36 -241 162 -263 162 -5 0
-13 5 -17 11 -12 19 35 -1 135 -58z m796 -669 c11 -7 32 -23 48 -34 20 -16 26
-18 21 -6 -3 9 -11 16 -17 16 -6 0 -8 3 -4 6 10 10 48 -7 41 -18 -5 -7 0 -9
14 -6 12 4 22 2 22 -3 0 -5 -4 -9 -10 -9 -5 0 -7 -7 -4 -15 4 -8 14 -15 25
-15 11 0 25 -14 35 -36 11 -22 28 -40 46 -46 15 -6 25 -14 22 -19 -3 -5 1 -7
8 -4 7 2 36 -16 63 -40 28 -25 53 -45 58 -45 4 0 7 -7 7 -15 0 -8 5 -15 10
-15 17 0 11 -29 -9 -39 -14 -8 -25 -6 -43 9 -20 15 -28 16 -38 7 -10 -10 -12
-8 -7 6 4 9 2 17 -2 17 -5 0 -38 30 -72 68 -100 106 -198 201 -243 234 -31 23
-35 29 -16 23 14 -4 34 -13 45 -21z m-207 -29 c26 -14 65 -37 87 -51 l40 -27
-24 27 c-40 43 -17 30 84 -49 53 -42 101 -73 106 -69 5 3 8 2 7 -3 -4 -10 38
-53 51 -53 5 0 14 -6 20 -14 6 -7 22 -12 36 -10 32 3 56 -20 51 -49 -2 -17 -9
-21 -27 -19 -23 3 -23 2 -5 -13 11 -8 24 -15 29 -15 5 0 4 -7 -3 -15 -17 -21
-43 -19 -70 5 -13 11 -26 18 -29 15 -3 -4 1 -10 8 -14 11 -7 10 -11 -5 -18
-28 -14 -70 -10 -66 5 1 8 -2 11 -8 7 -6 -4 -16 -2 -23 3 -7 6 -72 40 -144 76
-122 60 -161 84 -115 70 14 -5 14 -3 -3 10 -11 9 -25 14 -33 11 -7 -2 -11 -1
-7 4 3 5 -11 15 -30 21 -19 6 -37 16 -40 21 -4 5 5 5 20 -1 35 -13 48 -13 39
2 -5 8 0 9 17 4 13 -4 31 -9 39 -10 28 -4 150 -78 144 -87 -3 -5 2 -9 11 -9 8
0 54 -20 100 -45 64 -35 83 -41 78 -28 -7 22 -53 62 -70 63 -7 0 -13 4 -13 8
0 4 -14 16 -30 26 -17 10 -52 39 -78 64 -27 26 -65 58 -85 72 -20 14 -35 31
-32 38 2 6 -3 12 -11 12 -9 0 -32 14 -51 30 -41 37 -28 38 35 5z m1979 -371
c33 -57 27 -65 -12 -20 -35 39 -48 39 -21 1 7 -11 12 -32 12 -48 -1 -18 3 -26
10 -23 14 5 26 -18 18 -37 -2 -7 1 -33 9 -57 11 -40 11 -49 -5 -80 -16 -30
-23 -33 -19 -7 0 4 -2 6 -6 6 -22 -4 -32 4 -47 35 -18 38 -21 92 -6 101 5 3 7
12 3 20 -3 10 1 15 13 15 18 1 18 1 2 14 -18 13 -19 39 -3 99 9 36 24 30 52
-19z m-302 -85 c-17 -6 -17 -8 -3 -8 16 -1 20 -9 33 -73 2 -10 -1 -21 -6 -24
-14 -8 -11 -24 4 -19 14 6 13 -60 -1 -110 l-9 -30 -35 38 c-37 40 -53 97 -33
118 7 9 6 10 -2 5 -15 -8 -18 10 -4 18 5 4 8 14 6 24 -1 9 3 23 9 31 8 11 8
15 -1 18 -7 3 -13 9 -13 15 0 6 7 8 15 4 9 -3 15 0 15 10 0 12 4 13 22 3 22
-12 22 -12 3 -20z m160 -38 c0 -28 4 -51 8 -51 5 0 5 -4 2 -10 -3 -5 1 -10 9
-10 9 0 16 -7 16 -15 0 -8 -5 -15 -11 -15 -5 0 -8 -4 -5 -9 8 -12 -14 -71 -26
-71 -18 0 -68 65 -69 90 -3 53 1 94 10 103 5 5 7 16 4 23 -6 16 37 36 52 24 6
-5 10 -31 10 -59z m-296 18 c-8 -5 -8 -8 0 -13 6 -4 11 -20 11 -36 0 -16 9
-52 20 -80 15 -38 17 -56 10 -70 -5 -10 -10 -30 -10 -44 0 -14 -4 -26 -10 -26
-15 0 -61 52 -76 88 -14 32 -11 72 6 72 4 0 11 7 14 16 5 14 4 15 -9 4 -8 -7
-15 -9 -15 -4 0 5 -5 2 -11 -6 -8 -11 -9 -6 -4 20 4 19 8 46 10 60 1 14 3 29
4 34 0 4 13 5 28 1 24 -6 25 -5 12 12 -12 16 -11 15 9 -1 15 -13 19 -22 11
-27z m-122 -74 c1 -30 -3 -55 -8 -55 -5 0 0 -9 11 -20 24 -24 27 -85 6 -125
l-14 -26 -20 22 c-31 32 -55 88 -49 115 2 13 1 24 -4 24 -12 0 -4 92 10 119
l13 23 24 -23 c28 -26 32 -16 7 15 -17 21 -17 21 2 3 14 -13 20 -32 22 -72z
m2082 52 c-21 -16 -42 -57 -34 -65 4 -4 14 2 23 13 10 11 26 27 37 35 19 14
19 14 6 -3 -8 -9 -11 -20 -7 -24 9 -9 35 29 29 43 -9 24 18 25 67 2 27 -13 50
-26 50 -30 0 -3 -22 -14 -50 -23 -27 -9 -50 -21 -50 -27 0 -5 -6 -8 -12 -5 -7
2 -20 -7 -29 -20 -9 -14 -19 -24 -23 -24 -21 3 -38 0 -33 -5 3 -4 2 -15 -3
-25 -6 -11 -6 -20 -1 -24 5 -3 12 4 16 15 7 22 20 26 31 8 4 -7 3 -8 -4 -4 -7
4 -12 2 -12 -3 0 -6 9 -11 20 -11 11 0 20 -7 20 -15 0 -8 5 -15 10 -15 6 0 10
-12 10 -26 0 -16 5 -24 12 -22 7 3 13 24 13 54 1 27 5 56 10 65 36 60 96 100
155 103 14 0 29 7 33 14 11 16 49 15 73 -3 10 -8 14 -15 7 -15 -6 0 -15 5 -18
10 -9 14 -35 12 -32 -2 6 -33 67 -43 67 -11 0 12 5 11 30 -4 17 -9 30 -20 30
-24 0 -4 3 -14 6 -22 3 -8 -2 -22 -11 -31 -14 -14 -14 -17 -2 -22 8 -3 13 -13
10 -23 -3 -11 2 -21 12 -25 13 -5 16 -2 11 9 -3 10 -2 13 5 9 21 -12 67 -11
62 3 -3 7 2 19 10 28 8 8 17 20 20 27 8 24 18 1 24 -53 7 -74 -24 -153 -87
-222 -70 -77 -124 -100 -240 -105 -107 -4 -174 14 -249 68 -44 32 -97 115
-107 168 -8 41 4 142 17 142 6 0 7 -4 4 -10 -3 -5 -1 -10 4 -10 10 0 15 14 12
32 0 4 6 5 14 2 20 -8 19 10 0 30 -13 13 -14 20 -4 38 15 29 50 60 58 52 3 -3
-1 -11 -10 -17z m-2273 -22 c-4 -12 -2 -13 13 -6 14 8 23 5 39 -14 13 -14 16
-25 10 -27 -8 -3 -9 -11 -3 -24 4 -10 7 -26 6 -33 -2 -8 5 -21 16 -28 15 -12
16 -15 3 -23 -8 -5 -10 -10 -4 -10 8 0 8 -11 1 -40 -6 -22 -15 -40 -19 -40 -4
0 -5 -8 -1 -17 6 -16 4 -16 -16 1 -37 33 -59 78 -65 134 -3 28 -1 52 3 52 5 0
6 12 2 28 -5 15 -3 34 3 45 13 21 20 22 12 2z m-98 -25 c7 -11 12 -23 13 -27
0 -5 8 -17 17 -27 9 -11 11 -16 4 -12 -10 6 -13 2 -10 -15 2 -17 -1 -23 -12
-21 -10 1 -9 -2 4 -13 24 -18 29 -36 29 -93 -1 -58 -15 -71 -42 -40 -44 51
-59 94 -57 171 1 39 5 78 9 85 12 18 30 15 45 -8z m1073 -62 c12 -23 22 -51
24 -62 1 -12 6 -33 10 -48 7 -28 -11 -128 -24 -128 -4 0 -22 15 -40 34 -27 27
-35 45 -39 84 -5 52 21 162 38 162 5 0 19 -19 31 -42z m-1184 -17 c7 -9 11
-26 8 -38 -3 -12 0 -25 5 -28 6 -4 8 -10 5 -15 -3 -5 -1 -18 4 -29 10 -18 6
-42 -16 -101 -4 -8 -5 -19 -4 -25 4 -17 -49 37 -69 70 -20 34 -32 122 -23 177
l5 36 36 -15 c20 -8 42 -22 49 -32z m-185 17 c37 -33 64 -78 47 -78 -10 0 -10
-3 -1 -12 17 -17 15 -28 -5 -29 -16 -1 -16 -2 -2 -6 25 -6 28 -36 10 -92 -16
-50 -17 -51 -38 -36 -31 21 -65 72 -71 104 -2 14 -5 51 -6 81 -1 51 1 55 22
54 12 0 22 3 22 8 0 4 -5 8 -11 8 -5 0 -7 5 -4 10 8 13 8 13 37 -12z m1243
-14 c9 -9 14 -22 11 -30 -3 -7 0 -14 6 -16 16 -6 15 -123 -1 -177 l-12 -43
-31 28 c-16 16 -36 40 -43 54 -19 37 -14 139 9 173 21 31 38 34 61 11z m-141
-32 c10 -12 15 -26 11 -31 -3 -6 -2 -11 3 -11 18 0 30 -113 18 -172 -6 -31
-14 -59 -17 -62 -3 -3 -20 9 -38 28 -55 56 -71 159 -40 253 12 36 26 35 63 -5z
m-1230 -72 c1 -37 5 -50 16 -50 9 0 7 -6 -8 -16 -21 -14 -22 -18 -8 -33 8 -9
13 -25 11 -36 -2 -11 -4 -28 -4 -37 -1 -10 -8 -18 -17 -18 -8 0 -12 4 -9 10 3
5 -5 15 -19 22 -14 6 -26 17 -26 24 0 6 -6 14 -14 17 -11 4 -14 26 -13 97 2
77 5 94 21 106 17 12 22 11 44 -11 18 -19 24 -36 26 -75z m1104 22 c5 -9 13
-35 17 -57 4 -22 9 -50 11 -63 6 -32 -25 -134 -39 -129 -7 2 -26 22 -43 44
-29 38 -31 47 -33 132 -2 68 2 96 14 115 l16 24 24 -24 c14 -14 29 -32 33 -42z
m-1274 -7 c9 -18 16 -45 16 -59 0 -14 5 -26 11 -26 5 0 7 -5 4 -10 -4 -6 -9
-8 -13 -6 -4 2 -7 -9 -7 -25 0 -17 5 -29 13 -29 6 0 12 -7 12 -15 0 -8 -4 -15
-10 -15 -5 0 -12 -11 -16 -25 -3 -14 -8 -25 -11 -25 -19 0 -46 28 -64 67 -17
38 -20 59 -16 113 3 36 11 77 18 92 13 24 15 25 31 11 9 -8 24 -30 32 -48z
m1111 11 c40 -37 59 -120 45 -199 -7 -34 -14 -65 -17 -70 -7 -12 -41 21 -71
67 -23 37 -24 46 -19 124 3 55 10 88 18 93 18 11 14 13 44 -15z m-1291 -38
c-5 -15 -3 -20 7 -16 16 6 43 -18 30 -26 -12 -8 -20 -55 -10 -61 4 -3 5 -21 3
-41 -3 -22 -1 -33 6 -29 5 3 10 2 10 -4 0 -5 -4 -12 -10 -16 -5 -3 -7 -12 -4
-19 3 -7 -3 -15 -13 -18 -25 -7 -43 1 -43 18 0 8 -4 14 -8 14 -14 0 -31 45
-38 97 -7 52 11 137 26 128 6 -4 10 -1 10 5 0 8 6 8 20 0 15 -8 19 -17 14 -32z
m1140 16 c9 -8 16 -20 16 -25 0 -6 4 -8 9 -5 8 5 15 -15 39 -107 9 -32 -1
-135 -14 -155 -1 -2 -14 4 -28 13 -55 36 -87 165 -62 256 11 43 17 46 40 23z
m-101 -77 c-3 -5 -1 -19 5 -30 30 -63 35 -125 16 -186 -6 -19 -60 32 -85 82
-22 41 -25 128 -7 186 l11 35 33 -39 c18 -22 30 -43 27 -48z m-1223 63 c0 -6
19 -28 42 -51 37 -35 40 -42 26 -50 -10 -6 -15 -16 -11 -25 4 -11 0 -15 -13
-12 -12 2 -19 -4 -21 -17 -1 -11 0 -14 3 -7 9 20 34 13 36 -10 2 -40 -2 -62
-15 -70 -9 -6 -9 -10 1 -17 11 -6 9 -10 -7 -14 -16 -4 -28 3 -47 29 -23 30
-25 36 -13 51 8 9 9 14 3 10 -7 -4 -14 0 -18 8 -3 8 0 15 7 15 7 0 4 5 -5 10
-19 12 -18 67 3 125 12 33 29 47 29 25z m1066 -41 c13 -12 20 -28 17 -37 -4
-8 -2 -13 3 -9 6 3 9 -9 9 -29 -1 -19 3 -34 8 -34 6 0 7 -3 4 -6 -3 -4 0 -15
7 -26 12 -17 7 -88 -10 -137 -6 -17 -58 29 -80 71 -24 46 -13 228 14 228 3 0
16 -9 28 -21z m-2422 -36 c17 -5 31 -16 34 -24 3 -11 2 -12 -6 -1 -7 11 -11 8
-14 -12 -3 -14 -1 -26 3 -26 5 0 9 -7 9 -16 0 -9 10 -24 23 -34 22 -17 38 -78
17 -65 -6 3 -10 -3 -10 -14 0 -11 8 -24 17 -29 15 -9 14 -13 -12 -41 -27 -28
-30 -29 -47 -14 -10 9 -23 33 -28 54 -9 32 -8 44 7 66 10 16 22 31 28 35 5 4
0 8 -12 8 -13 0 -23 -4 -23 -9 0 -5 -7 -11 -15 -15 -11 -4 -21 5 -32 28 -14
31 -14 36 1 66 9 18 16 43 16 54 0 12 3 16 8 10 4 -6 20 -15 36 -21z m1246
-11 c13 -13 13 -14 0 -8 -8 4 -4 -2 9 -14 21 -18 22 -23 10 -31 -10 -6 -10 -9
-1 -9 6 0 12 -4 12 -9 0 -4 -11 -6 -24 -4 -30 6 -46 -16 -17 -24 12 -3 21 -12
21 -19 0 -8 4 -14 9 -14 5 0 2 -22 -7 -50 -10 -27 -22 -50 -28 -50 -12 0 -47
38 -63 68 -16 30 -14 153 3 180 9 15 55 6 76 -16z m1051 9 c8 -9 13 -18 13
-21 -1 -3 0 -9 2 -15 31 -99 37 -174 18 -237 -4 -14 -8 -15 -20 -5 -36 29 -57
54 -66 77 -11 26 -13 193 -3 209 8 14 39 9 56 -8z m-2151 -18 c0 -9 12 -32 28
-52 29 -38 38 -76 20 -87 -7 -4 -6 -9 3 -15 20 -12 -11 -94 -36 -94 -27 0 -57
47 -62 99 -5 41 -3 48 26 75 17 16 27 32 22 35 -5 3 -19 -10 -32 -29 -27 -39
-35 -40 -62 -3 -17 23 -18 31 -8 55 9 22 19 29 43 31 18 2 34 5 36 7 8 8 22
-6 22 -22z m2007 -21 c4 -9 11 -20 17 -24 7 -5 7 -8 -1 -8 -7 0 -13 -9 -13
-20 0 -11 4 -20 10 -20 5 0 7 7 4 15 -4 8 -1 15 5 15 6 0 11 -9 11 -20 0 -11
-7 -20 -15 -20 -11 0 -9 -10 9 -47 19 -38 22 -57 17 -92 -3 -24 -11 -46 -17
-48 -14 -5 -60 55 -80 103 -13 31 -13 39 -1 64 12 24 13 28 1 23 -23 -9 -16
33 9 50 17 13 19 16 5 16 -10 1 -15 8 -13 19 2 9 4 21 4 25 2 13 42 -13 48
-31z m-1388 -9 c35 -42 38 -53 15 -53 -11 0 -14 -6 -9 -20 4 -13 2 -20 -7 -20
-10 0 -9 -3 2 -10 9 -6 10 -10 3 -10 -8 0 -10 -14 -8 -40 3 -32 0 -40 -13 -41
-15 -1 -15 -2 1 -6 18 -5 24 -23 8 -23 -14 0 -70 49 -82 72 -8 16 -8 23 2 29
10 6 11 9 2 9 -9 0 -13 16 -13 47 0 39 5 53 28 75 15 15 30 27 34 27 3 1 20
-16 37 -36z m148 -15 c-3 -10 -1 -16 4 -12 14 8 11 -50 -3 -64 -9 -9 -9 -12 3
-12 10 0 11 -2 2 -8 -14 -9 -6 -52 9 -52 5 0 6 -5 3 -11 -4 -6 -13 -8 -20 -5
-7 2 -16 -3 -20 -12 -5 -13 -10 -11 -30 13 -13 17 -22 36 -20 43 3 7 1 11 -3
8 -4 -2 -9 19 -10 49 -2 45 2 58 24 85 25 30 27 30 46 13 11 -9 17 -25 15 -35z
m143 38 c0 4 7 1 15 -6 13 -11 13 -15 3 -21 -8 -6 -9 -9 -2 -9 15 0 24 -49 12
-56 -6 -4 -5 -10 3 -15 10 -6 11 -9 2 -9 -18 0 -16 -30 4 -52 10 -12 12 -18 4
-18 -7 0 -10 -4 -7 -9 3 -4 0 -16 -7 -25 -14 -19 -47 -12 -47 10 0 7 -9 19
-20 27 -38 27 -48 101 -21 169 9 25 13 27 36 18 14 -5 25 -7 25 -4z m-455 -38
c17 -20 23 -34 16 -36 -9 -3 -9 -8 0 -19 10 -12 10 -16 -2 -24 -8 -5 -9 -9 -4
-9 17 0 12 -63 -7 -89 l-18 -25 -26 25 c-15 13 -35 43 -46 66 -17 39 -17 45
-3 79 31 74 49 80 90 32z m-280 6 c28 -18 35 -50 9 -40 -16 6 -16 6 3 -41 3
-7 0 -13 -6 -13 -15 0 -14 -27 2 -33 8 -4 9 -8 1 -14 -6 -4 -14 -20 -18 -35
-7 -32 -22 -35 -53 -10 -40 31 -36 150 6 176 5 4 22 2 38 -4 l28 -10 -25 20
c-30 24 -19 27 15 4z m1689 -30 c3 -9 1 -12 -4 -9 -11 7 -14 -8 -3 -19 4 -3 8
-16 10 -27 2 -11 10 -27 18 -36 9 -8 14 -23 11 -32 -2 -9 -7 -37 -11 -63 -3
-27 -10 -48 -14 -48 -21 0 -81 94 -81 127 0 7 5 13 11 13 8 0 8 5 -1 15 -10
12 -10 15 0 15 10 0 10 3 1 14 -9 11 -9 15 1 19 10 4 10 8 -2 16 -11 8 -11 11
-2 11 7 0 12 6 11 13 -4 33 1 38 25 22 13 -9 27 -23 30 -31z m-208 0 c-3 -9
-2 -12 5 -8 6 3 18 -4 27 -17 16 -23 18 -29 26 -74 2 -11 8 -31 13 -45 6 -14
7 -37 2 -55 -4 -16 -7 -39 -6 -50 1 -15 -3 -19 -18 -17 -11 2 -20 5 -21 5 0 1
-14 20 -32 43 -25 32 -29 44 -19 54 9 10 9 11 -2 5 -9 -5 -12 -3 -9 6 3 8 11
13 17 11 7 -1 5 8 -5 23 -13 19 -14 28 -5 39 9 11 9 15 -1 19 -11 4 -10 7 0
15 8 5 13 12 13 16 -4 26 1 46 10 46 6 0 8 -7 5 -16z m-132 -90 c6 -27 13 -51
17 -54 16 -11 -7 -190 -25 -190 -15 1 -56 36 -56 49 0 6 -4 11 -10 11 -5 0
-10 7 -10 15 0 8 4 15 10 15 16 0 24 71 9 81 -12 8 -11 12 5 24 13 10 17 22
13 42 -4 15 -4 22 -1 15 8 -17 24 -5 17 13 -3 9 1 15 8 15 11 0 11 3 -1 11
-13 9 -13 10 0 7 9 -3 19 -24 24 -54z m889 -22 c21 -21 34 -41 31 -45 -4 -3 0
-17 9 -30 11 -17 14 -40 10 -90 -3 -37 -9 -70 -14 -72 -4 -3 -18 5 -29 17 -44
46 -72 101 -77 152 -5 50 8 106 25 106 4 0 25 -17 45 -38z m-125 -58 c17 -20
33 -48 36 -63 5 -28 -14 -131 -25 -131 -15 0 -79 84 -80 104 0 12 -2 30 -5 41
-2 11 -2 39 1 63 6 37 8 41 25 32 10 -5 32 -26 48 -46z m-348 18 c0 -5 8 -18
18 -29 46 -55 62 -79 67 -105 4 -15 10 -26 15 -23 17 10 20 -13 5 -41 -8 -16
-15 -42 -15 -57 0 -36 -23 -33 -63 8 -45 46 -59 82 -58 144 2 50 6 102 10 109
3 6 21 1 21 -6z m186 -28 c19 -15 34 -32 34 -39 0 -7 7 -18 15 -25 9 -7 13
-15 10 -18 -2 -3 3 -10 12 -17 15 -11 15 -14 0 -36 -10 -13 -17 -36 -17 -51 0
-70 -97 10 -107 89 -5 36 4 123 13 123 3 0 21 -12 40 -26z m-1266 -15 c0 -6 7
-18 16 -27 15 -15 15 -16 -2 -22 -18 -6 -18 -7 0 -17 13 -7 15 -12 7 -18 -9
-5 -9 -10 0 -21 9 -11 8 -14 -4 -14 -23 0 -29 -27 -6 -33 12 -3 19 -14 19 -30
0 -45 -23 -129 -37 -134 -22 -9 -51 26 -58 69 -8 45 8 75 25 48 6 -9 10 -10
10 -3 0 6 -4 15 -10 18 -16 10 -12 25 6 25 12 0 14 3 6 13 -6 7 -7 18 -2 26 4
8 6 20 3 28 -3 8 2 13 12 13 12 0 15 5 11 17 -4 9 -1 20 6 25 9 5 5 8 -12 8
-20 0 -22 2 -10 10 10 6 11 10 3 10 -7 0 -13 5 -13 10 0 6 7 10 15 10 8 0 15
-5 15 -11z m956 -29 c16 -23 37 -50 47 -62 9 -12 17 -27 17 -34 0 -7 5 -14 12
-16 10 -4 10 -13 1 -44 -7 -21 -15 -49 -18 -61 -8 -31 -30 -29 -62 5 -40 42
-56 90 -56 163 0 101 13 111 59 49z m-154 -52 c30 -29 62 -69 71 -89 16 -35
16 -39 -2 -80 -11 -23 -17 -48 -14 -55 6 -18 -52 -1 -87 24 -34 25 -70 98 -70
144 0 37 27 108 41 108 5 0 32 -24 61 -52z m-154 -117 c-2 -10 3 -15 16 -14
11 1 27 -8 36 -20 14 -17 15 -25 5 -46 -7 -14 -19 -39 -26 -56 -8 -16 -22 -31
-32 -33 -27 -5 -86 49 -104 97 -20 52 -22 133 -4 155 12 14 19 11 62 -25 29
-24 48 -48 47 -58z m-180 -1 c7 0 11 -4 8 -9 -4 -5 0 -12 6 -14 10 -4 9 -8 -2
-16 -13 -9 -13 -11 0 -11 9 0 24 -13 33 -30 10 -16 14 -30 8 -30 -6 0 -20 -22
-32 -49 -11 -27 -27 -52 -34 -55 -25 -9 -55 6 -76 40 -18 29 -20 45 -15 97 3
34 5 67 5 74 1 7 11 22 23 33 l23 21 20 -25 c12 -14 26 -26 33 -26z m-371 -62
c4 -7 17 -18 28 -24 11 -6 21 -22 23 -36 3 -28 -56 -138 -75 -138 -27 0 -53
43 -53 87 0 76 52 150 77 111z m-335 -59 c10 -19 24 -38 31 -44 13 -10 18 -55
6 -55 -4 0 -16 -16 -28 -35 -24 -42 -49 -45 -81 -10 -19 20 -23 35 -21 71 3
59 38 119 66 111 6 -2 18 -19 27 -38z m-317 -46 c-2 -7 1 -13 7 -13 6 0 8 -3
5 -6 -4 -4 -13 -1 -22 6 -12 10 -15 10 -15 -2 0 -8 12 -20 26 -26 27 -13 27
-33 -2 -80 -17 -26 -39 -19 -73 24 -26 34 -26 76 0 134 l20 45 29 -35 c16 -19
28 -41 25 -47z m153 44 c12 -18 22 -39 22 -45 0 -7 5 -12 10 -12 7 0 7 -7 -1
-21 -8 -15 -8 -19 0 -15 24 15 9 -20 -21 -51 -38 -39 -46 -40 -82 -9 -22 18
-28 32 -28 62 0 53 5 75 22 102 21 32 51 27 78 -11z"/>
<path d="M7805 5386 c-41 -18 -83 -66 -95 -105 -13 -48 8 -91 70 -140 28 -23
47 -41 40 -41 -6 0 -8 -5 -5 -10 4 -6 2 -17 -4 -24 -9 -10 -8 -15 4 -20 9 -3
13 -10 10 -16 -3 -5 -2 -10 4 -10 6 0 8 -7 4 -16 -5 -13 0 -14 33 -8 22 3 48
11 59 17 18 10 19 11 2 15 -10 2 -24 -2 -32 -8 -9 -7 -15 -8 -15 -2 0 5 10 17
23 25 l22 16 -25 1 -25 1 23 11 c31 15 28 29 -5 23 l-28 -5 27 13 c70 33 123
116 107 169 -13 48 -36 76 -77 96 -55 28 -84 32 -117 18z"/>
<path d="M2791 5695 c9 -9 41 -26 70 -36 l54 -19 -55 6 c-30 4 -56 10 -58 15
-6 14 -22 11 -22 -4 0 -8 24 -26 53 -42 28 -15 60 -35 70 -43 15 -13 17 -13
17 0 0 13 9 14 73 3 39 -7 115 -15 167 -19 104 -7 140 -14 140 -27 0 -5 26 -9
58 -10 31 0 84 -5 117 -10 33 -5 94 -14 135 -20 41 -5 93 -12 115 -15 95 -12
130 -14 110 -5 -11 5 -14 10 -7 10 6 1 12 5 12 10 0 17 -101 39 -225 50 -150
14 -255 30 -255 41 0 4 -34 8 -76 9 -42 1 -96 9 -121 17 -25 9 -47 14 -49 11
-8 -8 -168 30 -234 56 -115 44 -107 42 -89 22z"/>
<path d="M8635 5619 c-4 -6 -5 -12 -2 -15 2 -2 -10 -19 -27 -37 -17 -18 -55
-82 -85 -143 -50 -102 -54 -114 -56 -191 -2 -46 1 -83 6 -83 5 0 9 8 10 18 2
52 13 101 39 174 37 107 79 198 79 176 1 -11 6 -15 16 -12 18 7 18 5 0 -80
-16 -82 -10 -153 15 -166 15 -8 18 -3 22 33 5 41 19 74 86 197 28 52 31 64 20
77 -7 9 -12 19 -10 22 1 3 -10 8 -25 9 -15 2 -36 10 -47 18 -24 17 -33 17 -41
3z"/>
<path d="M1185 5380 c3 -5 12 -10 19 -10 8 0 19 -7 26 -15 10 -12 7 -13 -22
-5 -18 6 -35 10 -38 10 -12 -1 70 -41 135 -66 39 -15 74 -31 80 -35 21 -20
-23 -6 -137 42 -65 28 -124 48 -131 46 -7 -2 12 -13 41 -23 28 -10 52 -24 52
-30 0 -6 25 -19 55 -29 30 -11 66 -28 79 -40 14 -12 56 -32 95 -45 39 -13 71
-28 71 -33 0 -5 -6 -7 -14 -4 -8 3 -16 2 -18 -3 -4 -12 -48 -1 -48 12 0 5 10
6 23 2 12 -3 19 -4 16 0 -13 13 -133 39 -136 29 -2 -6 -23 -5 -55 3 -28 8 -53
12 -56 10 -2 -3 16 -10 39 -16 68 -17 78 -23 49 -28 -34 -6 75 -29 136 -28 24
1 44 -2 44 -5 0 -4 11 -10 24 -13 13 -3 32 -9 43 -13 17 -6 17 -6 1 10 -9 9
-24 17 -33 17 -9 0 -15 5 -13 12 6 16 46 17 52 1 4 -11 10 -11 26 -3 11 6 18
15 15 21 -9 13 8 11 43 -7 18 -8 36 -12 42 -9 13 8 2 27 -13 22 -11 -3 -44 10
-192 77 -27 13 -83 38 -123 56 -47 22 -68 36 -60 41 17 11 6 19 -32 24 -18 3
-40 11 -50 20 -18 17 -45 21 -35 5z"/>
<path d="M1270 4911 c10 -7 1 -11 -30 -14 l-45 -4 53 -1 c33 -1 51 2 47 8 -3
6 -1 10 4 10 6 0 11 -6 11 -13 0 -10 17 -14 58 -15 90 -3 162 -13 162 -23 0
-10 -73 -5 -200 12 -36 4 -69 4 -74 -1 -4 -4 21 -11 58 -15 36 -4 66 -12 66
-18 0 -7 3 -8 10 -1 6 6 38 7 82 3 73 -8 252 -10 233 -4 -5 2 -45 6 -87 10
-78 7 -104 21 -48 27 l30 3 -25 12 c-14 6 -23 7 -20 3 7 -11 -56 -10 -70 0 -5
5 -29 7 -52 7 -22 -1 -39 1 -37 4 5 9 -49 19 -100 19 -29 0 -37 -3 -26 -9z"/>
<path d="M8075 4593 c-111 -38 -198 -52 -327 -53 -57 0 -122 -8 -190 -25 -142
-35 -229 -32 -402 10 -12 3 -3 -4 19 -15 22 -11 53 -20 68 -20 15 0 53 -11 85
-24 102 -42 151 -49 218 -32 32 8 97 20 144 25 47 6 114 20 149 31 44 14 68
17 75 10 17 -17 28 -13 157 60 68 38 120 69 114 69 -5 -1 -55 -17 -110 -36z"/>
<path d="M1829 4451 c38 -24 7 -62 -46 -56 -13 1 -23 -2 -23 -6 0 -5 -7 -9
-16 -9 -35 0 -4 25 34 28 42 3 55 15 28 25 -7 3 -31 2 -52 -3 -33 -7 -175 -30
-289 -47 -16 -2 -46 -11 -65 -20 -19 -9 -48 -20 -65 -24 -23 -6 -18 -7 20 -4
l50 4 -65 -19 c-52 -15 -57 -19 -25 -15 22 2 63 6 90 9 49 5 50 5 20 -9 -16
-8 -41 -15 -55 -15 -14 -1 -34 -6 -45 -11 -13 -6 1 -7 45 -4 39 3 60 2 52 -4
-11 -7 -11 -9 1 -14 8 -3 18 -3 22 1 4 4 10 7 13 7 34 3 89 20 115 36 18 10
37 19 44 19 6 0 24 5 40 12 15 6 31 12 36 13 4 2 8 4 10 5 1 1 11 4 22 6 11 1
47 12 81 24 57 21 60 23 56 51 -3 22 -10 29 -26 29 -16 0 -18 -2 -7 -9z"/>
<path d="M3441 4237 c-6 -6 -11 -15 -11 -20 0 -4 -23 -31 -51 -60 -41 -41 -52
-48 -60 -37 -8 12 -9 10 -4 -7 5 -18 -2 -25 -40 -44 -25 -12 -45 -27 -45 -31
0 -5 -4 -7 -9 -4 -10 7 -44 -28 -35 -36 3 -4 -5 -9 -18 -13 -22 -8 -68 -49
-68 -63 0 -4 -23 -18 -50 -31 -27 -14 -47 -28 -45 -31 5 -8 -25 -23 -105 -52
-61 -23 -84 -38 -57 -38 10 0 52 16 93 35 41 19 82 35 92 35 24 0 44 15 40 30
-2 7 3 15 10 17 8 3 10 -1 6 -11 -5 -12 -2 -15 10 -10 10 4 15 13 11 21 -3 10
-1 13 9 10 8 -3 27 5 43 19 19 17 22 22 9 18 -14 -5 -17 -4 -12 5 4 6 16 9 27
6 11 -4 19 -2 19 4 0 6 8 11 18 11 13 0 11 -5 -10 -24 -15 -12 -25 -25 -23
-28 5 -5 -19 -31 -50 -53 -20 -14 -20 -14 3 -10 12 2 22 1 22 -3 0 -11 -34
-39 -70 -57 -17 -9 -28 -20 -25 -25 3 -4 -11 -18 -30 -30 -19 -12 -35 -23 -35
-25 0 -2 16 1 36 7 36 10 61 4 31 -8 -13 -4 -14 -9 -4 -19 9 -10 14 -10 22 1
5 7 31 24 57 37 44 24 47 24 37 5 -6 -11 -30 -32 -55 -46 -24 -15 -44 -31 -44
-36 0 -5 7 -3 15 4 10 8 15 9 15 1 0 -6 -12 -14 -27 -17 -16 -4 -57 -23 -92
-42 -35 -19 -78 -36 -96 -37 -58 -4 -175 -86 -147 -104 9 -6 7 -15 -10 -37
-12 -16 -27 -32 -32 -36 -6 -4 1 -16 15 -28 21 -18 32 -20 89 -15 63 6 238 42
212 44 -7 1 -69 -8 -139 -19 -79 -13 -130 -17 -136 -11 -6 6 13 14 49 21 96
19 155 36 229 68 85 35 185 91 185 102 0 4 7 11 15 14 14 5 14 3 1 -15 -8 -11
-24 -27 -35 -36 -12 -8 -19 -18 -16 -23 3 -5 1 -11 -4 -14 -5 -4 -12 -2 -16 4
-4 6 -21 1 -43 -13 -20 -13 -49 -28 -64 -35 -29 -12 -40 -36 -13 -26 9 4 15 0
15 -7 0 -10 3 -10 8 -3 4 6 20 14 37 18 l30 8 -22 -20 c-13 -10 -43 -27 -69
-37 -57 -22 -52 -31 7 -11 24 8 45 13 47 11 7 -7 -64 -39 -138 -61 -41 -12
-68 -23 -59 -23 33 -2 174 40 217 64 54 30 69 33 24 3 -24 -15 -30 -23 -20
-29 8 -5 -1 -14 -32 -28 -25 -11 -52 -21 -60 -21 -8 0 -22 -5 -30 -11 -11 -8
-6 -9 20 -4 44 8 159 57 160 68 0 5 -9 5 -20 2 -33 -10 -23 1 24 29 25 14 51
32 58 39 15 14 66 49 88 62 8 4 -3 -11 -25 -34 -22 -23 -59 -51 -84 -63 -40
-19 -42 -22 -23 -29 20 -8 31 -21 15 -17 -5 0 -17 -3 -28 -8 -18 -8 -17 -9 10
-15 l30 -6 -30 -13 c-16 -7 -46 -19 -65 -26 -30 -11 -31 -13 -11 -14 24 0 24
0 5 -15 -10 -8 -14 -15 -9 -15 6 0 -9 -10 -32 -21 -37 -17 -181 -49 -238 -53
-40 -2 -48 -17 -20 -32 34 -17 36 -17 29 -1 -5 15 40 32 111 42 22 4 66 13 99
21 85 22 79 11 -10 -16 -114 -33 -83 -34 42 0 60 16 114 29 119 29 13 -1 -110
-45 -210 -75 l-80 -24 100 4 c73 3 93 1 72 -6 -15 -5 -25 -14 -21 -19 3 -5 -5
-9 -17 -9 -12 0 -20 -3 -16 -6 5 -5 174 27 225 42 14 4 13 3 -1 -6 -15 -10
-171 -56 -214 -64 -7 -1 -16 -6 -20 -10 -8 -8 17 -4 92 13 22 5 63 14 90 19
56 12 135 39 209 71 68 30 42 0 -33 -39 -31 -16 -63 -37 -72 -47 -8 -11 -41
-25 -73 -32 -32 -7 -55 -15 -53 -18 7 -7 154 32 229 61 99 38 106 39 53 10
-27 -15 -84 -41 -125 -56 -41 -16 -62 -26 -45 -23 112 23 451 171 498 218 18
18 37 20 40 2 5 -24 -187 -136 -333 -196 -78 -31 -25 -21 75 16 52 19 95 30
95 26 0 -11 -122 -57 -215 -81 -38 -11 -59 -19 -47 -19 44 -1 227 58 317 102
22 10 36 15 30 9 -12 -13 -191 -102 -203 -102 -5 0 -15 -7 -22 -15 -19 -22
120 29 221 82 47 24 111 64 143 86 94 69 169 114 199 119 15 3 27 2 27 -2 0
-4 -36 -42 -80 -84 -44 -42 -73 -76 -65 -76 8 0 15 5 15 10 0 6 7 10 16 10 9
0 27 11 40 25 24 26 44 33 44 15 0 -13 -132 -105 -202 -141 -32 -16 -58 -31
-58 -33 0 -11 97 21 167 56 44 22 86 37 92 34 6 -4 24 0 40 9 29 14 30 14 28
-7 -2 -27 -57 -63 -187 -119 -103 -45 -126 -67 -29 -28 30 12 63 23 74 25 11
1 21 3 23 4 1 2 5 3 10 5 12 3 64 25 73 31 5 3 9 1 9 -4 0 -22 -357 -137 -398
-128 -20 5 -23 4 -12 -4 13 -9 13 -10 0 -10 -13 0 -13 -1 0 -10 8 -5 17 -6 20
-2 3 4 23 7 45 8 22 0 93 4 158 9 88 6 117 11 117 21 0 8 7 14 15 14 8 0 29 9
47 20 42 25 21 25 -60 0 -63 -20 -101 -26 -89 -14 3 3 63 21 134 39 70 18 145
40 165 49 59 25 68 18 13 -9 -27 -14 -41 -23 -30 -19 72 22 157 54 194 73 23
12 45 20 48 18 7 -7 -51 -45 -109 -72 -73 -33 -45 -31 38 3 84 34 174 86 278
160 43 32 83 56 88 54 14 -4 68 44 60 53 -4 5 -1 5 5 1 8 -4 44 24 95 74 130
127 379 347 446 393 33 23 88 66 121 95 34 30 61 49 61 43 0 -23 18 -10 31 22
18 45 80 119 95 113 7 -3 25 12 40 32 15 20 54 67 86 103 31 36 55 69 51 73
-3 3 1 6 10 6 10 0 17 7 17 15 0 8 -4 15 -10 15 -5 0 -10 -4 -10 -10 0 -5 -8
-10 -18 -10 -9 0 -23 -9 -30 -21 -11 -17 -16 -19 -29 -7 -15 11 -16 11 -10 -4
4 -12 1 -18 -9 -18 -8 0 -17 7 -20 15 -5 11 -11 12 -24 5 -23 -12 -33 -13 -26
-1 17 27 -45 34 -142 16 -24 -4 -32 -2 -26 6 5 9 1 10 -14 7 -12 -4 -22 -1
-22 4 0 7 -4 7 -12 1 -14 -11 -110 -5 -104 6 3 4 -11 5 -29 3 -22 -3 -32 -8
-29 -17 3 -7 1 -16 -5 -20 -7 -3 -8 0 -5 9 4 11 0 16 -10 16 -9 0 -16 5 -16
11 0 5 -5 7 -10 4 -6 -4 -17 -2 -25 5 -10 8 -15 8 -21 -1 -5 -9 -10 -8 -19 5
-11 15 -13 14 -19 -9 -7 -28 -25 -34 -22 -8 1 22 -67 27 -105 8 -28 -15 -53
-6 -44 16 3 9 1 26 -5 40 -10 22 -10 21 -5 -10 5 -32 4 -33 -23 -28 -16 3 -40
0 -53 -7 -29 -15 -50 -10 -42 10 3 8 0 14 -6 14 -6 0 -11 -4 -11 -9 0 -5 -17
-7 -39 -4 -24 3 -41 1 -46 -7 -5 -8 -15 -5 -33 12 -15 13 -20 15 -13 6 12 -16
11 -18 -7 -18 -12 0 -24 5 -27 10 -4 6 -11 7 -17 4 -6 -4 -14 0 -19 7 -6 10
-9 10 -9 2 0 -7 -6 -10 -14 -7 -7 3 -20 -2 -29 -10 -19 -19 -31 -21 -24 -3 3
7 -2 24 -9 38 -13 21 -14 22 -9 2 9 -32 -20 -44 -63 -26 -28 12 -36 12 -45 1
-7 -8 -20 -20 -30 -27 -15 -12 -17 -12 -11 3 3 9 1 16 -6 16 -6 0 -18 6 -25
14 -12 11 -28 13 -102 7 -7 -1 -12 -6 -10 -13 1 -6 -7 -13 -18 -15 -16 -3 -17
-2 -5 6 12 8 12 13 2 23 -13 13 -94 19 -86 7 5 -9 -31 -40 -38 -33 -3 3 -11
-11 -18 -31 -7 -22 -16 -33 -21 -28 -5 5 -1 25 10 49 23 46 20 54 -20 54 -17
0 -28 -4 -25 -9 3 -5 -4 -11 -17 -15 -12 -3 -24 -1 -26 5 -2 6 -10 1 -18 -11
-8 -12 -12 -24 -8 -28 3 -3 10 0 15 8 6 8 10 10 10 4 0 -5 -9 -20 -20 -32 -12
-12 -18 -22 -14 -22 3 0 1 -7 -6 -15 -21 -25 -30 -17 -14 13 12 24 12 27 -2
30 -11 3 -12 7 -4 17 9 10 7 16 -9 25 -19 9 -25 5 -58 -47 -21 -32 -48 -80
-61 -108 -14 -27 -26 -45 -29 -38 -2 7 0 21 6 32 8 14 8 20 -1 23 -8 3 -5 17
10 45 15 30 18 43 9 47 -9 3 -8 7 3 15 12 8 12 11 1 11 -9 0 -11 7 -7 23 4 18
0 16 -20 -11 -15 -19 -32 -31 -40 -28 -8 3 -14 1 -14 -4 0 -6 4 -10 9 -10 6 0
-6 -27 -25 -61 -18 -33 -34 -65 -34 -70 0 -5 -5 -9 -11 -9 -6 0 -8 7 -5 15 17
42 16 47 -3 16 -33 -50 -37 -29 -7 34 14 31 26 62 26 70 0 9 5 23 11 34 8 12
9 23 2 36 -7 12 -13 14 -17 6 -4 -6 -2 -11 4 -11 6 0 8 -5 5 -10 -4 -6 -11 -7
-17 -4 -7 5 -9 1 -5 -9 4 -10 -4 -27 -21 -46 -15 -16 -40 -47 -57 -69 -16 -23
-36 -41 -44 -42 -8 0 -24 -8 -35 -17 -20 -17 -20 -17 -7 0 7 9 10 17 5 17 -5
0 -4 4 2 8 15 10 45 73 39 83 -3 4 4 13 15 19 11 6 20 15 20 21 0 11 -70 -38
-83 -58 -4 -7 -14 -13 -22 -13 -9 0 -12 -6 -9 -15 4 -9 0 -15 -9 -15 -8 0 -27
-13 -40 -30 -15 -18 -32 -28 -40 -24 -13 5 -13 9 1 37 8 18 21 36 29 40 7 4
13 15 13 22 0 8 7 15 15 15 9 0 12 6 9 15 -4 8 -1 15 6 15 6 0 8 5 5 10 -3 6
1 10 9 10 9 0 16 7 16 16 0 14 -1 14 -16 0 -8 -9 -19 -16 -23 -16 -3 0 -15
-14 -25 -31 -12 -20 -21 -27 -26 -20 -5 9 -10 8 -20 -3 -7 -9 -16 -14 -20 -11
-5 3 -12 -4 -15 -16 -5 -14 -13 -19 -26 -16 -12 3 -20 -2 -24 -14 -4 -11 -16
-19 -28 -19 -18 0 -19 -2 -7 -10 15 -9 16 -9 -35 -25 -8 -2 -15 -3 -15 -1 0 8
151 156 160 156 5 0 10 6 10 13 0 13 20 30 59 50 14 7 26 19 28 27 4 13 3 13
-6 0 -6 -8 -11 -10 -11 -5 0 15 -35 16 -49 2z m-418 -659 c-13 -6 -23 -17 -23
-24 0 -7 -8 -14 -17 -16 -11 -2 -14 -6 -7 -10 6 -4 28 2 48 13 21 11 40 18 43
16 6 -7 -48 -47 -63 -47 -8 0 -14 -5 -14 -12 0 -6 -3 -8 -6 -5 -4 4 -19 -2
-33 -12 -14 -10 -46 -25 -71 -32 -25 -7 -49 -19 -53 -26 -4 -7 -15 -13 -24
-13 -9 0 -14 -3 -11 -6 8 -8 202 65 207 78 2 6 6 6 11 -1 11 -19 93 17 85 38
-3 8 -3 12 1 8 4 -4 18 0 31 8 13 9 23 13 23 10 0 -14 -68 -66 -100 -76 -19
-7 -56 -23 -82 -36 -44 -23 -227 -67 -237 -58 -7 8 5 16 27 18 14 1 18 5 12
12 -15 18 10 40 58 54 23 6 42 16 42 20 0 5 -20 3 -45 -5 -38 -11 -45 -11 -45
0 0 8 17 25 38 37 50 32 52 32 52 19 0 -6 -19 -20 -42 -30 -47 -21 -40 -27 11
-9 17 6 31 15 31 20 0 11 137 77 160 78 9 0 5 -5 -7 -11z"/>
<path d="M5340 3553 c-24 -21 -44 -36 -45 -33 -1 5 -90 -71 -215 -185 -36 -33
-79 -71 -95 -85 -127 -109 -180 -150 -190 -146 -6 2 -22 -5 -36 -16 -13 -11
-18 -16 -10 -12 9 4 12 3 7 -4 -4 -6 -13 -9 -21 -5 -8 3 -15 0 -15 -7 0 -6 -4
-9 -9 -6 -5 4 -11 3 -13 -2 -3 -7 -52 -40 -163 -109 -88 -56 -381 -150 -428
-139 -12 3 -16 3 -9 0 6 -3 12 -12 12 -20 0 -16 -3 -16 80 -4 36 5 107 27 157
49 51 22 105 42 121 46 48 10 380 217 483 301 87 71 261 224 327 288 51 49
118 126 110 126 -3 0 -24 -17 -48 -37z"/>
<path d="M5603 3377 c-208 -140 -385 -253 -465 -297 -73 -39 -100 -60 -60 -46
14 5 14 4 -2 -9 -23 -18 -40 -20 -30 -4 4 6 -4 5 -17 -2 l-24 -14 28 -3 c18
-2 51 10 93 33 78 44 97 41 25 -4 -50 -30 -72 -53 -30 -31 11 7 23 9 26 6 3
-3 35 22 72 56 87 81 277 206 426 281 66 33 114 62 108 64 -7 3 -52 -16 -99
-41 -48 -26 -89 -45 -91 -43 -2 3 35 32 82 66 47 34 85 64 85 67 0 6 5 9 -127
-79z"/>
<path d="M2795 3311 c-47 -4 -79 -13 -97 -26 -32 -23 -35 -35 -10 -35 10 0 27
-6 38 -14 16 -13 17 -18 6 -36 -22 -37 2 -52 108 -65 26 -4 30 -3 15 4 -18 8
-15 11 25 29 l45 20 -70 -4 c-38 -3 -78 -7 -87 -9 -10 -2 -18 0 -18 5 0 9 105
22 197 24 34 1 65 5 68 8 7 7 -160 1 -197 -8 -32 -6 -35 2 -11 28 16 18 16 19
-10 9 -24 -9 -32 -7 -54 13 l-26 24 39 11 c21 6 59 11 84 12 25 1 56 5 70 9
22 7 21 8 -10 7 -19 0 -66 -3 -105 -6z"/>
<path d="M3940 3061 c-126 -68 -414 -203 -460 -215 -30 -9 -73 -14 -95 -11
-117 12 -152 16 -167 21 -10 3 -18 1 -18 -5 0 -6 7 -11 15 -11 9 0 27 -7 41
-16 19 -13 38 -15 86 -10 47 5 65 3 77 -8 11 -10 48 -17 111 -20 52 -2 83 -2
67 0 -16 3 -25 10 -21 16 5 8 -1 9 -17 5 -29 -8 -130 3 -124 13 2 4 21 10 42
13 21 4 74 21 118 39 115 46 373 179 379 195 7 16 8 16 -34 -6z"/>
</g>
</svg>
