<?xml version="1.0" standalone="no"?>
<!DOCTYPE svg PUBLIC "-//W3C//DTD SVG 20010904//EN"
 "http://www.w3.org/TR/2001/REC-SVG-20010904/DTD/svg10.dtd">
<svg version="1.0" xmlns="http://www.w3.org/2000/svg"
 width="1024.000000pt" height="512.000000pt" viewBox="0 0 1024.000000 512.000000"
 preserveAspectRatio="xMidYMid meet">
<metadata>
Created by potrace 1.16, written by Peter Selinger 2001-2019
</metadata>
<g transform="translate(0.000000,512.000000) scale(0.100000,-0.100000)"
fill="#000000" stroke="none">
<path d="M5565 4272 c-282 -138 -573 -335 -871 -589 l-122 -103 -103 17 c-87
15 -176 17 -549 17 -245 0 -539 -5 -655 -12 -995 -58 -1275 -102 -1865 -288
-525 -166 -915 -299 -1005 -342 -134 -65 -330 -215 -376 -288 -23 -38 -25 -94
-3 -137 47 -92 186 -234 307 -315 240 -160 458 -239 782 -281 88 -11 197 -27
241 -35 45 -9 162 -20 260 -26 246 -15 382 -34 569 -80 272 -67 338 -91 460
-170 133 -85 202 -119 347 -171 124 -44 108 -48 200 38 31 29 67 57 80 62 13
5 73 12 134 16 160 10 176 26 44 45 -40 6 -77 13 -82 16 -5 3 6 17 26 30 25
18 49 24 85 24 39 0 51 4 51 15 0 9 7 27 16 40 l16 25 -73 1 c-41 0 -82 4 -92
7 -15 7 -13 12 18 42 44 42 44 53 1 45 -30 -6 -36 -3 -66 35 l-33 42 26 26 27
26 38 -37 c59 -57 82 -45 42 21 -19 30 -19 35 -5 62 19 36 44 38 73 7 29 -31
28 -36 -13 -96 -19 -28 -35 -54 -35 -59 0 -15 35 -42 54 -42 13 0 16 8 14 36
-3 32 1 38 34 57 33 20 39 20 52 7 8 -8 18 -27 21 -42 6 -25 2 -30 -39 -55
-51 -32 -58 -54 -21 -71 37 -17 45 -15 45 11 0 16 14 35 41 57 40 32 43 32 55
15 8 -10 14 -30 14 -44 0 -44 14 -57 43 -42 23 12 29 10 79 -28 32 -24 66 -41
81 -41 38 0 34 24 -7 49 -43 27 -51 47 -31 77 27 42 65 24 65 -31 l0 -31 58 1
c53 0 57 2 60 25 7 46 30 61 80 54 l45 -7 -7 33 c-8 41 7 60 45 60 54 0 49
-83 -7 -109 -29 -13 -31 -37 -5 -51 31 -16 49 -12 56 13 4 12 18 37 32 55 23
30 26 31 46 17 32 -23 40 -18 34 19 -4 28 -1 40 19 61 20 21 27 24 44 15 24
-13 26 -49 4 -91 -8 -17 -13 -33 -11 -36 3 -2 23 1 45 6 51 14 69 7 87 -36 12
-29 19 -34 38 -29 16 4 26 -1 35 -14 14 -24 52 -27 52 -5 0 9 -12 20 -26 25
l-26 10 23 19 c13 10 38 25 55 34 41 21 54 8 54 -55 0 -26 4 -48 9 -48 28 0
115 68 133 104 l21 40 41 -47 c22 -26 48 -47 57 -47 19 0 98 50 123 78 46 52
86 4 42 -49 -30 -35 -33 -57 -10 -66 10 -4 20 1 27 13 29 52 107 97 107 61 0
-7 6 -22 14 -32 12 -16 18 -17 39 -8 21 10 30 8 58 -13 56 -41 73 -30 42 25
-17 28 -17 31 -1 47 15 15 18 15 39 0 22 -15 69 -22 69 -11 0 3 -6 14 -12 25
-11 18 -6 26 47 80 84 85 131 116 150 100 20 -16 19 -50 -1 -78 -15 -21 -21
-23 -72 -16 l-56 7 17 -26 c9 -15 17 -40 17 -58 0 -26 3 -30 18 -24 49 21 71
18 89 -14 19 -32 53 -42 53 -15 0 26 -19 53 -50 69 l-29 15 47 49 c38 38 49
45 56 33 5 -8 4 -30 -3 -52 -6 -20 -11 -40 -11 -44 0 -16 56 -3 116 27 64 31
66 32 80 13 8 -11 14 -30 14 -43 0 -30 11 -29 95 12 73 35 85 36 85 4 0 -15 7
-19 33 -19 17 0 39 5 47 10 12 7 8 15 -23 44 l-39 35 23 33 c12 18 24 35 26
37 1 2 12 -4 23 -14 16 -14 19 -26 14 -56 -7 -44 2 -49 40 -23 23 14 25 14 40
-8 9 -12 16 -28 16 -35 0 -6 10 -19 22 -27 33 -24 14 -31 -35 -12 -54 20 -60
20 -52 -3 5 -18 1 -19 -77 -14 -46 3 -91 10 -101 15 -18 9 -77 -9 -77 -24 0
-5 -16 -8 -36 -8 -29 0 -35 -3 -30 -16 5 -13 1 -15 -21 -9 -16 4 -28 7 -28 8
-9 30 -28 57 -40 57 -18 0 -19 -12 -3 -28 14 -14 16 -11 -42 -45 -25 -15 -56
-36 -69 -47 l-25 -21 134 -134 c108 -108 138 -133 160 -133 33 1 638 -307 675
-343 17 -17 -19 -10 -110 21 -98 33 -105 34 -105 20 0 -5 30 -25 68 -44 153
-79 189 -121 42 -51 -154 75 -453 264 -615 390 -44 34 -124 110 -178 169 -110
119 -115 121 -199 81 -57 -26 -378 -76 -606 -95 -141 -11 -201 -2 -311 49 -47
22 -110 45 -139 50 -92 19 -120 35 -128 75 -7 41 -18 46 -34 16 -11 -20 -12
-20 -70 12 -33 18 -63 29 -67 24 -4 -4 16 -30 46 -56 l54 -48 -54 1 c-45 2
-54 -1 -53 -15 1 -11 -18 -23 -64 -40 -77 -28 -89 -45 -35 -50 27 -2 39 -8 41
-21 3 -16 -19 -17 -362 -17 -334 0 -436 -7 -338 -24 20 -3 196 -9 389 -13
l353 -6 31 -48 c66 -104 305 -309 360 -309 19 0 45 35 55 74 5 23 3 26 -20 26
-15 0 -41 7 -59 16 -41 21 -142 102 -187 149 -32 34 -29 33 48 -19 170 -115
266 -148 320 -110 12 8 27 12 33 9 6 -4 20 2 32 13 12 11 65 37 117 58 93 36
126 41 230 31 17 -1 25 3 25 13 0 10 -39 31 -112 60 -62 24 -113 47 -113 50 0
4 45 12 101 18 55 7 184 26 286 43 102 16 189 26 192 22 3 -5 50 -72 103 -150
167 -241 266 -333 588 -547 197 -131 270 -176 287 -176 6 0 33 18 61 40 72 58
115 129 136 225 10 44 24 100 32 125 18 54 20 52 -110 109 -177 77 -199 64
-40 -25 173 -97 97 -74 -129 39 -334 166 -457 241 -582 352 -23 21 8 4 73 -40
62 -41 117 -75 122 -75 20 0 9 20 -27 49 -21 17 -49 40 -63 52 l-25 21 27 -16
c124 -74 312 -173 484 -256 112 -54 218 -108 234 -120 17 -12 34 -19 38 -15
10 9 8 208 -2 275 -13 85 -46 113 -266 229 -76 40 -128 72 -120 75 8 3 49 12
90 20 356 74 689 79 1220 16 461 -55 451 -53 575 -114 193 -96 489 -203 1074
-387 447 -141 591 -177 591 -149 0 5 9 18 21 29 19 17 20 23 9 58 -7 21 -27
70 -46 110 -22 47 -29 73 -22 75 12 4 -52 68 -101 101 -42 28 -131 52 -381
102 -228 45 -494 105 -555 124 -29 9 -29 9 13 10 24 1 41 5 38 10 -9 14 -302
81 -425 97 -44 6 -53 4 -49 -7 4 -11 -4 -13 -40 -10 -51 4 -51 -10 1 -34 24
-11 26 -13 7 -9 -82 20 -110 60 -88 127 19 60 41 55 51 -11 l9 -52 64 56 c35
31 80 78 99 104 19 26 46 55 59 64 23 15 25 14 31 -3 8 -26 -2 -47 -32 -60
-38 -17 -15 -36 81 -67 190 -60 326 -81 326 -49 0 10 8 13 28 9 15 -2 120 -18
233 -33 113 -16 222 -36 243 -45 47 -20 67 -20 60 -2 -12 32 -179 82 -459 136
-272 53 -444 73 -430 50 3 -5 2 -10 -3 -10 -5 0 -9 36 -9 80 -1 70 1 82 19 91
29 16 48 4 48 -31 0 -18 6 -33 15 -36 20 -8 19 -24 -1 -24 -26 0 -12 -33 18
-41 14 -4 64 -9 110 -13 79 -5 82 -5 53 10 -29 14 -28 15 40 10 39 -3 152 -15
252 -28 101 -12 186 -18 190 -14 9 9 -9 38 -27 44 -8 3 -10 0 -5 -8 5 -9 4
-11 -3 -6 -7 4 -12 23 -12 42 0 19 -6 43 -12 54 -10 16 -10 24 0 40 6 11 12
29 12 40 0 18 -6 20 -75 20 -43 0 -75 -4 -75 -10 0 -5 15 -10 33 -10 40 0 73
-21 62 -40 -6 -10 -28 -11 -91 -6 -94 7 -134 19 -134 40 0 8 -8 16 -17 18 -19
4 168 52 246 64 41 7 43 6 36 -15 -10 -32 16 -27 52 12 17 17 47 58 67 89 20
31 54 72 77 90 71 57 188 163 209 190 11 15 49 44 84 66 63 40 109 89 139 148
9 17 23 36 31 44 9 7 25 31 36 54 11 22 36 66 55 96 21 34 35 68 35 88 l0 32
-107 0 c-128 0 -222 -20 -523 -110 -805 -239 -1021 -296 -1185 -311 -211 -20
-688 7 -1015 57 -91 14 -291 43 -445 65 -247 35 -668 113 -825 153 -71 18
-246 71 -285 86 l-30 12 25 13 c14 8 89 40 168 71 139 57 188 86 176 105 -3 5
-14 65 -24 132 -30 196 -38 229 -70 292 -16 33 -37 90 -46 128 -9 37 -22 67
-28 67 -21 -1 -95 -39 -155 -79 -57 -39 -89 -76 -77 -88 2 -3 45 18 93 46 93
54 146 69 108 32 -11 -11 -95 -69 -186 -129 -91 -60 -221 -150 -290 -199 -68
-49 -139 -100 -158 -113 l-34 -24 23 32 c27 36 22 49 -12 31 l-23 -12 20 23
c63 70 500 404 595 454 69 36 92 62 65 72 -22 9 -120 -49 -435 -256 -157 -104
-316 -202 -355 -219 l-70 -31 45 41 c115 103 565 436 675 501 37 21 59 28 83
24 17 -3 32 -1 32 3 0 17 -102 125 -151 159 -30 20 -55 40 -57 45 -9 20 -70 1
-197 -61z m175 33 c0 -2 -38 -25 -85 -51 -81 -45 -107 -74 -67 -74 11 0 43 13
73 30 92 51 78 33 -20 -25 -101 -60 -368 -237 -548 -364 -61 -44 -109 -73
-106 -65 10 26 -34 15 -82 -22 -92 -70 -32 -13 83 79 240 192 489 365 646 448
87 47 106 54 106 44z m89 -91 c-7 -8 -26 -22 -43 -31 -34 -17 -86 -62 -86 -75
0 -11 34 -10 46 1 13 14 126 63 120 52 -3 -4 -38 -28 -78 -51 -88 -52 -451
-296 -626 -421 -97 -69 -118 -81 -88 -50 47 48 42 62 -10 31 -66 -38 -18 6
146 134 383 301 563 425 614 426 16 0 16 -2 5 -16z m180 -360 c-7 -8 -43 -35
-80 -59 -118 -76 -108 -93 22 -35 129 58 138 37 13 -30 -121 -64 -342 -202
-454 -282 -80 -57 -82 -58 -54 -22 61 78 168 176 303 278 171 128 293 202 250
150z m7 -179 c-38 -25 -73 -45 -78 -45 -4 0 -8 -4 -8 -10 0 -16 22 -12 90 16
65 26 107 26 79 -1 -13 -13 -467 -284 -513 -306 -12 -6 -7 2 12 18 63 54 33
58 -53 7 -74 -44 -59 -28 68 70 214 166 415 296 457 296 8 0 -16 -21 -54 -45z
m83 -133 c-13 -10 -50 -33 -81 -51 -86 -48 -76 -70 12 -30 107 49 120 43 25
-11 -80 -46 -70 -68 15 -34 23 9 44 14 47 10 13 -13 -255 -116 -377 -145 -44
-10 -80 -17 -80 -15 0 4 319 218 387 259 62 37 91 47 52 17z m-4214 -226 c8
-27 15 -63 15 -78 0 -43 17 -68 45 -68 18 0 25 5 25 20 0 11 -4 20 -9 20 -14
0 -23 35 -15 64 9 37 20 24 27 -29 6 -56 14 -66 33 -41 17 25 32 12 16 -14 -9
-15 -8 -22 4 -35 9 -9 24 -15 33 -13 21 5 79 -98 127 -225 20 -51 51 -127 71
-170 51 -114 93 -291 93 -391 0 -75 -3 -89 -39 -162 -43 -88 -91 -143 -154
-176 -35 -19 -58 -23 -142 -23 -105 0 -160 16 -160 45 0 15 8 16 58 4 24 -6
27 -4 27 20 0 25 2 26 40 20 46 -7 49 0 18 34 -21 23 -22 25 -3 17 46 -17 55
-17 55 -1 0 10 -4 25 -9 35 -9 15 -5 18 26 19 47 2 53 9 23 32 l-25 20 26 0
c20 0 28 6 33 25 5 18 13 25 30 25 33 0 38 10 20 38 -16 24 -16 25 10 20 32
-6 32 -1 4 29 l-21 23 21 0 c25 0 27 8 10 45 -10 22 -9 27 8 39 18 14 18 15 1
34 -17 18 -17 20 5 34 l22 15 -24 32 c-19 27 -20 35 -9 42 8 5 18 9 22 9 5 0
-5 17 -22 37 -30 37 -32 53 -5 53 22 0 17 20 -11 42 -13 10 -43 55 -66 100
-46 87 -110 164 -116 138 -2 -9 17 -51 42 -95 72 -125 90 -196 89 -345 0 -104
-4 -135 -23 -181 -35 -92 -167 -229 -247 -256 -42 -15 -212 -28 -558 -43 -208
-9 -262 -15 -229 -27 13 -5 3 -53 -12 -53 -5 0 -14 13 -20 29 -12 36 -25 50
-25 28 0 -8 -5 -28 -11 -44 l-11 -28 -14 33 c-16 36 -33 42 -41 12 -7 -28 -20
-17 -27 26 -9 45 -27 40 -42 -12 -11 -41 -13 -39 -28 29 -8 34 -26 36 -26 3 0
-44 -18 -37 -24 9 -9 59 -36 63 -36 5 0 -22 -4 -40 -8 -40 -11 0 -32 46 -32
70 0 30 -14 24 -33 -12 -17 -33 -17 -32 -11 53 5 74 3 91 -14 126 -28 53 -148
165 -319 295 -76 59 -148 117 -158 128 l-19 21 28 -7 c27 -7 29 -6 22 20 -7
27 -6 27 47 -13 39 -30 63 -41 88 -41 l34 1 -37 30 c-72 59 -40 109 68 109
l62 0 -14 47 -14 47 23 -22 c40 -37 60 -25 36 21 -10 19 -7 18 18 -5 16 -16
33 -28 37 -28 4 0 5 19 1 43 -4 23 -3 38 1 34 5 -5 12 -57 15 -117 5 -96 8
-113 32 -149 32 -48 91 -89 144 -101 127 -29 260 92 237 216 -3 19 -31 68 -60
109 -30 40 -57 88 -60 107 -5 31 -4 32 10 14 8 -10 17 -23 19 -29 6 -19 27 4
27 29 0 27 15 32 24 9 10 -26 25 -16 28 18 l3 32 18 -32 c25 -46 37 -41 37 14
l0 46 35 -39 34 -39 1 45 0 44 29 -34 c35 -42 49 -34 34 20 -12 46 -6 50 27
15 32 -34 39 -31 33 15 -6 46 4 50 37 15 34 -36 50 -32 50 13 l1 37 29 -32
c16 -18 32 -33 36 -33 3 0 3 18 -1 40 -8 48 1 50 40 10 40 -42 59 -40 52 5 -8
52 0 42 18 -20 17 -56 28 -68 39 -39 10 25 7 94 -5 116 -6 11 -8 22 -6 25 8 7
42 -65 57 -121 8 -28 16 -43 18 -35 20 60 22 63 41 45 31 -29 44 -20 37 24 -7
48 -2 51 19 10 25 -49 38 -37 33 32 -3 37 -1 54 4 42 4 -10 17 -40 27 -66 22
-52 38 -59 65 -29 13 14 14 21 6 26 -16 10 -50 85 -49 110 l0 20 15 -20 c9
-11 27 -41 40 -67 13 -27 29 -48 34 -48 12 0 3 66 -16 125 -13 36 -12 38 1 20
9 -11 22 -42 30 -69z m8240 -136 c-16 -5 -106 -30 -200 -56 -93 -26 -280 -84
-415 -130 -135 -46 -281 -93 -325 -104 -76 -20 -386 -72 -392 -66 -2 1 70 24
160 51 89 26 332 103 540 172 208 68 402 127 430 132 70 12 243 12 202 1z
m-7269 -25 c19 -19 24 -34 22 -58 -6 -64 -88 -69 -143 -7 l-20 22 37 34 c45
41 70 43 104 9z m-292 -6 c51 -40 57 -96 13 -116 -18 -8 -28 -5 -57 17 -19 15
-48 34 -64 42 l-29 15 43 32 c51 37 59 38 94 10z m7565 -24 c-3 -2 -75 -23
-159 -45 -85 -22 -159 -45 -164 -50 -16 -16 19 -12 149 15 135 28 145 29 145
15 0 -5 -33 -19 -72 -31 -229 -66 -400 -121 -623 -199 -286 -100 -353 -120
-520 -154 -160 -32 -201 -39 -194 -32 3 3 64 18 135 32 136 27 176 44 109 45
-33 0 -22 6 70 34 61 19 218 75 350 125 519 197 670 248 744 249 19 1 32 -1
30 -4z m-7691 -65 c66 -40 65 -89 -3 -126 -32 -16 -37 -17 -45 -4 -5 8 -19 31
-32 50 l-24 35 21 32 c24 38 38 40 83 13z m1100 -2 c31 -31 7 -93 -45 -114
-33 -14 -36 -14 -57 8 -12 13 -31 28 -42 35 -18 12 -18 13 -1 23 9 6 29 22 45
35 29 26 80 33 100 13z m-2701 -93 c48 -20 71 -41 95 -89 43 -83 3 -182 -81
-206 -71 -20 -108 -13 -152 27 -50 45 -69 81 -69 130 0 56 32 100 93 128 61
29 67 30 114 10z m9213 11 c0 -2 -65 -30 -145 -61 -80 -31 -145 -61 -145 -67
0 -12 22 -8 135 26 44 13 82 22 84 21 9 -9 -15 -26 -66 -45 -78 -29 -795 -241
-800 -237 -2 2 34 20 79 39 46 20 202 87 348 150 232 100 376 156 445 171 27
6 65 8 65 3z m-6920 -31 c51 -26 49 -71 -6 -114 -23 -18 -29 -19 -53 -7 -14 8
-37 26 -51 41 l-25 27 39 34 c44 38 55 40 96 19z m271 -197 c10 -25 9 -33 -8
-56 -11 -15 -32 -31 -47 -37 -23 -8 -30 -5 -49 17 -12 14 -30 30 -40 35 -16 8
-14 12 15 42 18 18 42 37 53 41 29 10 62 -8 76 -42z m6412 -3 c-20 -14 -94
-39 -250 -85 -40 -11 -73 -25 -73 -30 0 -14 6 -13 115 11 95 21 126 19 93 -5
-14 -10 -535 -146 -560 -146 -14 0 38 47 67 62 81 42 567 207 610 208 19 0 19
-1 -2 -15z m-9458 -200 c133 -100 236 -193 265 -240 27 -44 24 -99 -5 -103
-39 -5 -88 39 -123 113 -26 54 -56 91 -140 175 -59 59 -134 130 -167 159 l-60
52 60 -37 c33 -20 110 -74 170 -119z m-197 68 c146 -114 330 -309 310 -328 -6
-7 -168 101 -277 184 -105 80 -151 126 -151 152 0 21 17 59 26 59 3 0 44 -30
92 -67z m9402 -93 c-8 -6 -65 -26 -127 -46 -152 -47 -164 -67 -27 -43 101 17
107 5 9 -19 -128 -30 -256 -46 -265 -33 -4 8 -44 7 -133 -2 -108 -11 -130 -16
-151 -36 -25 -23 -56 -25 -63 -4 -7 19 28 31 134 47 54 8 211 44 349 79 251
65 303 76 274 57z m-6823 -162 c24 -20 15 -66 -22 -107 -19 -21 -35 -42 -35
-46 0 -4 16 -25 35 -46 19 -22 35 -46 35 -55 0 -12 7 -14 29 -9 32 7 51 -13
51 -54 0 -16 -6 -21 -29 -21 -42 0 -61 10 -61 31 0 15 -5 18 -22 15 -58 -12
-238 -17 -238 -7 0 6 -15 11 -32 11 -18 1 -44 7 -56 14 -24 13 -23 13 27 45
57 37 78 35 83 -6 4 -37 52 -63 74 -41 16 16 9 48 -11 48 -7 0 -24 15 -39 34
l-26 35 23 35 c14 22 30 35 44 36 25 0 53 -34 53 -65 0 -11 5 -27 10 -35 9
-13 11 -13 20 0 16 25 11 73 -11 109 -20 34 -21 36 -3 65 9 17 22 34 27 38 11
7 54 -7 74 -24z m4073 -225 c0 -14 -9 -41 -21 -59 l-21 -34 28 0 c15 0 35 7
45 16 25 23 56 3 65 -41 6 -35 6 -35 60 -35 61 0 72 17 27 41 -16 7 -40 27
-55 44 l-26 30 21 38 21 37 28 -27 c24 -22 27 -32 22 -63 -6 -37 -6 -37 33
-43 28 -5 43 -14 53 -32 7 -14 17 -25 22 -25 15 0 8 73 -8 91 -14 16 -13 20
19 55 43 47 67 42 67 -15 0 -33 -5 -44 -30 -63 -16 -12 -30 -25 -30 -30 0 -16
55 -7 80 12 27 21 50 26 50 10 0 -27 41 -50 90 -50 46 0 67 12 38 23 -16 5 30
46 52 46 8 0 33 -13 54 -29 48 -37 75 -38 114 -5 38 32 42 31 77 -5 35 -37 54
-38 85 -5 28 30 51 32 75 5 24 -26 35 -25 33 3 -2 27 57 117 77 117 20 0 45
-28 45 -51 0 -11 -12 -36 -26 -55 -15 -19 -24 -37 -21 -40 3 -3 29 10 58 30
50 34 53 34 82 20 16 -9 31 -23 34 -33 2 -9 19 -21 36 -27 18 -6 40 -14 50
-19 14 -6 17 -2 17 18 0 14 -4 29 -10 32 -16 10 -12 23 10 35 48 26 89 -22 64
-72 -8 -16 -19 -28 -24 -28 -6 0 -10 -7 -10 -15 0 -20 34 -19 65 1 29 19 41
13 60 -32 9 -22 26 -40 47 -49 41 -18 14 -19 -47 -3 -38 10 -47 10 -61 -3 -13
-14 -22 -14 -64 -3 -27 7 -108 17 -182 24 -73 6 -230 22 -348 37 -181 22 -270
27 -557 30 -264 4 -343 8 -343 17 0 7 -24 39 -54 72 l-54 59 24 48 c22 42 27
46 44 37 12 -6 20 -21 20 -37z m-3874 -13 c19 -28 36 -41 59 -46 36 -6 69 -36
80 -71 7 -24 20 -30 30 -13 10 15 46 12 67 -7 18 -17 22 -41 12 -80 l-6 -22
-57 29 c-32 15 -74 32 -94 35 -27 5 -37 12 -37 26 0 16 -15 47 -37 78 -1 2 -9
-2 -17 -8 -22 -18 -52 2 -76 51 -22 47 -14 68 26 68 17 0 32 -12 50 -40z
m3682 18 c7 -7 12 -36 12 -65 0 -54 12 -67 38 -41 10 10 18 6 41 -17 16 -17
41 -38 56 -49 41 -28 17 -42 -105 -60 -100 -15 -106 -15 -130 3 -14 10 -30 29
-37 42 -7 13 -21 32 -33 41 -20 16 -20 17 11 39 28 20 32 20 46 6 11 -11 16
-31 15 -61 -2 -51 3 -54 49 -30 28 14 32 14 48 0 22 -20 41 -20 41 -1 0 9 -20
28 -45 43 -24 15 -45 33 -45 40 0 7 -12 24 -26 39 l-25 25 27 29 c30 32 44 35
62 17z m-4236 -134 c12 -35 22 -42 33 -24 3 6 27 10 53 10 33 0 56 -7 84 -26
21 -15 38 -30 38 -35 0 -4 -33 -18 -72 -31 l-73 -23 100 -6 c99 -5 102 -7 344
-108 134 -56 260 -111 280 -122 l36 -20 -40 6 c-55 9 -229 74 -401 151 -164
72 -199 84 -192 63 6 -21 208 -119 396 -193 195 -77 211 -86 163 -86 -61 0
-342 123 -526 231 -58 34 -109 58 -113 54 -14 -14 93 -94 197 -148 58 -30 175
-83 259 -117 83 -35 152 -66 152 -70 0 -4 -6 -13 -13 -19 -10 -8 -35 -4 -98
18 -166 56 -272 119 -449 265 -57 47 -110 86 -117 86 -13 0 -18 -18 -14 -58 3
-37 -17 -16 -30 31 -21 77 -19 74 -35 53 -8 -11 -14 -31 -14 -45 0 -34 -12
-19 -19 26 -8 48 -28 53 -39 11 l-9 -33 -16 39 c-12 27 -21 36 -32 32 -8 -3
-15 -1 -15 4 0 17 -28 11 -39 -7 -9 -17 -10 -17 -16 0 -10 23 -32 22 -46 -4
-9 -17 -13 -19 -20 -8 -21 34 -10 47 66 71 42 14 71 20 65 14 -15 -15 -12 -26
6 -26 9 0 41 23 71 50 61 56 73 55 95 -6z m457 -75 c163 -42 541 -175 541
-192 0 -24 -62 -8 -377 103 -192 68 -350 125 -353 127 -8 8 69 -8 189 -38z
m19 -80 c200 -66 422 -147 438 -160 16 -13 7 -39 -15 -39 -20 0 -489 188 -556
223 -74 39 -41 33 133 -24z m5869 -43 c194 -54 450 -110 733 -161 258 -47 388
-76 436 -97 l27 -13 -24 -6 c-13 -4 -43 -7 -66 -8 -24 -1 -43 -5 -43 -10 0 -9
50 -17 140 -24 33 -2 35 -4 38 -39 2 -22 -1 -38 -7 -38 -22 0 -652 162 -781
200 -74 23 -173 60 -220 84 -47 24 -153 67 -235 95 -82 29 -152 55 -155 58 -3
3 3 3 12 0 9 -3 74 -22 145 -41z m-2347 -3 c72 -23 303 -137 369 -182 33 -23
66 -51 72 -63 l12 -22 -29 19 c-129 85 -228 136 -396 206 -130 53 -170 77
-108 64 19 -4 55 -14 80 -22z m180 -158 c98 -49 200 -108 230 -134 l25 -21
-45 20 c-25 11 -54 20 -65 20 -29 0 -361 164 -341 168 14 3 15 6 5 18 -16 20
88 -19 191 -71z m-287 -16 c57 -23 57 -23 57 -5 0 7 -14 19 -30 26 -17 7 -33
16 -36 21 -10 17 123 -46 285 -134 59 -33 96 -60 102 -74 6 -17 17 -23 37 -23
16 0 37 -9 47 -20 10 -11 40 -34 68 -52 27 -18 45 -34 39 -36 -26 -8 -344 142
-569 270 -125 70 -153 91 -85 62 20 -8 59 -24 85 -35z m-1490 -79 c126 -43
231 -81 235 -84 3 -4 0 -12 -6 -18 -17 -17 -76 0 -250 72 -143 60 -278 126
-232 114 14 -4 128 -42 253 -84z m4384 10 c136 -39 338 -90 448 -115 305 -68
444 -116 405 -140 -6 -4 -58 8 -116 25 -58 17 -111 29 -117 27 -14 -5 73 -46
153 -72 71 -22 84 -35 38 -35 -54 0 -424 110 -693 207 -122 43 -424 169 -435
180 -11 11 78 -10 317 -77z m-3137 -136 c19 -10 98 -56 175 -104 77 -48 230
-140 340 -205 110 -65 207 -124 215 -131 12 -12 12 -14 -3 -14 -22 0 -83 31
-206 104 -94 55 -136 71 -112 42 6 -7 74 -56 151 -107 77 -51 140 -99 140
-106 0 -20 -41 0 -144 69 -283 190 -573 416 -658 510 l-73 83 70 -63 c38 -34
85 -69 105 -78z m-10 -92 c53 -42 194 -148 315 -235 121 -86 231 -166 245
-178 l25 -20 -32 15 c-50 25 -60 19 -27 -15 l29 -31 -60 37 c-407 257 -554
380 -669 565 -5 8 10 -2 35 -23 24 -21 87 -73 139 -115z"/>
<path d="M1515 3028 c-19 -18 -28 -40 -38 -93 -9 -54 -17 -72 -34 -80 -65 -33
-71 -80 -13 -99 34 -11 35 -13 38 -68 3 -55 2 -57 -38 -89 -47 -38 -52 -71
-15 -101 31 -24 31 -41 0 -105 -49 -98 -175 -194 -292 -223 -57 -14 -54 -30 5
-30 100 0 250 105 309 217 45 84 62 176 74 404 10 188 13 206 35 238 13 20 24
39 24 43 0 16 -29 8 -55 -14z"/>
<path d="M823 2908 c-6 -7 -13 -21 -16 -31 -7 -17 -9 -17 -38 7 -38 32 -43 32
-68 0 -23 -29 -28 -92 -11 -125 13 -23 61 -49 90 -49 59 0 120 58 120 115 0
33 -24 81 -45 89 -22 8 -21 8 -32 -6z"/>
<path d="M8594 1986 c-14 -11 -16 -17 -7 -27 19 -20 192 -56 517 -109 586 -96
694 -118 589 -119 -29 -1 -53 -5 -53 -10 0 -4 30 -13 66 -19 46 -8 76 -19 101
-39 60 -47 73 -56 79 -50 15 15 -145 219 -192 244 -26 15 -139 43 -171 43 -45
0 -22 -18 45 -35 60 -16 150 -61 140 -70 -2 -2 -231 40 -508 94 -611 119 -582
114 -606 97z"/>
</g>
</svg>
