<?xml version="1.0" standalone="no"?>
<!DOCTYPE svg PUBLIC "-//W3C//DTD SVG 20010904//EN"
 "http://www.w3.org/TR/2001/REC-SVG-20010904/DTD/svg10.dtd">
<svg version="1.0" xmlns="http://www.w3.org/2000/svg"
 width="1024.000000pt" height="947.000000pt" viewBox="0 0 1024.000000 947.000000"
 preserveAspectRatio="xMidYMid meet">
<metadata>
Created by potrace 1.16, written by Peter Selinger 2001-2019
</metadata>
<g transform="translate(0.000000,947.000000) scale(0.100000,-0.100000)"
fill="#000000" stroke="none">
<path d="M1615 9455 c-682 -37 -1044 -69 -1061 -96 -15 -25 44 -24 411 11 212
19 815 43 1145 43 365 1 367 1 757 -59 186 -28 659 -131 812 -175 132 -39 273
-90 337 -122 49 -25 115 -100 100 -114 -10 -10 -127 21 -311 84 -88 30 -245
83 -350 119 -119 40 -239 74 -320 89 -233 42 -542 72 -561 52 -17 -17 20 -26
206 -52 107 -15 220 -35 250 -45 30 -11 99 -31 153 -45 111 -29 516 -166 682
-230 119 -46 666 -284 780 -340 55 -27 86 -52 148 -120 43 -47 76 -85 73 -85
-3 0 -50 20 -105 45 -198 89 -852 355 -977 398 -149 51 -448 130 -472 124 -40
-8 156 -93 533 -230 525 -192 784 -295 957 -384 128 -65 257 -174 346 -291 59
-77 87 -122 77 -122 -2 0 -89 40 -192 89 -281 133 -538 239 -781 322 -122 42
-132 44 -132 29 0 -14 100 -62 358 -174 449 -195 625 -282 810 -404 178 -116
254 -201 282 -317 9 -38 15 -44 81 -75 39 -19 73 -39 76 -44 4 -5 2 -7 -3 -4
-16 10 -390 167 -517 217 -179 71 -290 100 -271 70 7 -12 36 -25 239 -110 131
-54 364 -156 411 -180 13 -7 20 -18 17 -28 -2 -10 7 -25 25 -38 16 -11 47 -52
70 -90 51 -87 103 -135 225 -208 53 -31 97 -59 97 -61 0 -1 -100 49 -223 111
-361 185 -619 297 -639 277 -14 -14 23 -37 297 -182 290 -154 393 -217 430
-266 14 -19 54 -58 88 -86 34 -28 55 -49 47 -46 -8 3 -119 53 -245 111 -273
124 -405 169 -405 138 0 -14 86 -63 323 -186 114 -59 207 -113 207 -119 0 -6
-13 -27 -28 -46 -28 -33 -29 -33 -75 -22 -95 24 -136 7 -66 -28 23 -12 43 -29
46 -39 2 -9 26 -25 56 -35 88 -31 441 -197 462 -218 l20 -19 -20 8 c-11 5 -72
35 -135 67 -128 65 -342 145 -410 153 -25 3 -57 14 -72 24 -14 11 -29 19 -32
19 -11 0 -6 -38 7 -48 17 -14 209 -92 332 -135 55 -19 135 -52 177 -73 72 -35
76 -39 62 -55 -15 -17 -18 -16 -54 9 -21 15 -40 34 -43 42 -2 10 -30 23 -68
34 -35 9 -111 35 -168 57 -58 21 -111 39 -119 39 -20 0 -9 -23 16 -36 33 -16
37 -23 10 -17 -28 7 -58 32 -58 49 0 9 -15 12 -47 12 -27 -1 -72 2 -100 7 -35
5 -53 4 -53 -2 0 -6 -9 -13 -20 -16 -27 -7 -26 -46 1 -81 25 -32 22 -53 -11
-76 -22 -16 -34 -17 -97 -7 -103 15 -149 -7 -104 -50 10 -10 26 -30 35 -45 16
-25 16 -28 0 -53 -15 -23 -22 -26 -48 -20 -68 14 -136 18 -136 7 0 -11 51 -32
195 -82 161 -56 402 -157 393 -165 -3 -3 -56 17 -119 44 -132 56 -353 129
-419 138 l-45 6 27 -30 c27 -28 27 -30 11 -53 -28 -41 -45 -49 -104 -50 -43 0
-60 -5 -74 -20 -16 -18 -16 -21 -2 -44 30 -46 79 -74 146 -85 35 -6 66 -10 70
-9 3 0 17 -1 31 -2 l25 -2 -25 -8 c-14 -4 -41 -9 -60 -9 l-35 -2 35 -19 c42
-23 31 -25 -34 -5 -27 8 -53 15 -58 15 -17 0 -7 -19 13 -25 11 -4 19 -9 17
-11 -2 -2 -26 3 -53 11 -26 8 -67 15 -89 15 -42 0 -76 -14 -64 -26 4 -3 67
-24 140 -46 131 -39 283 -97 275 -104 -2 -2 -37 7 -78 21 -41 14 -128 39 -194
56 -66 16 -133 39 -149 51 -24 17 -30 18 -42 6 -12 -12 -12 -20 5 -54 11 -21
23 -51 25 -65 5 -23 16 -29 93 -52 134 -41 211 -59 236 -55 21 3 -96 47 -225
83 -38 10 -58 21 -58 31 0 23 23 26 81 10 l54 -14 -44 -1 c-24 -1 -42 -3 -39
-6 4 -4 273 -85 283 -85 15 0 1 22 -22 35 -18 10 -21 14 -8 11 11 -3 32 -8 48
-12 15 -3 27 -9 27 -13 0 -13 -66 -71 -81 -71 -9 0 -49 12 -90 26 -116 40
-237 64 -326 64 -83 0 -113 -12 -113 -45 0 -15 49 -65 62 -65 12 0 9 -13 -7
-34 -11 -14 -32 -21 -82 -25 -60 -5 -69 -9 -83 -33 -13 -25 -13 -29 1 -43 8
-8 48 -22 88 -29 41 -8 77 -20 82 -28 12 -19 -24 -23 -77 -8 -38 11 -47 10
-70 -5 -14 -9 -22 -21 -18 -25 5 -5 59 -13 119 -19 61 -6 130 -17 155 -25 l45
-14 -55 7 c-89 10 -374 7 -380 -4 -3 -6 40 -14 110 -21 63 -6 102 -12 85 -13
l-30 -3 30 -13 c17 -8 41 -14 54 -15 13 0 22 -2 19 -5 -2 -3 -53 0 -113 6
-115 11 -175 6 -175 -15 0 -16 51 -26 130 -26 62 0 229 -25 239 -36 3 -3 -19
-4 -49 0 -116 13 -310 19 -310 9 0 -5 8 -18 19 -27 16 -14 25 -15 66 -6 26 6
50 8 53 5 3 -3 -3 -5 -12 -5 -10 0 -16 -5 -13 -12 3 -10 -16 -13 -77 -13 -65
0 -81 -3 -81 -15 0 -12 23 -18 100 -27 137 -16 208 -16 203 -1 -2 6 -20 17
-39 25 l-34 12 37 -5 c21 -4 50 -3 65 1 l28 8 -25 7 c-14 5 -43 9 -65 10 -22
1 -34 4 -27 7 25 10 122 -8 122 -22 0 -18 -56 -66 -123 -104 l-56 -32 -168 -2
c-150 -2 -177 1 -248 21 -106 31 -148 57 -266 163 l-98 90 -3 -33 c-4 -42 -24
-46 -83 -17 -34 17 -48 20 -57 11 -8 -8 -20 -4 -45 18 -19 17 -38 30 -43 30
-6 0 -10 5 -10 10 0 22 -48 75 -147 161 -56 49 -108 99 -114 111 -11 22 -10
22 17 -2 16 -14 84 -76 150 -138 108 -99 144 -126 144 -107 0 16 -35 69 -80
121 -48 57 -61 84 -40 84 6 0 10 -6 10 -13 0 -7 42 -57 93 -111 66 -69 100
-97 113 -94 56 10 -1 84 -254 329 -134 131 -183 171 -294 241 -94 60 -157 93
-217 112 -46 15 -123 45 -171 67 -98 43 -106 45 -117 25 -7 -12 -17 -13 -48
-6 -63 15 -125 13 -125 -5 0 -7 8 -19 18 -24 16 -10 16 -10 0 -11 -23 0 -23
-13 2 -35 11 -10 17 -21 15 -26 -9 -13 17 -62 51 -99 18 -19 58 -84 89 -144
31 -60 80 -146 110 -191 29 -45 65 -104 80 -131 14 -27 32 -60 40 -74 27 -49
77 -187 104 -285 24 -92 29 -101 59 -116 28 -15 30 -17 12 -22 -35 -9 -21 -27
23 -28 l42 -1 -34 -8 c-18 -4 -40 -15 -49 -24 -15 -14 -15 -20 2 -65 17 -49
17 -50 -3 -70 -31 -31 -27 -51 12 -52 l32 -1 -39 -11 c-42 -13 -60 -37 -29
-37 17 -1 17 -1 0 -11 -10 -6 -22 -20 -28 -32 -5 -12 -13 -29 -18 -37 -48 -78
-105 -187 -125 -240 -37 -100 -155 -342 -231 -475 -108 -190 -175 -353 -175
-426 0 -24 4 -29 23 -29 40 0 405 226 600 371 78 58 225 165 327 237 102 72
221 161 265 197 219 179 304 235 481 315 118 54 120 55 231 58 68 3 118 0 130
-7 10 -6 12 -11 6 -11 -7 0 -13 -4 -13 -9 0 -18 32 -20 73 -6 60 21 71 19 84
-14 14 -38 13 -38 -129 -46 -130 -7 -158 -12 -158 -25 0 -5 17 -17 38 -26 36
-15 36 -16 15 -27 -40 -18 -25 -27 48 -27 48 0 75 5 85 14 20 20 18 29 -5 23
-11 -3 -22 1 -25 8 -6 15 35 25 108 25 46 0 54 -3 79 -34 15 -19 27 -37 27
-39 0 -3 -46 -7 -102 -11 -150 -10 -208 -17 -208 -27 0 -5 6 -9 13 -9 18 0 49
-34 40 -43 -3 -4 -15 -7 -25 -7 -12 0 -16 -4 -12 -11 8 -14 243 -5 313 11 30
7 47 8 54 1 12 -12 2 -16 -55 -26 -62 -10 -43 -25 31 -25 52 0 70 -4 75 -15 6
-18 1 -19 -24 -5 -14 7 -27 5 -49 -8 -17 -9 -31 -20 -31 -24 0 -5 33 -8 73 -9
94 -1 60 -11 -122 -38 -73 -10 -138 -24 -143 -29 -7 -7 3 -17 31 -31 44 -23
49 -32 26 -51 -16 -13 -20 -40 -6 -40 30 0 341 64 362 74 19 9 32 10 45 3 16
-9 14 -12 -18 -23 -19 -6 -105 -24 -189 -39 -85 -15 -158 -31 -162 -35 -5 -4
13 -28 40 -54 l48 -46 -22 -19 c-31 -26 -29 -49 5 -64 15 -7 49 -25 75 -41 52
-31 65 -30 47 4 -10 18 -9 24 1 31 19 12 29 11 29 -2 0 -8 15 -10 46 -5 l46 6
-16 -25 -16 -25 35 0 c27 0 37 5 44 22 5 14 10 17 15 10 12 -20 86 -12 86 9 0
5 -16 9 -35 9 -32 0 -35 2 -29 24 5 20 2 25 -18 28 -15 2 6 12 59 26 56 15 94
21 118 16 31 -6 35 -4 28 12 -12 34 -45 78 -82 111 l-36 33 50 -6 c45 -5 48
-4 32 9 -9 8 -44 20 -77 26 -33 7 -62 17 -66 23 -5 7 4 9 30 4 28 -5 36 -4 36
8 0 10 -21 22 -62 34 -48 14 -64 23 -68 40 -3 12 -23 33 -45 47 -34 21 -37 24
-17 25 13 0 20 4 17 10 -3 5 -15 10 -25 10 -19 0 -90 55 -90 69 0 4 14 6 30 3
45 -6 36 14 -12 30 -26 8 -42 19 -40 27 2 7 -5 22 -15 33 -9 11 -18 29 -18 41
0 15 -5 21 -17 19 -12 -2 -20 7 -25 28 -5 18 -19 37 -33 45 -151 82 -145 80
-280 78 l-125 -1 -157 -75 c-86 -42 -183 -85 -215 -97 l-59 -21 -49 21 c-28
12 -64 32 -82 46 -17 13 -43 28 -57 34 -39 15 -73 99 -86 211 -8 75 -14 97
-31 112 -15 12 -17 17 -7 17 21 0 46 30 50 60 2 16 12 27 28 31 33 9 154 11
176 2 16 -6 16 -7 -2 -14 -10 -4 100 -9 246 -10 146 -2 237 -4 203 -6 -35 -2
-63 -8 -63 -13 0 -13 259 -13 472 0 193 12 248 24 146 32 -118 10 -103 23 25
23 67 0 138 3 157 7 19 4 29 4 23 1 -7 -2 -13 -9 -13 -14 0 -15 33 -10 75 11
22 11 49 20 62 20 12 0 25 4 28 10 4 6 -26 10 -82 11 l-88 1 83 13 c46 7 86
16 89 19 4 3 -32 6 -78 7 l-84 1 50 12 c42 11 46 13 25 18 -18 4 -13 6 18 7
23 0 42 -3 42 -9 0 -5 15 -10 34 -10 19 0 36 -5 38 -11 2 -6 34 -13 70 -16 54
-5 65 -8 60 -21 -4 -12 0 -14 19 -8 13 4 104 11 201 16 97 4 182 11 188 15 20
13 0 23 -60 30 -119 14 -70 25 112 26 106 1 170 5 153 9 -16 4 -55 9 -85 10
-75 2 -57 7 94 24 71 9 131 18 134 21 3 3 -48 6 -114 6 l-119 1 132 17 c72 9
135 19 139 24 4 4 -53 8 -127 8 l-134 2 145 9 c80 5 147 11 149 14 10 10 -13
14 -130 22 -68 5 -99 10 -69 11 126 3 137 30 13 33 l-88 1 90 8 c137 11 333
10 340 -1 4 -6 -33 -10 -102 -11 -143 -1 -97 -17 54 -18 61 -1 118 -4 127 -7
34 -13 13 -24 -45 -24 -71 0 -73 -19 -1 -21 103 -3 108 -17 7 -19 l-100 -3
115 -7 114 -7 41 -46 c22 -26 65 -87 95 -137 35 -58 65 -95 82 -102 21 -10 26
-17 22 -38 -8 -40 90 -341 156 -475 65 -133 176 -312 281 -453 68 -90 116
-132 151 -132 9 0 73 18 141 39 68 22 173 49 232 61 108 20 132 29 107 37 -6
3 -10 9 -7 14 3 5 -16 50 -44 101 -57 108 -65 138 -62 232 3 74 20 119 65 173
14 17 30 41 35 54 9 23 10 23 61 -31 111 -117 154 -185 225 -357 45 -108 124
-228 210 -317 41 -43 82 -68 234 -144 101 -51 193 -92 205 -93 11 0 30 -4 41
-9 15 -7 11 -8 -19 -7 -46 2 -59 -17 -19 -30 26 -9 23 -10 -30 -17 -31 -4 -55
-11 -52 -16 3 -4 37 -11 77 -15 l71 -7 -39 -14 c-21 -8 -55 -14 -74 -14 -19 0
-41 -4 -49 -9 -18 -12 -5 -31 22 -31 12 0 28 -4 35 -9 8 -5 -14 -13 -63 -21
-41 -7 -78 -17 -81 -21 -3 -5 21 -9 53 -9 l58 -1 -47 -21 c-46 -20 -62 -38
-35 -38 6 -1 0 -8 -16 -16 -15 -8 -27 -21 -27 -28 0 -14 -28 -22 -152 -46 -73
-14 -77 -33 -5 -25 149 17 148 17 60 -13 -101 -34 -131 -57 -63 -48 40 5 42 5
17 -5 -21 -8 -27 -16 -24 -29 4 -16 -5 -20 -57 -29 -33 -6 -87 -13 -118 -17
-90 -10 -68 -24 40 -25 92 -1 95 -1 65 -15 -27 -11 -232 -44 -279 -44 -7 0
-14 -4 -14 -10 0 -6 45 -10 113 -11 149 -1 106 -14 -113 -34 -252 -24 -259
-35 -20 -31 170 2 199 1 170 -9 -19 -7 -74 -15 -122 -20 -49 -4 -90 -11 -94
-16 -9 -16 49 -31 101 -25 48 5 47 4 -20 -15 -81 -22 -256 -38 -435 -40 -69 0
-145 -4 -170 -9 -28 -5 78 -8 274 -7 l319 2 -74 -17 c-141 -33 -216 -39 -567
-45 -194 -3 -355 -9 -357 -13 -13 -21 429 -24 780 -5 l80 4 -57 -11 c-63 -11
-70 -19 -35 -36 21 -10 20 -11 -13 -13 -19 -1 -66 -2 -105 -3 -38 0 -71 -5
-73 -10 -4 -11 61 -35 98 -37 81 -4 -86 -18 -285 -23 -126 -4 -255 -9 -285
-13 -112 -12 0 -24 250 -25 223 -2 240 -3 190 -15 -103 -24 -278 -34 -400 -23
-136 12 -528 12 -488 0 23 -7 444 -27 678 -33 l85 -2 -160 -24 c-197 -29 -349
-36 -579 -26 -149 6 -175 9 -165 21 14 17 23 15 -101 24 l-105 7 87 1 c48 1
90 7 93 12 3 6 3 10 -2 11 -4 0 -73 4 -153 8 l-145 7 -201 -122 c-275 -166
-693 -368 -1032 -500 -175 -68 -683 -236 -927 -308 -340 -99 -606 -183 -618
-195 -8 -8 2 -11 35 -11 136 0 545 114 1128 313 350 120 402 140 523 196 70
32 85 37 77 21 -6 -10 -15 -22 -20 -25 -15 -9 -12 -25 6 -25 26 0 180 67 389
170 205 101 330 170 589 329 l148 91 57 -7 56 -7 -60 -6 c-54 -6 -79 -18 -260
-127 -484 -291 -798 -434 -1380 -628 -249 -83 -530 -163 -596 -169 -29 -2 -58
-10 -63 -18 -23 -30 -95 -55 -456 -157 -286 -81 -303 -87 -294 -102 7 -12 82
-6 212 17 111 20 405 108 1142 344 135 43 278 88 319 100 40 12 81 24 90 27
14 4 14 3 1 -6 -8 -6 -51 -23 -95 -37 -103 -34 -105 -35 -70 -50 l30 -13 -33
-1 c-18 0 -80 -20 -137 -45 -237 -103 -859 -299 -1361 -429 -299 -77 -694
-189 -715 -202 -19 -11 -8 -24 20 -24 59 0 213 36 884 206 379 96 694 173 700
171 38 -12 -218 -135 -408 -196 -97 -31 -536 -143 -725 -185 -124 -27 -358
-58 -815 -106 -159 -17 -405 -44 -545 -60 -140 -16 -322 -36 -404 -45 -157
-16 -184 -23 -146 -37 27 -10 386 6 605 27 83 7 191 17 240 20 50 3 123 11
162 16 77 11 237 25 448 39 129 8 254 25 555 75 85 14 166 25 180 25 22 -1 23
-2 7 -11 -47 -27 -361 -104 -562 -138 -163 -27 -564 -63 -905 -81 -107 -6
-258 -14 -335 -20 -303 -20 -543 -22 -722 -5 -94 9 -184 15 -200 13 l-28 -4
37 -16 c20 -9 72 -25 115 -35 70 -16 124 -18 518 -17 702 1 1160 37 1763 140
111 19 210 34 220 33 9 0 -21 -13 -68 -28 -67 -23 -96 -27 -145 -24 -52 5 -64
2 -85 -17 l-25 -21 35 5 c27 4 31 3 18 -5 -10 -5 -18 -15 -18 -21 0 -15 78 -1
184 33 94 31 139 34 71 5 -70 -31 -300 -84 -518 -121 -117 -20 -262 -47 -322
-60 -69 -15 -177 -29 -285 -36 -230 -15 -686 -5 -945 20 -369 36 -538 51 -820
71 -154 11 -305 25 -335 31 -103 19 -132 21 -142 11 -16 -16 37 -39 133 -56
46 -9 280 -34 519 -56 509 -47 738 -74 753 -89 15 -15 815 -15 958 -1 390 40
1017 163 1590 314 283 75 322 87 312 97 -12 12 -204 -30 -592 -127 -183 -47
-335 -83 -338 -81 -3 4 232 76 317 97 274 68 985 278 1140 336 247 93 576 242
945 429 481 244 840 477 1071 697 l71 68 62 0 c34 0 61 -4 61 -10 0 -5 -35
-35 -78 -67 -42 -31 -152 -112 -245 -180 -317 -235 -535 -376 -757 -490 -128
-67 -159 -87 -147 -99 17 -17 378 172 578 301 95 62 298 206 532 378 65 48
128 87 139 87 12 0 43 24 73 55 46 47 59 55 90 55 29 0 47 9 82 40 74 65 146
108 242 145 50 19 95 35 100 35 9 0 -3 -42 -66 -230 -8 -25 -21 -70 -28 -100
-7 -31 -17 -65 -23 -75 -18 -32 -72 -162 -72 -173 0 -6 5 -12 11 -14 7 -2 -28
-66 -79 -145 -117 -182 -152 -245 -152 -271 0 -28 11 -28 60 3 40 25 92 83
190 213 53 71 69 78 56 26 -7 -25 -202 -289 -374 -504 -82 -103 -112 -160 -83
-160 7 0 105 97 191 190 20 22 15 12 -14 -27 -53 -71 -58 -93 -20 -93 35 0 55
23 252 284 147 196 167 217 175 198 7 -16 4 -31 -16 -64 -27 -45 -389 -443
-665 -731 -89 -93 -162 -173 -162 -178 0 -20 39 -7 81 28 24 20 95 86 156 147
80 79 119 110 137 111 52 0 305 250 469 463 58 75 179 255 244 363 l32 54 1
-47 c0 -85 32 -61 125 97 187 318 258 533 299 903 10 89 22 147 35 175 41 85
535 591 654 670 168 112 246 157 405 234 212 102 316 137 567 193 219 48 246
63 226 121 -6 17 -11 49 -11 69 0 21 -6 43 -14 49 -7 6 -65 16 -127 22 -135
12 -219 27 -219 40 0 5 63 59 140 120 89 71 140 119 140 130 0 11 -16 36 -35
58 -37 40 -169 306 -199 398 -10 29 -29 69 -43 90 -15 21 -30 58 -35 83 -11
61 -64 167 -93 186 -13 9 -49 66 -82 132 -51 104 -69 129 -159 222 -55 58
-110 122 -123 142 -12 20 -76 82 -141 138 -66 56 -132 117 -146 136 -15 19
-56 55 -93 81 -72 51 -293 204 -382 264 -34 24 -68 58 -87 89 -27 43 -37 51
-60 50 -43 -3 -45 -2 -97 41 -28 23 -62 46 -76 51 -15 5 -52 38 -83 74 -58 65
-80 76 -100 49 -10 -14 -13 -14 -34 0 -12 9 -40 43 -62 76 -31 45 -46 59 -65
59 -28 0 -31 -9 -12 -29 10 -11 8 -12 -8 -3 -23 12 -80 71 -119 125 -32 44
-42 46 -50 12 -6 -24 -11 -19 -81 65 -42 49 -79 90 -83 90 -5 0 -13 -5 -20
-12 -16 -16 -72 35 -337 302 -272 274 -518 508 -695 659 -174 150 -194 163
-242 166 -21 1 -45 8 -51 14 -9 9 -8 11 4 6 22 -8 31 8 16 28 -7 9 -73 54
-147 101 -74 47 -142 91 -150 99 -34 33 -164 127 -305 220 -278 183 -658 352
-1490 660 -408 151 -692 221 -1190 292 -209 29 -432 59 -495 64 -148 14 -569
12 -875 -4z m5383 -2202 c48 -52 106 -105 129 -119 23 -13 45 -29 48 -34 6 -9
-15 -50 -26 -50 -3 0 -52 53 -109 118 -56 64 -191 204 -299 311 l-196 194 183
-163 c101 -90 223 -205 270 -257z m142 -1953 c-14 -4 -37 -8 -52 -9 -53 -2
-28 -18 37 -24 36 -4 75 -11 87 -18 21 -11 21 -12 -13 -30 -19 -10 -47 -18
-62 -19 -16 0 -26 -4 -22 -10 3 -5 18 -10 33 -10 17 0 23 -3 16 -10 -7 -7 -58
-8 -144 -4 l-133 7 27 24 c20 17 39 23 77 23 46 0 59 7 42 24 -11 10 -12 35
-2 41 11 8 88 23 114 23 16 0 15 -2 -5 -8z m-865 -121 c60 -15 115 -69 70 -69
-30 0 -14 -20 18 -21 81 -3 -65 -17 -168 -17 -60 1 -90 3 -65 5 25 3 49 8 54
13 7 7 -31 13 -159 23 -22 2 1 4 51 5 127 3 218 13 202 23 -7 5 -47 9 -88 10
-41 1 -67 3 -57 6 28 7 20 21 -15 26 -18 2 0 5 40 5 40 1 93 -3 117 -9z m3106
-93 c-9 -11 -4 -15 29 -20 29 -5 38 -10 34 -21 -4 -10 0 -15 12 -15 11 0 28
-7 38 -15 11 -8 31 -15 45 -16 21 0 19 -3 -12 -12 -43 -13 -40 -27 7 -27 23 0
27 -3 18 -12 -17 -17 -15 -28 7 -28 10 0 21 -7 25 -15 3 -8 25 -23 48 -32 l43
-17 -35 -8 c-34 -8 -37 -6 -103 65 l-68 72 -97 3 c-113 4 -189 -12 -291 -61
-86 -41 -136 -93 -189 -195 l-43 -82 -57 1 c-55 1 -56 1 -22 11 19 5 46 12 59
16 40 11 25 27 -31 31 l-53 4 39 12 c50 15 56 31 16 40 -35 8 -35 22 1 43 23
13 23 13 5 -2 -19 -15 -18 -16 17 -16 54 0 84 18 118 71 67 105 216 196 374
229 65 13 79 12 66 -4z m-2115 -8 c-10 -6 -76 -13 -147 -16 -71 -3 -129 -8
-129 -12 0 -11 66 -20 149 -20 73 0 74 0 56 -20 -24 -26 -14 -29 110 -32 l100
-3 -100 -13 c-55 -8 -107 -18 -115 -22 -26 -15 37 -32 137 -37 51 -3 90 -10
87 -14 -3 -5 -45 -9 -93 -9 -48 0 -91 -3 -94 -7 -4 -3 0 -15 10 -25 15 -17 15
-18 -1 -18 -10 0 -26 5 -37 11 -16 8 -18 14 -9 24 9 11 0 16 -47 25 -65 14
-86 23 -113 50 -10 10 -32 21 -49 25 -33 7 -52 25 -27 25 32 0 15 19 -21 25
-21 3 -49 9 -63 12 -24 6 -24 6 8 16 50 15 38 27 -28 27 -33 0 -60 4 -60 10 0
6 89 10 248 10 183 -1 242 -3 228 -12z m1319 -2 l40 -13 -57 -8 c-32 -4 -58
-11 -58 -15 0 -5 19 -15 43 -23 l42 -15 -72 -1 c-41 -1 -73 -5 -73 -11 0 -10
13 -14 95 -29 l50 -9 -71 -1 c-49 -1 -75 -6 -84 -16 -13 -16 -11 -17 100 -33
64 -10 63 -10 -22 -5 -93 6 -119 -7 -50 -25 36 -10 35 -10 -25 -11 -58 -1 -81
-12 -50 -24 6 -3 -7 -6 -30 -6 -35 -1 -43 2 -43 17 1 38 40 101 86 138 27 21
62 53 79 71 33 35 42 37 100 19z m-765 -101 c74 -8 93 -20 57 -36 -35 -16 -34
-22 3 -36 35 -13 39 -29 10 -38 -11 -3 -20 -11 -20 -16 0 -5 9 -14 20 -21 26
-17 25 -25 -5 -32 -30 -8 -34 -26 -6 -26 35 0 34 -21 -1 -58 -50 -53 -78 -93
-78 -110 0 -13 13 -14 80 -9 130 10 147 33 30 39 l-55 3 59 14 59 15 -39 11
-38 10 40 33 c42 35 117 62 172 62 43 0 38 -24 -6 -28 -28 -3 -31 -5 -21 -23
8 -16 5 -26 -15 -50 -35 -41 -40 -82 -31 -243 5 -78 8 -162 8 -188 0 -27 3
-48 7 -48 10 0 35 -56 44 -95 5 -24 1 -21 -23 20 -16 28 -43 63 -60 79 -20 19
-27 32 -20 37 15 9 2 46 -18 53 -21 9 -31 -3 -13 -14 27 -17 -4 -10 -40 10
l-35 18 28 7 c40 10 33 23 -15 27 l-43 4 43 8 c66 13 60 26 -11 26 -58 0 -72
4 -133 41 -38 22 -77 50 -87 61 -25 29 -217 197 -247 216 -52 33 -61 44 -48
59 14 18 -3 32 -42 34 -24 2 -24 2 -2 6 30 6 28 25 -4 44 -24 15 -10 16 195
11 147 -3 221 -1 221 5 0 16 -36 23 -120 24 -41 1 -66 4 -56 6 11 3 26 11 34
19 9 10 40 14 103 14 49 0 89 4 89 9 0 8 -25 12 -168 27 -34 4 -61 8 -59 10 2
2 28 8 58 13 52 8 83 8 199 -4z m1720 -139 c118 -100 137 -120 152 -163 21
-60 22 -83 3 -83 -8 0 -15 7 -15 15 0 27 -46 108 -90 157 -27 31 -66 60 -114
84 -73 35 -75 36 -177 32 -87 -2 -113 -7 -160 -29 -98 -46 -178 -134 -164
-180 7 -21 7 -21 30 1 18 17 30 20 55 15 l32 -7 -22 -23 c-23 -24 -20 -45 6
-45 8 0 32 11 52 25 26 18 50 25 82 25 l45 0 -31 -19 c-17 -10 -41 -31 -52
-46 -30 -38 -54 -122 -46 -162 8 -40 63 -92 127 -119 26 -10 47 -22 47 -26 0
-4 -14 -15 -30 -25 -18 -10 -28 -23 -25 -32 4 -11 -11 -13 -86 -9 -85 4 -94 6
-115 31 -35 41 -55 119 -61 240 -6 109 -18 132 -36 71 -11 -39 -1 -177 19
-243 19 -64 87 -142 154 -176 48 -24 170 -55 217 -55 41 0 141 27 188 51 53
27 112 84 138 134 17 32 22 65 27 170 7 129 7 129 8 34 1 -53 8 -111 14 -130
l13 -34 6 45 c5 40 6 36 7 -27 2 -69 3 -72 37 -100 l36 -28 -16 -51 c-27 -91
-20 -89 -314 -87 -340 3 -396 17 -470 116 -68 90 -93 157 -99 263 -3 54 0 120
7 156 17 85 75 202 120 238 43 36 175 88 251 99 112 17 104 21 250 -103z
m-6219 44 c115 -48 229 -102 229 -111 0 -4 -16 -17 -36 -28 -30 -18 -34 -24
-24 -36 11 -13 6 -14 -36 -8 -27 3 -60 10 -74 14 l-25 7 28 1 c30 1 37 17 10
24 -10 3 6 5 35 6 34 1 52 5 50 12 -2 6 -64 30 -138 53 -125 39 -190 65 -164
66 6 0 44 -11 85 -25 41 -14 85 -24 99 -22 20 2 11 10 -50 39 -92 45 -87 48
11 8z m5044 -97 c-11 -3 -24 -11 -30 -19 -5 -7 -26 -17 -45 -22 -45 -11 -41
-25 7 -33 22 -4 28 -7 15 -8 -36 -2 -21 -25 19 -30 33 -5 33 -5 -11 -10 -25
-4 -44 -11 -43 -17 1 -6 -16 -14 -37 -18 -59 -9 -48 -24 23 -30 34 -3 78 -8
97 -9 19 -2 -5 -5 -55 -6 -133 -2 -139 -18 -9 -26 143 -9 152 -13 27 -14 -56
-1 -105 -5 -108 -11 -4 -6 6 -10 22 -10 24 -1 26 -2 10 -11 -23 -13 -13 -29
21 -30 16 -1 3 -6 -30 -13 -74 -14 -83 -26 -22 -27 l49 -1 -47 -12 c-25 -6
-49 -14 -53 -18 -4 -3 33 -9 82 -13 113 -8 132 -12 61 -14 -65 -1 -77 -12 -48
-41 18 -18 34 -20 168 -22 l147 -2 -145 -5 c-141 -6 -146 -7 -174 -33 l-29
-28 52 0 c39 0 51 4 51 15 0 17 25 20 35 5 4 -6 -7 -15 -24 -21 -37 -13 -40
-27 -8 -33 12 -3 31 -7 42 -9 11 -3 -11 -6 -50 -7 -38 -1 -79 -5 -90 -10 -19
-7 -18 -8 5 -14 14 -3 52 -7 85 -8 54 -3 49 -4 -44 -13 -67 -6 -106 -14 -109
-22 -2 -8 7 -13 25 -14 15 0 22 -3 16 -6 -26 -10 -12 -23 25 -24 l37 -1 -38
-8 c-65 -12 -68 -26 -17 -71 45 -39 45 -39 12 -28 -55 19 -89 115 -132 364
-38 220 -24 297 67 371 68 56 110 74 168 73 27 -1 41 -4 30 -6z m1478 -152
c18 -7 29 -26 47 -82 12 -40 40 -106 60 -146 l38 -73 -22 -32 c-18 -28 -30
-34 -75 -41 -30 -4 -56 -5 -59 -2 -3 3 -8 53 -12 113 -6 96 -4 109 12 128 10
12 21 37 24 56 5 31 2 38 -27 61 -35 27 -29 34 14 18z m-1059 -67 c35 -5 46
-11 46 -24 0 -21 -19 -30 -66 -30 -19 0 -34 -4 -34 -10 0 -5 13 -10 29 -10 69
0 76 -9 99 -131 17 -90 28 -122 55 -163 98 -146 161 -186 329 -211 l108 -15
57 29 c83 41 97 44 137 27 34 -14 35 -15 24 -53 -5 -21 -23 -65 -39 -99 -46
-97 -35 -168 31 -191 34 -11 33 -12 -34 -12 -54 -1 -67 -4 -63 -15 7 -18 -36
-26 -168 -31 -90 -4 -97 -3 -66 8 48 18 55 42 10 33 -19 -3 -79 -9 -134 -12
-90 -6 -105 -4 -153 16 -85 37 -147 126 -173 248 -11 54 -31 66 -37 24 -3 -19
-9 -22 -55 -21 -29 0 -72 4 -97 8 -41 8 -39 9 33 10 79 1 102 14 45 25 -17 3
-37 11 -45 17 -19 16 2 39 36 39 l26 0 -29 23 c-32 26 -28 47 8 47 29 0 39 10
25 27 -9 10 -4 13 27 13 35 0 37 -1 18 -15 -19 -14 -18 -14 4 -15 12 0 22 4
22 9 0 5 12 11 27 13 31 3 34 12 53 118 11 63 7 100 -11 100 -5 0 -11 -11 -15
-24 -5 -20 -14 -25 -60 -31 -63 -8 -69 -19 -16 -33 l37 -10 -42 -1 c-71 -2
-55 -21 27 -34 16 -3 10 -5 -15 -6 -47 -2 -79 -17 -55 -25 8 -3 31 -7 50 -9
26 -3 22 -4 -17 -5 -28 -1 -55 3 -58 9 -4 5 1 37 11 69 l17 59 45 3 c62 4 69
28 8 28 -55 0 -74 20 -19 21 21 0 47 4 58 9 18 7 17 8 -10 15 -56 13 -65 16
-65 24 0 5 11 6 25 3 15 -2 25 0 25 7 0 6 -13 11 -30 11 -30 0 -30 1 -30 53 0
64 9 97 25 97 7 0 33 -3 59 -6z m-1301 -241 c103 -69 187 -127 187 -129 0 -2
-22 7 -50 21 -88 45 -98 26 -14 -29 35 -24 54 -42 50 -51 -15 -39 -26 -97 -21
-105 9 -15 3 -14 -170 32 -143 38 -156 44 -120 48 l40 5 -30 18 c-35 21 -32
20 97 -22 54 -18 106 -31 115 -28 26 6 -95 60 -252 113 l-130 44 68 -6 c80 -8
89 6 22 32 -31 11 -43 20 -36 27 7 7 44 -4 113 -31 112 -45 118 -47 118 -32 0
6 -61 40 -135 76 -161 78 -188 116 -35 48 55 -24 103 -44 105 -44 28 0 -81
115 -124 131 -17 7 -27 6 -31 -2 -5 -8 -20 -5 -51 10 -24 12 -35 18 -24 15 11
-4 31 -9 45 -12 l25 -5 -20 23 -20 23 45 -23 c25 -12 129 -79 233 -147z m2601
-94 c10 -52 8 -58 -31 -82 -21 -14 -75 -56 -121 -96 -48 -41 -92 -71 -105 -71
-16 -1 -45 -32 -115 -125 -95 -127 -125 -151 -161 -128 -45 28 -8 96 84 153
81 52 164 142 207 227 31 60 35 64 61 59 24 -5 37 2 80 44 62 59 92 64 101 19z
m-172 -359 c25 -5 87 -12 137 -16 50 -4 91 -10 91 -14 0 -13 -41 -19 -186 -30
-77 -5 -155 -14 -174 -20 -57 -16 -57 -13 0 45 35 36 60 53 70 49 8 -3 36 -9
62 -14z m-4809 -199 c7 -28 1 -31 -65 -31 -41 0 -58 -4 -58 -13 0 -7 -22 -23
-50 -34 -57 -24 -69 -49 -17 -38 62 14 250 84 258 97 7 10 12 9 26 -4 16 -17
15 -18 -18 -32 -67 -28 -340 -108 -346 -102 -4 3 2 12 12 20 18 13 18 15 -10
51 -27 36 -27 38 -10 51 25 19 46 18 39 -1 -4 -10 0 -15 12 -15 11 0 29 -3 41
-6 18 -5 21 -3 16 15 -4 14 -14 21 -32 22 -31 1 120 36 165 38 24 1 33 -4 37
-18z m1891 -1631 c86 0 93 -6 25 -19 -35 -7 -18 -9 83 -10 124 -1 166 -11 110
-26 -15 -5 -150 -7 -299 -6 -192 2 -273 0 -273 -8 0 -7 21 -11 52 -11 47 0 50
-1 33 -14 -19 -13 -18 -15 15 -20 19 -3 55 -7 80 -9 25 -2 8 -4 -38 -5 -78 -2
-88 0 -172 40 -50 23 -90 44 -90 47 0 3 66 5 146 3 81 -2 157 -1 171 3 33 8
19 25 -20 25 -25 0 -29 3 -17 11 8 5 37 8 65 5 28 -3 86 -6 129 -6z m-550 -70
c-10 -10 -318 -188 -609 -352 -333 -188 -614 -325 -820 -403 -153 -57 -121
-35 43 30 252 100 674 322 1107 583 138 83 259 151 270 152 13 0 16 -3 9 -10z
m-489 -439 c-15 -13 -369 -199 -475 -248 -564 -265 -1499 -605 -1888 -687 -67
-14 -127 -26 -134 -26 -29 0 8 10 142 40 192 43 746 229 1205 405 349 134 764
319 1015 453 135 71 153 80 135 63z"/>
<path d="M4560 3933 c-53 -10 -48 -42 7 -43 30 0 39 -19 17 -35 -32 -23 -8
-28 87 -18 94 11 144 32 79 34 -30 1 -32 2 -11 8 36 10 38 31 4 32 -23 2 -24
2 -5 6 12 2 20 9 17 14 -6 9 -147 10 -195 2z"/>
<path d="M5298 3513 c-3 -25 -12 -31 -93 -61 -49 -17 -117 -46 -151 -62 -34
-17 -66 -30 -73 -30 -22 0 -89 -39 -95 -56 -10 -27 19 -61 61 -69 20 -4 49
-13 64 -21 34 -17 89 -72 89 -87 0 -7 -16 -22 -35 -35 -33 -21 -49 -62 -25
-62 6 0 79 32 163 71 279 131 358 161 328 125 -7 -8 -76 -42 -154 -77 -232
-101 -287 -127 -287 -136 0 -12 108 -68 117 -60 3 4 1 13 -5 19 -21 21 -14 48
12 48 17 0 34 -12 52 -36 29 -37 43 -40 109 -20 11 4 0 -3 -25 -14 -45 -21
-45 -22 -21 -34 l23 -13 -22 -6 c-13 -3 -36 -3 -51 0 -24 5 -29 2 -29 -15 0
-13 -15 -32 -40 -49 -55 -39 -48 -55 28 -69 35 -6 69 -17 75 -23 6 -6 19 -11
28 -11 15 0 16 5 9 29 -6 23 -5 31 7 35 24 9 33 7 33 -8 0 -19 27 -46 46 -46
8 0 22 8 33 19 10 10 30 21 44 25 15 3 43 24 64 45 31 32 43 38 65 34 31 -6
28 -23 -3 -23 -11 0 -19 -7 -19 -17 -1 -12 -25 -29 -77 -53 -58 -26 -78 -41
-85 -61 -6 -18 -27 -37 -64 -56 -30 -15 -54 -31 -54 -35 0 -22 69 3 270 97 74
35 149 68 165 74 28 10 29 10 10 -4 -44 -34 -422 -215 -449 -215 -4 0 -6 7 -6
16 0 26 -25 9 -28 -19 -3 -26 -1 -27 43 -27 39 0 54 -6 91 -36 50 -42 67 -38
39 8 -18 31 -18 31 5 50 28 23 39 23 33 0 -6 -24 59 -82 91 -82 13 0 76 25
140 56 64 31 121 54 128 52 28 -10 -351 -204 -419 -215 -68 -11 -18 -39 74
-42 29 -1 45 4 51 15 7 13 13 14 31 5 29 -16 27 -33 -7 -53 -15 -9 -49 -35
-75 -58 -45 -40 -47 -44 -32 -60 9 -10 30 -20 47 -24 16 -3 53 -24 80 -46 28
-22 60 -40 71 -40 22 0 79 31 276 149 74 45 140 81 145 81 17 -1 -19 -25 -184
-125 -178 -107 -270 -155 -296 -155 -10 0 -43 -17 -74 -39 -118 -83 -437 -236
-785 -376 -253 -102 -416 -157 -595 -200 -150 -36 -181 -48 -167 -61 13 -13
145 -5 232 14 239 53 744 251 1174 461 80 39 147 69 149 66 14 -14 -38 -56
-148 -119 -112 -64 -152 -96 -120 -96 31 0 622 310 885 465 l80 47 200 -6
c120 -3 194 -2 185 3 -20 12 -191 31 -282 31 -40 0 -80 5 -88 10 -10 6 14 7
70 4 47 -3 110 -2 140 3 l55 10 -45 13 c-31 8 -78 11 -151 7 l-106 -6 -28 29
-29 30 55 -2 c44 -1 47 -2 16 -5 -24 -3 -37 -9 -34 -16 4 -15 127 -22 127 -8
0 5 -10 11 -22 14 -26 4 159 1 707 -13 323 -7 526 -3 542 13 2 3 -177 8 -399
12 -368 6 -552 13 -893 32 l-120 7 -38 42 -37 42 45 6 c57 9 50 23 -15 32 -27
4 -56 14 -65 24 -15 16 -14 18 20 24 60 12 44 28 -40 40 -16 2 28 1 99 -1 197
-9 139 22 -82 43 -84 8 -106 24 -33 24 65 0 66 16 3 25 -61 8 -91 25 -44 25
17 0 32 5 32 11 0 6 -16 9 -40 8 -24 -2 -45 2 -52 10 -11 11 -4 13 40 9 28 -3
52 -2 52 2 0 11 -27 20 -60 20 -37 0 -73 34 -94 88 l-16 42 30 0 c38 0 39 18
3 26 -59 12 -68 23 -13 17 79 -10 109 -9 112 2 1 6 -20 14 -48 18 -123 21
-155 29 -151 40 3 7 -7 24 -21 40 -22 23 -23 27 -8 27 31 0 13 34 -29 55 l-40
20 33 3 34 3 -33 25 c-22 16 -27 24 -16 24 9 0 17 4 17 9 0 10 -87 49 -130 57
-44 9 -37 24 12 24 40 0 41 1 25 18 -14 13 -34 17 -90 17 -40 -1 -60 1 -44 3
38 5 34 18 -12 42 -44 22 -60 40 -37 40 25 0 20 45 -6 63 -22 14 -19 15 37 10
74 -7 65 8 -19 32 -33 9 -74 27 -91 41 -41 31 -53 30 -57 -3z"/>
</g>
</svg>
