<?xml version="1.0" standalone="no"?>
<!DOCTYPE svg PUBLIC "-//W3C//DTD SVG 20010904//EN"
 "http://www.w3.org/TR/2001/REC-SVG-20010904/DTD/svg10.dtd">
<svg version="1.0" xmlns="http://www.w3.org/2000/svg"
 width="1024.000000pt" height="1024.000000pt" viewBox="0 0 1024.000000 1024.000000"
 preserveAspectRatio="xMidYMid meet">
<metadata>
Created by potrace 1.16, written by Peter Selinger 2001-2019
</metadata>
<g transform="translate(0.000000,1024.000000) scale(0.100000,-0.100000)"
fill="#000000" stroke="none">
<path d="M4710 9800 c-71 -9 -148 -57 -240 -150 -61 -61 -95 -104 -117 -150
-30 -61 -32 -74 -38 -215 -4 -82 -11 -155 -17 -162 -10 -13 7 -188 23 -230 5
-13 25 -31 44 -39 19 -8 41 -24 50 -37 23 -36 38 -170 31 -287 -5 -92 -10
-113 -43 -183 -23 -49 -49 -88 -68 -102 -16 -12 -93 -55 -170 -95 -359 -187
-487 -285 -558 -426 -41 -82 -173 -409 -188 -468 -31 -116 -66 -442 -59 -541
5 -66 -8 -172 -30 -254 -23 -88 -40 -204 -35 -239 4 -20 17 -71 30 -112 13
-41 31 -109 40 -150 28 -125 64 -237 116 -357 28 -63 75 -179 105 -257 113
-289 140 -342 245 -467 86 -102 118 -144 131 -175 8 -20 12 -95 13 -234 l0
-205 42 -113 c36 -95 50 -158 94 -415 62 -364 66 -408 78 -802 10 -307 28
-483 76 -725 18 -94 33 -191 45 -300 14 -126 39 -353 50 -450 5 -47 12 -94 15
-106 5 -15 -10 -45 -54 -110 -34 -49 -61 -96 -61 -105 0 -10 12 -41 28 -70 47
-92 72 -154 72 -180 0 -13 -36 -96 -80 -183 -106 -209 -106 -211 3 -300 l48
-39 130 6 c114 5 135 9 172 30 55 32 120 102 184 197 88 132 112 182 123 256
13 100 28 180 44 254 26 110 16 227 -36 425 -19 77 -20 111 -25 950 -4 771 -3
885 12 1005 9 74 20 167 24 205 5 39 18 122 30 185 27 145 39 220 47 293 6 57
24 90 24 45 0 -13 23 -91 50 -173 28 -82 62 -192 76 -245 14 -52 61 -196 105
-320 97 -280 127 -397 179 -703 6 -31 14 -83 20 -115 8 -49 24 -178 44 -362
18 -171 49 -401 66 -490 21 -108 44 -268 61 -425 13 -124 67 -279 163 -465
l79 -155 8 -165 c12 -228 15 -245 51 -286 58 -65 97 -79 235 -79 l122 0 58 41
c40 28 62 52 70 75 15 42 16 112 2 164 -9 34 -31 270 -30 330 0 88 22 250 40
299 25 71 26 87 2 151 -10 28 -35 94 -55 148 -26 70 -40 131 -51 220 -8 67
-22 176 -30 242 -8 66 -20 181 -25 255 -6 74 -17 173 -26 220 -27 150 -75 404
-84 450 -17 80 -44 461 -61 875 -19 475 -47 770 -89 955 -51 223 -51 227 35
390 96 182 125 252 150 357 26 107 61 228 74 253 4 8 14 40 21 70 7 30 24 92
37 138 22 74 28 85 58 99 l33 16 7 145 c6 113 13 161 31 215 16 47 24 93 24
139 0 71 -36 266 -71 385 -11 37 -36 122 -55 188 -19 66 -75 219 -123 340 -49
121 -103 261 -121 310 -43 120 -103 234 -151 289 -45 51 -152 125 -231 160
-29 13 -130 50 -223 81 -94 32 -186 66 -206 76 -46 23 -85 69 -118 139 -22 47
-26 69 -26 155 0 102 7 137 63 305 13 41 27 110 30 152 5 82 -11 296 -29 388
-25 122 -98 217 -216 278 -127 65 -222 86 -323 72z m-715 -3437 c32 -192 29
-346 -10 -561 -15 -83 -32 -228 -44 -377 l-6 -80 -8 50 c-4 28 -12 73 -17 100
-4 28 -20 127 -34 220 -14 94 -33 212 -42 263 -13 68 -14 98 -7 115 14 28 30
91 38 142 4 22 20 79 36 127 16 48 29 91 29 97 0 5 5 22 11 38 l11 28 15 -40
c8 -22 21 -77 28 -122z m1919 -118 c-12 -71 -8 -164 10 -235 20 -78 22 -429 3
-474 -12 -28 -14 -24 -30 70 -29 166 -46 531 -31 661 6 50 7 51 31 40 24 -11
25 -14 17 -62z"/>
</g>
</svg>
